<svg width="18" height="18" viewBox="0 0 18 18" fill="none" xmlns="http://www.w3.org/2000/svg">
<path d="M17.8414 3.57617L12.3824 9.00004L17.8414 14.4239C17.9401 14.2177 18 13.9896 18 13.7461V4.25395C18 4.01042 17.9401 3.78243 17.8414 3.57617Z" fill="white"/>
<path d="M16.418 2.67188H1.58204C1.33852 2.67188 1.11053 2.73175 0.904266 2.83043L7.88148 9.77249C8.4984 10.3894 9.50162 10.3894 10.1185 9.77249L17.0958 2.83043C16.8895 2.73175 16.6615 2.67188 16.418 2.67188Z" fill="white"/>
<path d="M0.158555 3.57617C0.0598711 3.78243 0 4.01042 0 4.25395V13.7461C0 13.9897 0.0598711 14.2177 0.158555 14.4239L5.61758 9.00004L0.158555 3.57617Z" fill="white"/>
<path d="M11.6367 9.74561L10.8642 10.5181C9.83631 11.546 8.16368 11.546 7.13575 10.5181L6.36329 9.74561L0.904266 15.1695C1.11053 15.2682 1.33852 15.328 1.58204 15.328H16.418C16.6615 15.328 16.8895 15.2682 17.0958 15.1695L11.6367 9.74561Z" fill="white"/>
</svg>
