<svg width="20" height="20" viewBox="0 0 20 20" fill="none" xmlns="http://www.w3.org/2000/svg">
<path fill-rule="evenodd" clip-rule="evenodd" d="M9.99999 0.0834961C5.81749 0.0834961 2.41666 3.48433 2.41666 7.66683C2.41666 11.7093 9.27666 19.3977 9.56832 19.7243C9.67916 19.8468 9.83666 19.9168 9.99999 19.9168C10.1633 19.9168 10.3208 19.8468 10.4317 19.7243C10.7233 19.3977 17.5833 11.7093 17.5833 7.66683C17.5833 3.48433 14.1825 0.0834961 9.99999 0.0834961ZM9.99997 11.7499C12.2552 11.7499 14.0834 9.92171 14.0834 7.66647C14.0834 5.41124 12.2552 3.58301 9.99997 3.58301C7.74473 3.58301 5.9165 5.41124 5.9165 7.66647C5.9165 9.92171 7.74473 11.7499 9.99997 11.7499Z" fill="white"/>
</svg>
