<svg width="20" height="20" viewBox="0 0 20 20" fill="none" xmlns="http://www.w3.org/2000/svg">
<g clip-path="url(#clip0_86_1568)">
<path d="M9.99997 0C8.02216 0 6.08876 0.58649 4.44427 1.6853C2.79978 2.78412 1.51805 4.3459 0.761179 6.17317C0.00430236 8.00043 -0.193731 10.0111 0.192121 11.9509C0.577973 13.8907 1.53038 15.6725 2.92891 17.0711C4.32743 18.4696 6.10926 19.422 8.04907 19.8079C9.98888 20.1937 11.9995 19.9957 13.8268 19.2388C15.6541 18.4819 17.2159 17.2002 18.3147 15.5557C19.4135 13.9112 20 11.9778 20 10C20 7.34784 18.9464 4.8043 17.071 2.92893C15.1957 1.05357 12.6521 0 9.99997 0V0ZM15.7636 13.9136C15.4727 13.9545 14.05 13.9136 13.9761 13.9136C13.6083 13.9185 13.2535 13.778 12.9886 13.5227C12.6886 13.233 12.4204 12.9148 12.1272 12.6136C12.0409 12.5212 11.947 12.4361 11.8466 12.3591C11.6125 12.1795 11.3807 12.2193 11.2704 12.4966C11.1844 12.795 11.1243 13.1003 11.0909 13.4091C11.0716 13.6886 10.8943 13.8636 10.5807 13.883C10.3863 13.8932 10.192 13.8977 9.99997 13.892C9.3 13.8882 8.61098 13.718 7.98975 13.3955C7.31738 13.0212 6.73152 12.5093 6.27043 11.8932C5.51247 10.925 4.90679 9.86136 4.36588 8.76477C4.33747 8.70909 3.78293 7.52955 3.76929 7.47386C3.71929 7.28864 3.76929 7.11023 3.9227 7.04773C4.02043 7.01023 5.8477 7.04773 5.87838 7.04773C6.01433 7.0468 6.14704 7.08913 6.25735 7.16859C6.36766 7.24805 6.44984 7.36053 6.49202 7.48977C6.8301 8.35454 7.29255 9.16535 7.86475 9.89659C7.9449 9.99399 8.03867 10.0793 8.14316 10.15C8.29202 10.2523 8.43293 10.217 8.49429 10.0443C8.5671 9.80626 8.60986 9.56003 8.62156 9.31136C8.63179 8.81818 8.62156 8.49432 8.59429 8.00114C8.57611 7.68523 8.46475 7.40909 7.99884 7.31932C7.85565 7.29318 7.84315 7.175 7.9352 7.05682C8.12725 6.8125 8.38975 6.77273 8.68406 6.75796C9.1227 6.73295 9.56134 6.75 9.99997 6.75796H10.0954C10.2863 6.75726 10.4768 6.77668 10.6636 6.81591C10.7741 6.83847 10.8744 6.89612 10.9496 6.98027C11.0247 7.06442 11.0707 7.17058 11.0807 7.28295C11.1032 7.40738 11.1127 7.53382 11.1091 7.66023C11.0977 8.19773 11.0716 8.73636 11.0659 9.27386C11.0606 9.48713 11.08 9.7003 11.1238 9.90909C11.1863 10.1955 11.3829 10.267 11.5784 10.0602C11.8317 9.79346 12.0638 9.50737 12.2727 9.20455C12.6429 8.65259 12.948 8.05962 13.1818 7.4375C13.3091 7.11818 13.4091 7.04773 13.75 7.04773H15.6886C15.8039 7.0457 15.9188 7.06103 16.0295 7.09318C16.0687 7.10348 16.1053 7.12176 16.1371 7.14687C16.1689 7.17199 16.1952 7.2034 16.2143 7.23913C16.2334 7.27487 16.2449 7.31416 16.2481 7.35455C16.2513 7.39494 16.2461 7.43556 16.2329 7.47386C16.1375 7.89886 15.9079 8.26136 15.6647 8.61023C15.2704 9.16818 14.8545 9.7125 14.4511 10.2636C14.4026 10.3349 14.3582 10.4089 14.3182 10.4852C14.1659 10.7602 14.1772 10.9136 14.3977 11.1409C14.75 11.5034 15.1261 11.842 15.4659 12.2148C15.7151 12.486 15.9402 12.7784 16.1386 13.0886C16.3807 13.4795 16.2272 13.8477 15.7636 13.9136Z" fill="white"/>
</g>
<defs>
<clipPath id="clip0_86_1568">
<rect width="20" height="20" fill="white"/>
</clipPath>
</defs>
</svg>
