<svg width="1309" height="177" viewBox="0 0 1309 177" fill="none" xmlns="http://www.w3.org/2000/svg">
<path d="M375.188 137.828C373.755 137.828 372.455 137.38 371.29 136.484C370.17 135.588 369.453 134.423 369.14 132.989L346.558 46.5604C345.976 44.2305 346.244 42.3487 347.364 40.915C348.485 39.4364 350.254 38.6972 352.674 38.6972H366.25C367.728 38.6972 369.028 39.1676 370.148 40.1085C371.268 41.0046 371.985 42.1919 372.298 43.6705L388.025 107.652L401.802 43.8049C402.071 42.3263 402.788 41.1166 403.953 40.1757C405.118 39.19 406.462 38.6972 407.985 38.6972H421.158C422.726 38.6972 424.093 39.1676 425.258 40.1085C426.423 41.0494 427.139 42.2815 427.408 43.8049L441.119 107.652L456.845 43.6705C457.159 42.1471 457.876 40.9374 458.996 40.0413C460.161 39.1452 461.505 38.6972 463.028 38.6972H476.537C478.956 38.6972 480.726 39.4364 481.846 40.915C483.011 42.3487 483.257 44.2305 482.585 46.5604L460.138 132.989C459.825 134.423 459.085 135.588 457.92 136.484C456.8 137.38 455.523 137.828 454.089 137.828H433.86C432.337 137.828 430.993 137.357 429.828 136.416C428.663 135.431 427.991 134.199 427.811 132.72L414.572 72.5696L401.332 132.72C401.063 134.243 400.369 135.476 399.248 136.416C398.128 137.357 396.807 137.828 395.283 137.828H375.188ZM555.841 138.231C550.957 139.441 545.872 140.046 540.585 140.046C535.298 140.046 530.19 139.441 525.262 138.231C520.378 137.021 515.674 135.072 511.148 132.384C506.668 129.696 502.77 126.38 499.454 122.437C496.139 118.494 493.495 113.611 491.524 107.786C489.552 101.917 488.567 95.42 488.567 88.2961C488.567 81.1721 489.552 74.6978 491.524 68.8732C493.495 63.0038 496.139 58.0976 499.454 54.1548C502.77 50.212 506.668 46.8964 511.148 44.2081C515.674 41.5199 520.378 39.5709 525.262 38.3611C530.19 37.1514 535.298 36.5465 540.585 36.5465C545.872 36.5465 550.957 37.1514 555.841 38.3611C560.725 39.5709 565.407 41.5199 569.887 44.2081C574.413 46.8964 578.333 50.212 581.649 54.1548C585.009 58.0976 587.675 63.0038 589.646 68.8732C591.618 74.6978 592.604 81.1721 592.604 88.2961C592.604 95.42 591.618 101.917 589.646 107.786C587.675 113.611 585.009 118.494 581.649 122.437C578.333 126.38 574.413 129.696 569.887 132.384C565.407 135.072 560.725 137.021 555.841 138.231ZM521.229 111.214C526.158 117.038 532.61 119.951 540.585 119.951C548.56 119.951 554.967 117.038 559.806 111.214C564.69 105.344 567.132 97.7051 567.132 88.2961C567.132 78.8871 564.69 71.2702 559.806 65.4456C554.967 59.5762 548.56 56.6415 540.585 56.6415C532.61 56.6415 526.158 59.5762 521.229 65.4456C516.346 71.2702 513.904 78.8871 513.904 88.2961C513.904 97.7051 516.346 105.344 521.229 111.214ZM606.381 131.51V45.0818C606.381 43.1552 606.941 41.6095 608.061 40.4445C609.226 39.2796 610.772 38.6972 612.698 38.6972H657.727C669.063 38.6972 678.001 41.6319 684.543 47.5013C691.084 53.3707 694.355 61.5476 694.355 72.0319C694.355 79.0215 692.877 84.8237 689.92 89.4386C687.007 94.0535 682.706 97.9291 677.016 101.065L690.592 128.755C691.891 131.443 692.025 133.639 690.995 135.341C689.964 136.999 687.948 137.828 684.946 137.828H671.908C670.698 137.828 669.556 137.514 668.48 136.887C667.45 136.215 666.711 135.341 666.263 134.266L652.351 105.501H631.718V131.51C631.718 133.437 631.136 134.983 629.971 136.148C628.851 137.268 627.372 137.828 625.535 137.828H612.698C610.772 137.828 609.226 137.268 608.061 136.148C606.941 134.983 606.381 133.437 606.381 131.51ZM631.718 58.7921V85.4062H654.703C659.407 85.4062 662.969 84.2636 665.389 81.9786C667.808 79.6487 669.018 76.378 669.018 72.1663C669.018 67.8651 667.808 64.5719 665.389 62.2869C663.014 59.957 659.452 58.7921 654.703 58.7921H631.718ZM714.45 137.828C712.524 137.828 710.978 137.268 709.813 136.148C708.693 134.983 708.133 133.437 708.133 131.51V45.0818C708.133 43.1552 708.693 41.6095 709.813 40.4445C710.978 39.2796 712.524 38.6972 714.45 38.6972H727.287C729.124 38.6972 730.602 39.2796 731.722 40.4445C732.887 41.6095 733.47 43.1552 733.47 45.0818V79.4919L768.955 41.0494C770.21 39.4812 771.823 38.6972 773.794 38.6972H786.295C790.417 38.6972 792.903 39.6605 793.755 41.5871C794.606 43.4689 793.687 45.9555 790.999 49.0471L761.361 80.9705L793.889 128.083C795.816 131.04 796.286 133.414 795.3 135.207C794.359 136.954 792.142 137.828 788.647 137.828H776.012C773.682 137.828 771.935 136.909 770.77 135.072L743.752 96.4281L733.47 105.232V131.51C733.47 133.437 732.887 134.983 731.722 136.148C730.602 137.268 729.124 137.828 727.287 137.828H714.45ZM843.354 137.828C841.472 137.828 839.948 137.245 838.783 136.08C837.619 134.915 837.036 133.392 837.036 131.51V58.7921H810.153C808.271 58.7921 806.748 58.2096 805.583 57.0447C804.418 55.8798 803.836 54.3564 803.836 52.4746V45.0818C803.836 43.1552 804.396 41.6095 805.516 40.4445C806.681 39.2796 808.227 38.6972 810.153 38.6972H889.458C891.295 38.6972 892.796 39.302 893.961 40.5118C895.17 41.6767 895.775 43.2 895.775 45.0818V52.4746C895.775 54.3116 895.17 55.835 893.961 57.0447C892.796 58.2096 891.295 58.7921 889.458 58.7921H862.508V131.51C862.508 133.392 861.903 134.915 860.693 136.08C859.528 137.245 858.005 137.828 856.123 137.828H843.354ZM907.604 131.51V45.0818C907.604 43.1552 908.164 41.6095 909.284 40.4445C910.449 39.2796 911.994 38.6972 913.921 38.6972H958.95C970.285 38.6972 979.224 41.6319 985.766 47.5013C992.307 53.3707 995.578 61.5476 995.578 72.0319C995.578 79.0215 994.099 84.8237 991.142 89.4386C988.23 94.0535 983.929 97.9291 978.238 101.065L991.814 128.755C993.114 131.443 993.248 133.639 992.217 135.341C991.187 136.999 989.171 137.828 986.169 137.828H973.131C971.921 137.828 970.778 137.514 969.703 136.887C968.673 136.215 967.933 135.341 967.485 134.266L953.573 105.501H932.941V131.51C932.941 133.437 932.358 134.983 931.193 136.148C930.073 137.268 928.595 137.828 926.758 137.828H913.921C911.994 137.828 910.449 137.268 909.284 136.148C908.164 134.983 907.604 133.437 907.604 131.51ZM932.941 58.7921V85.4062H955.926C960.63 85.4062 964.192 84.2636 966.611 81.9786C969.031 79.6487 970.241 76.378 970.241 72.1663C970.241 67.8651 969.031 64.5719 966.611 62.2869C964.237 59.957 960.675 58.7921 955.926 58.7921H932.941ZM1008.41 45.0818C1008.41 43.1552 1008.97 41.6095 1010.09 40.4445C1011.26 39.2796 1012.81 38.6972 1014.73 38.6972H1027.57C1029.41 38.6972 1030.88 39.2796 1032 40.4445C1033.17 41.6095 1033.75 43.1552 1033.75 45.0818V91.186C1033.75 110.362 1040.02 119.951 1052.57 119.951C1065.16 119.951 1071.45 110.362 1071.45 91.186V45.0818C1071.45 43.2 1072.04 41.6767 1073.2 40.5118C1074.41 39.302 1075.94 38.6972 1077.77 38.6972H1090.41C1092.29 38.6972 1093.81 39.302 1094.98 40.5118C1096.19 41.6767 1096.79 43.2 1096.79 45.0818V91.186C1096.79 123.759 1082.05 140.046 1052.57 140.046C1037.47 140.046 1026.34 135.901 1019.17 127.612C1012 119.323 1008.41 107.181 1008.41 91.186V45.0818ZM1199.28 111.55C1201.3 112.087 1202.67 113.118 1203.38 114.641C1204.1 116.12 1203.96 117.755 1202.98 119.547C1199.35 125.686 1193.95 130.637 1186.78 134.4C1179.61 138.164 1171.17 140.046 1161.45 140.046C1153.92 140.046 1147 138.903 1140.68 136.618C1134.41 134.333 1128.96 131.04 1124.35 126.739C1119.78 122.437 1116.21 117.016 1113.66 110.474C1111.11 103.888 1109.83 96.4953 1109.83 88.2961C1109.83 80.0968 1111.11 72.7264 1113.66 66.1849C1116.21 59.5986 1119.78 54.1548 1124.35 49.8536C1128.96 45.5523 1134.41 42.2591 1140.68 39.9741C1147 37.689 1153.92 36.5465 1161.45 36.5465C1171.17 36.5465 1179.61 38.4283 1186.78 42.1919C1193.95 45.9555 1199.35 50.9065 1202.98 57.0447C1203.96 58.8369 1204.1 60.4947 1203.38 62.0181C1202.67 63.4966 1201.3 64.5047 1199.28 65.0424L1187.45 68.0667C1184.59 68.7388 1182.14 67.7755 1180.13 65.1768C1175.42 59.4866 1169.2 56.6415 1161.45 56.6415C1153.6 56.6415 1147.26 59.4866 1142.43 65.1768C1137.59 70.867 1135.17 78.5734 1135.17 88.2961C1135.17 98.0187 1137.59 105.725 1142.43 111.415C1147.26 117.106 1153.6 119.951 1161.45 119.951C1169.2 119.951 1175.42 117.106 1180.13 111.415C1182.14 108.817 1184.59 107.853 1187.45 108.525L1199.28 111.55ZM1222.67 137.828C1220.74 137.828 1219.2 137.268 1218.03 136.148C1216.91 134.983 1216.35 133.437 1216.35 131.51V45.0818C1216.35 43.1552 1216.91 41.6095 1218.03 40.4445C1219.2 39.2796 1220.74 38.6972 1222.67 38.6972H1235.51C1237.34 38.6972 1238.82 39.2796 1239.94 40.4445C1241.11 41.6095 1241.69 43.1552 1241.69 45.0818V79.4919L1277.18 41.0494C1278.43 39.4812 1280.04 38.6972 1282.01 38.6972H1294.52C1298.64 38.6972 1301.12 39.6605 1301.98 41.5871C1302.83 43.4689 1301.91 45.9555 1299.22 49.0471L1269.58 80.9705L1302.11 128.083C1304.04 131.04 1304.51 133.414 1303.52 135.207C1302.58 136.954 1300.36 137.828 1296.87 137.828H1284.23C1281.9 137.828 1280.16 136.909 1278.99 135.072L1251.97 96.4281L1241.69 105.232V131.51C1241.69 133.437 1241.11 134.983 1239.94 136.148C1238.82 137.268 1237.34 137.828 1235.51 137.828H1222.67Z" fill="url(#paint0_linear_150_108)"/>
<path d="M375.188 137.828C373.755 137.828 372.455 137.38 371.29 136.484C370.17 135.588 369.453 134.423 369.14 132.989L346.558 46.5604C345.976 44.2305 346.244 42.3487 347.364 40.915C348.485 39.4364 350.254 38.6972 352.674 38.6972H366.25C367.728 38.6972 369.028 39.1676 370.148 40.1085C371.268 41.0046 371.985 42.1919 372.298 43.6705L388.025 107.652L401.802 43.8049C402.071 42.3263 402.788 41.1166 403.953 40.1757C405.118 39.19 406.462 38.6972 407.985 38.6972H421.158C422.726 38.6972 424.093 39.1676 425.258 40.1085C426.423 41.0494 427.139 42.2815 427.408 43.8049L441.119 107.652L456.845 43.6705C457.159 42.1471 457.876 40.9374 458.996 40.0413C460.161 39.1452 461.505 38.6972 463.028 38.6972H476.537C478.956 38.6972 480.726 39.4364 481.846 40.915C483.011 42.3487 483.257 44.2305 482.585 46.5604L460.138 132.989C459.825 134.423 459.085 135.588 457.92 136.484C456.8 137.38 455.523 137.828 454.089 137.828H433.86C432.337 137.828 430.993 137.357 429.828 136.416C428.663 135.431 427.991 134.199 427.811 132.72L414.572 72.5696L401.332 132.72C401.063 134.243 400.369 135.476 399.248 136.416C398.128 137.357 396.807 137.828 395.283 137.828H375.188ZM555.841 138.231C550.957 139.441 545.872 140.046 540.585 140.046C535.298 140.046 530.19 139.441 525.262 138.231C520.378 137.021 515.674 135.072 511.148 132.384C506.668 129.696 502.77 126.38 499.454 122.437C496.139 118.494 493.495 113.611 491.524 107.786C489.552 101.917 488.567 95.42 488.567 88.2961C488.567 81.1721 489.552 74.6978 491.524 68.8732C493.495 63.0038 496.139 58.0976 499.454 54.1548C502.77 50.212 506.668 46.8964 511.148 44.2081C515.674 41.5199 520.378 39.5709 525.262 38.3611C530.19 37.1514 535.298 36.5465 540.585 36.5465C545.872 36.5465 550.957 37.1514 555.841 38.3611C560.725 39.5709 565.407 41.5199 569.887 44.2081C574.413 46.8964 578.333 50.212 581.649 54.1548C585.009 58.0976 587.675 63.0038 589.646 68.8732C591.618 74.6978 592.604 81.1721 592.604 88.2961C592.604 95.42 591.618 101.917 589.646 107.786C587.675 113.611 585.009 118.494 581.649 122.437C578.333 126.38 574.413 129.696 569.887 132.384C565.407 135.072 560.725 137.021 555.841 138.231ZM521.229 111.214C526.158 117.038 532.61 119.951 540.585 119.951C548.56 119.951 554.967 117.038 559.806 111.214C564.69 105.344 567.132 97.7051 567.132 88.2961C567.132 78.8871 564.69 71.2702 559.806 65.4456C554.967 59.5762 548.56 56.6415 540.585 56.6415C532.61 56.6415 526.158 59.5762 521.229 65.4456C516.346 71.2702 513.904 78.8871 513.904 88.2961C513.904 97.7051 516.346 105.344 521.229 111.214ZM606.381 131.51V45.0818C606.381 43.1552 606.941 41.6095 608.061 40.4445C609.226 39.2796 610.772 38.6972 612.698 38.6972H657.727C669.063 38.6972 678.001 41.6319 684.543 47.5013C691.084 53.3707 694.355 61.5476 694.355 72.0319C694.355 79.0215 692.877 84.8237 689.92 89.4386C687.007 94.0535 682.706 97.9291 677.016 101.065L690.592 128.755C691.891 131.443 692.025 133.639 690.995 135.341C689.964 136.999 687.948 137.828 684.946 137.828H671.908C670.698 137.828 669.556 137.514 668.48 136.887C667.45 136.215 666.711 135.341 666.263 134.266L652.351 105.501H631.718V131.51C631.718 133.437 631.136 134.983 629.971 136.148C628.851 137.268 627.372 137.828 625.535 137.828H612.698C610.772 137.828 609.226 137.268 608.061 136.148C606.941 134.983 606.381 133.437 606.381 131.51ZM631.718 58.7921V85.4062H654.703C659.407 85.4062 662.969 84.2636 665.389 81.9786C667.808 79.6487 669.018 76.378 669.018 72.1663C669.018 67.8651 667.808 64.5719 665.389 62.2869C663.014 59.957 659.452 58.7921 654.703 58.7921H631.718ZM714.45 137.828C712.524 137.828 710.978 137.268 709.813 136.148C708.693 134.983 708.133 133.437 708.133 131.51V45.0818C708.133 43.1552 708.693 41.6095 709.813 40.4445C710.978 39.2796 712.524 38.6972 714.45 38.6972H727.287C729.124 38.6972 730.602 39.2796 731.722 40.4445C732.887 41.6095 733.47 43.1552 733.47 45.0818V79.4919L768.955 41.0494C770.21 39.4812 771.823 38.6972 773.794 38.6972H786.295C790.417 38.6972 792.903 39.6605 793.755 41.5871C794.606 43.4689 793.687 45.9555 790.999 49.0471L761.361 80.9705L793.889 128.083C795.816 131.04 796.286 133.414 795.3 135.207C794.359 136.954 792.142 137.828 788.647 137.828H776.012C773.682 137.828 771.935 136.909 770.77 135.072L743.752 96.4281L733.47 105.232V131.51C733.47 133.437 732.887 134.983 731.722 136.148C730.602 137.268 729.124 137.828 727.287 137.828H714.45ZM843.354 137.828C841.472 137.828 839.948 137.245 838.783 136.08C837.619 134.915 837.036 133.392 837.036 131.51V58.7921H810.153C808.271 58.7921 806.748 58.2096 805.583 57.0447C804.418 55.8798 803.836 54.3564 803.836 52.4746V45.0818C803.836 43.1552 804.396 41.6095 805.516 40.4445C806.681 39.2796 808.227 38.6972 810.153 38.6972H889.458C891.295 38.6972 892.796 39.302 893.961 40.5118C895.17 41.6767 895.775 43.2 895.775 45.0818V52.4746C895.775 54.3116 895.17 55.835 893.961 57.0447C892.796 58.2096 891.295 58.7921 889.458 58.7921H862.508V131.51C862.508 133.392 861.903 134.915 860.693 136.08C859.528 137.245 858.005 137.828 856.123 137.828H843.354ZM907.604 131.51V45.0818C907.604 43.1552 908.164 41.6095 909.284 40.4445C910.449 39.2796 911.994 38.6972 913.921 38.6972H958.95C970.285 38.6972 979.224 41.6319 985.766 47.5013C992.307 53.3707 995.578 61.5476 995.578 72.0319C995.578 79.0215 994.099 84.8237 991.142 89.4386C988.23 94.0535 983.929 97.9291 978.238 101.065L991.814 128.755C993.114 131.443 993.248 133.639 992.217 135.341C991.187 136.999 989.171 137.828 986.169 137.828H973.131C971.921 137.828 970.778 137.514 969.703 136.887C968.673 136.215 967.933 135.341 967.485 134.266L953.573 105.501H932.941V131.51C932.941 133.437 932.358 134.983 931.193 136.148C930.073 137.268 928.595 137.828 926.758 137.828H913.921C911.994 137.828 910.449 137.268 909.284 136.148C908.164 134.983 907.604 133.437 907.604 131.51ZM932.941 58.7921V85.4062H955.926C960.63 85.4062 964.192 84.2636 966.611 81.9786C969.031 79.6487 970.241 76.378 970.241 72.1663C970.241 67.8651 969.031 64.5719 966.611 62.2869C964.237 59.957 960.675 58.7921 955.926 58.7921H932.941ZM1008.41 45.0818C1008.41 43.1552 1008.97 41.6095 1010.09 40.4445C1011.26 39.2796 1012.81 38.6972 1014.73 38.6972H1027.57C1029.41 38.6972 1030.88 39.2796 1032 40.4445C1033.17 41.6095 1033.75 43.1552 1033.75 45.0818V91.186C1033.75 110.362 1040.02 119.951 1052.57 119.951C1065.16 119.951 1071.45 110.362 1071.45 91.186V45.0818C1071.45 43.2 1072.04 41.6767 1073.2 40.5118C1074.41 39.302 1075.94 38.6972 1077.77 38.6972H1090.41C1092.29 38.6972 1093.81 39.302 1094.98 40.5118C1096.19 41.6767 1096.79 43.2 1096.79 45.0818V91.186C1096.79 123.759 1082.05 140.046 1052.57 140.046C1037.47 140.046 1026.34 135.901 1019.17 127.612C1012 119.323 1008.41 107.181 1008.41 91.186V45.0818ZM1199.28 111.55C1201.3 112.087 1202.67 113.118 1203.38 114.641C1204.1 116.12 1203.96 117.755 1202.98 119.547C1199.35 125.686 1193.95 130.637 1186.78 134.4C1179.61 138.164 1171.17 140.046 1161.45 140.046C1153.92 140.046 1147 138.903 1140.68 136.618C1134.41 134.333 1128.96 131.04 1124.35 126.739C1119.78 122.437 1116.21 117.016 1113.66 110.474C1111.11 103.888 1109.83 96.4953 1109.83 88.2961C1109.83 80.0968 1111.11 72.7264 1113.66 66.1849C1116.21 59.5986 1119.78 54.1548 1124.35 49.8536C1128.96 45.5523 1134.41 42.2591 1140.68 39.9741C1147 37.689 1153.92 36.5465 1161.45 36.5465C1171.17 36.5465 1179.61 38.4283 1186.78 42.1919C1193.95 45.9555 1199.35 50.9065 1202.98 57.0447C1203.96 58.8369 1204.1 60.4947 1203.38 62.0181C1202.67 63.4966 1201.3 64.5047 1199.28 65.0424L1187.45 68.0667C1184.59 68.7388 1182.14 67.7755 1180.13 65.1768C1175.42 59.4866 1169.2 56.6415 1161.45 56.6415C1153.6 56.6415 1147.26 59.4866 1142.43 65.1768C1137.59 70.867 1135.17 78.5734 1135.17 88.2961C1135.17 98.0187 1137.59 105.725 1142.43 111.415C1147.26 117.106 1153.6 119.951 1161.45 119.951C1169.2 119.951 1175.42 117.106 1180.13 111.415C1182.14 108.817 1184.59 107.853 1187.45 108.525L1199.28 111.55ZM1222.67 137.828C1220.74 137.828 1219.2 137.268 1218.03 136.148C1216.91 134.983 1216.35 133.437 1216.35 131.51V45.0818C1216.35 43.1552 1216.91 41.6095 1218.03 40.4445C1219.2 39.2796 1220.74 38.6972 1222.67 38.6972H1235.51C1237.34 38.6972 1238.82 39.2796 1239.94 40.4445C1241.11 41.6095 1241.69 43.1552 1241.69 45.0818V79.4919L1277.18 41.0494C1278.43 39.4812 1280.04 38.6972 1282.01 38.6972H1294.52C1298.64 38.6972 1301.12 39.6605 1301.98 41.5871C1302.83 43.4689 1301.91 45.9555 1299.22 49.0471L1269.58 80.9705L1302.11 128.083C1304.04 131.04 1304.51 133.414 1303.52 135.207C1302.58 136.954 1300.36 137.828 1296.87 137.828H1284.23C1281.9 137.828 1280.16 136.909 1278.99 135.072L1251.97 96.4281L1241.69 105.232V131.51C1241.69 133.437 1241.11 134.983 1239.94 136.148C1238.82 137.268 1237.34 137.828 1235.51 137.828H1222.67Z" fill="white"/>
<path d="M139.401 175.172H106.131C105.267 175.172 104.418 174.949 103.666 174.523C102.914 174.097 102.286 173.483 101.841 172.742L0.841448 4.74228C0.5693 4.28731 0.422583 3.76834 0.416231 3.23823C0.409879 2.70811 0.544123 2.18577 0.805292 1.7244C1.06646 1.26304 1.44523 0.87912 1.90302 0.611745C2.36082 0.34437 2.88129 0.203082 3.41145 0.202275H36.6914C37.5546 0.201058 38.4033 0.423309 39.1551 0.847387C39.9069 1.27146 40.5361 1.88292 40.9814 2.62227L141.981 170.622C142.257 171.078 142.405 171.599 142.413 172.132C142.42 172.664 142.285 173.189 142.023 173.652C141.76 174.115 141.379 174.5 140.918 174.767C140.457 175.035 139.934 175.174 139.401 175.172Z" fill="url(#paint1_linear_150_108)"/>
<path d="M139.401 175.172H106.131C105.267 175.172 104.418 174.949 103.666 174.523C102.914 174.097 102.286 173.483 101.841 172.742L0.841448 4.74228C0.5693 4.28731 0.422583 3.76834 0.416231 3.23823C0.409879 2.70811 0.544123 2.18577 0.805292 1.7244C1.06646 1.26304 1.44523 0.87912 1.90302 0.611745C2.36082 0.34437 2.88129 0.203082 3.41145 0.202275H36.6914C37.5546 0.201058 38.4033 0.423309 39.1551 0.847387C39.9069 1.27146 40.5361 1.88292 40.9814 2.62227L141.981 170.622C142.257 171.078 142.405 171.599 142.413 172.132C142.42 172.664 142.285 173.189 142.023 173.652C141.76 174.115 141.379 174.5 140.918 174.767C140.457 175.035 139.934 175.174 139.401 175.172Z" fill="white"/>
<path d="M291.702 4.72229L230.132 107.102L212.042 137.272C211.775 137.715 211.398 138.082 210.948 138.336C210.498 138.591 209.989 138.725 209.472 138.725C208.955 138.725 208.446 138.591 207.996 138.336C207.546 138.082 207.169 137.715 206.902 137.272L190.902 110.702C190.248 109.614 189.902 108.367 189.902 107.097C189.902 105.827 190.248 104.581 190.902 103.492L209.432 72.6423L251.522 2.64229C251.967 1.90294 252.597 1.29147 253.348 0.867391C254.1 0.443314 254.949 0.221077 255.812 0.222295H289.132C289.656 0.227188 290.17 0.369362 290.622 0.634664C291.074 0.899966 291.449 1.27913 291.709 1.73436C291.969 2.1896 292.105 2.70504 292.104 3.22928C292.103 3.75353 291.964 4.26829 291.702 4.72229Z" fill="url(#paint2_linear_150_108)"/>
<path d="M291.702 4.72229L230.132 107.102L212.042 137.272C211.775 137.715 211.398 138.082 210.948 138.336C210.498 138.591 209.989 138.725 209.472 138.725C208.955 138.725 208.446 138.591 207.996 138.336C207.546 138.082 207.169 137.715 206.902 137.272L190.902 110.702C190.248 109.614 189.902 108.367 189.902 107.097C189.902 105.827 190.248 104.581 190.902 103.492L209.432 72.6423L251.522 2.64229C251.967 1.90294 252.597 1.29147 253.348 0.867391C254.1 0.443314 254.949 0.221077 255.812 0.222295H289.132C289.656 0.227188 290.17 0.369362 290.622 0.634664C291.074 0.899966 291.449 1.27913 291.709 1.73436C291.969 2.1896 292.105 2.70504 292.104 3.22928C292.103 3.75353 291.964 4.26829 291.702 4.72229Z" fill="white"/>
<path d="M265.203 174.862H231.923C231.257 174.861 230.598 174.727 229.985 174.467C229.372 174.208 228.817 173.829 228.353 173.352L217.963 156.052C217.308 154.964 216.963 153.717 216.963 152.447C216.963 151.177 217.308 149.931 217.963 148.842L233.843 122.402C234.109 121.959 234.486 121.593 234.937 121.338C235.387 121.084 235.895 120.95 236.413 120.95C236.93 120.95 237.438 121.084 237.889 121.338C238.339 121.593 238.716 121.959 238.983 122.402L257.133 152.582L267.793 170.312C268.068 170.769 268.217 171.291 268.224 171.824C268.231 172.357 268.095 172.883 267.831 173.346C267.567 173.81 267.185 174.195 266.723 174.461C266.261 174.728 265.736 174.866 265.203 174.862Z" fill="url(#paint3_linear_150_108)"/>
<path d="M265.203 174.862H231.923C231.257 174.861 230.598 174.727 229.985 174.467C229.372 174.208 228.817 173.829 228.353 173.352L217.963 156.052C217.308 154.964 216.963 153.717 216.963 152.447C216.963 151.177 217.308 149.931 217.963 148.842L233.843 122.402C234.109 121.959 234.486 121.593 234.937 121.338C235.387 121.084 235.895 120.95 236.413 120.95C236.93 120.95 237.438 121.084 237.889 121.338C238.339 121.593 238.716 121.959 238.983 122.402L257.133 152.582L267.793 170.312C268.068 170.769 268.217 171.291 268.224 171.824C268.231 172.357 268.095 172.883 267.831 173.346C267.567 173.81 267.185 174.195 266.723 174.461C266.261 174.728 265.736 174.866 265.203 174.862Z" fill="white"/>
<path d="M204.222 175.172H170.942C170.078 175.172 169.229 174.949 168.477 174.523C167.725 174.097 167.096 173.483 166.652 172.742L130.812 113.102L123.812 101.512L123.602 101.182L116.792 89.8522C116.52 89.3973 116.373 88.8783 116.367 88.3482C116.361 87.8181 116.495 87.2957 116.756 86.8344C117.017 86.373 117.396 85.9891 117.854 85.7217C118.312 85.4543 118.832 85.313 119.362 85.3122H140.742C148.177 85.3075 155.31 82.3731 160.596 77.1451C165.883 71.917 168.896 64.8165 168.982 57.3822C169.152 41.6822 155.852 28.8223 140.142 28.8223H83.0123C82.1492 28.8235 81.3004 28.6012 80.5486 28.1771C79.7969 27.7531 79.1677 27.1416 78.7223 26.4022L65.7223 4.71225C65.4502 4.25728 65.3034 3.73829 65.2971 3.20818C65.2907 2.67806 65.425 2.15573 65.6862 1.69437C65.9473 1.233 66.3261 0.849085 66.7839 0.581711C67.2417 0.314336 67.7622 0.173048 68.2923 0.172241H139.992C171.212 0.172241 197.242 24.9622 197.722 56.1722C197.885 65.9696 195.511 75.6426 190.831 84.2513C186.151 92.86 179.323 100.112 171.012 105.302C170.345 105.716 169.866 106.375 169.679 107.138C169.492 107.901 169.612 108.707 170.012 109.382L206.812 170.622C207.088 171.079 207.237 171.601 207.244 172.134C207.25 172.667 207.115 173.193 206.851 173.656C206.587 174.12 206.204 174.505 205.742 174.771C205.28 175.038 204.756 175.176 204.222 175.172Z" fill="url(#paint4_linear_150_108)"/>
<path d="M204.222 175.172H170.942C170.078 175.172 169.229 174.949 168.477 174.523C167.725 174.097 167.096 173.483 166.652 172.742L130.812 113.102L123.812 101.512L123.602 101.182L116.792 89.8522C116.52 89.3973 116.373 88.8783 116.367 88.3482C116.361 87.8181 116.495 87.2957 116.756 86.8344C117.017 86.373 117.396 85.9891 117.854 85.7217C118.312 85.4543 118.832 85.313 119.362 85.3122H140.742C148.177 85.3075 155.31 82.3731 160.596 77.1451C165.883 71.917 168.896 64.8165 168.982 57.3822C169.152 41.6822 155.852 28.8223 140.142 28.8223H83.0123C82.1492 28.8235 81.3004 28.6012 80.5486 28.1771C79.7969 27.7531 79.1677 27.1416 78.7223 26.4022L65.7223 4.71225C65.4502 4.25728 65.3034 3.73829 65.2971 3.20818C65.2907 2.67806 65.425 2.15573 65.6862 1.69437C65.9473 1.233 66.3261 0.849085 66.7839 0.581711C67.2417 0.314336 67.7622 0.173048 68.2923 0.172241H139.992C171.212 0.172241 197.242 24.9622 197.722 56.1722C197.885 65.9696 195.511 75.6426 190.831 84.2513C186.151 92.86 179.323 100.112 171.012 105.302C170.345 105.716 169.866 106.375 169.679 107.138C169.492 107.901 169.612 108.707 170.012 109.382L206.812 170.622C207.088 171.079 207.237 171.601 207.244 172.134C207.25 172.667 207.115 173.193 206.851 173.656C206.587 174.12 206.204 174.505 205.742 174.771C205.28 175.038 204.756 175.176 204.222 175.172Z" fill="white"/>
<defs>
<linearGradient id="paint0_linear_150_108" x1="407.549" y1="70.0423" x2="1235.25" y2="100.185" gradientUnits="userSpaceOnUse">
<stop stop-color="#228BEB"/>
<stop offset="1" stop-color="#003362"/>
</linearGradient>
<linearGradient id="paint1_linear_150_108" x1="45.4152" y1="76.0794" x2="228.99" y2="104.832" gradientUnits="userSpaceOnUse">
<stop stop-color="#228BEB"/>
<stop offset="1" stop-color="#003362"/>
</linearGradient>
<linearGradient id="paint2_linear_150_108" x1="32.4435" y1="69.4735" x2="233.66" y2="92.5618" gradientUnits="userSpaceOnUse">
<stop stop-color="#228BEB"/>
<stop offset="1" stop-color="#003362"/>
</linearGradient>
<linearGradient id="paint3_linear_150_108" x1="38.8692" y1="69.6718" x2="229.061" y2="116.601" gradientUnits="userSpaceOnUse">
<stop stop-color="#228BEB"/>
<stop offset="1" stop-color="#003362"/>
</linearGradient>
<linearGradient id="paint4_linear_150_108" x1="36.5692" y1="76.0793" x2="230.096" y2="105.938" gradientUnits="userSpaceOnUse">
<stop stop-color="#228BEB"/>
<stop offset="1" stop-color="#003362"/>
</linearGradient>
</defs>
</svg>
