<svg width="28" height="23" viewBox="0 0 28 23" fill="none" xmlns="http://www.w3.org/2000/svg">
<g clip-path="url(#clip0_93_5027)">
<path d="M1.37981 12.8724L23.2344 12.8724L15.8126 20.136C15.68 20.263 15.5744 20.4144 15.502 20.5815C15.4296 20.7486 15.3918 20.9281 15.3908 21.1096C15.3898 21.2911 15.4256 21.471 15.4961 21.6389C15.5666 21.8067 15.6704 21.9593 15.8016 22.0876C15.9327 22.2159 16.0886 22.3175 16.2601 22.3865C16.4317 22.4555 16.6155 22.4905 16.801 22.4894C16.9864 22.4884 17.1698 22.4514 17.3405 22.3805C17.5113 22.3096 17.666 22.2063 17.7956 22.0765L27.6109 12.4703C27.8738 12.2129 28.0215 11.8639 28.0215 11.5C28.0215 11.1362 27.8738 10.7872 27.6109 10.5298L17.7956 0.923576C17.6655 0.795896 17.511 0.694642 17.3408 0.625636C17.1706 0.556631 16.9881 0.521235 16.8039 0.521486C16.5266 0.521544 16.2556 0.60206 16.025 0.752856C15.7945 0.903653 15.6148 1.11796 15.5087 1.36868C15.4026 1.6194 15.3749 1.89529 15.4289 2.16145C15.483 2.42762 15.6165 2.67211 15.8126 2.86403L23.2344 10.1277L1.37981 10.1277C1.00792 10.1277 0.651268 10.2723 0.388306 10.5297C0.125344 10.787 -0.0223849 11.1361 -0.0223849 11.5C-0.0223849 11.864 0.125344 12.2131 0.388306 12.4704C0.651268 12.7278 1.00792 12.8724 1.37981 12.8724Z" fill="black"/>
</g>
<defs>
<clipPath id="clip0_93_5027">
<rect width="22" height="28" fill="white" transform="matrix(0 1 -1 0 28 0.5)"/>
</clipPath>
</defs>
</svg>
