<svg width="20" height="20" viewBox="0 0 20 20" fill="none" xmlns="http://www.w3.org/2000/svg">
<g clip-path="url(#clip0_75_521)">
<path d="M10.625 4.375V3.75C10.625 2.02698 9.22302 0.625 7.5 0.625C5.77698 0.625 4.375 2.02698 4.375 3.75V4.375H0.625V16.875C0.625 18.2562 1.74377 19.375 3.125 19.375H9.80011C9.29382 19.0186 8.83759 18.5999 8.4436 18.125H3.125C2.43744 18.125 1.875 17.5623 1.875 16.875V5.625H4.375V6.875H5.625V5.625H9.375V6.875H10.625V5.625H13.125V6.90613C13.3313 6.88721 13.5376 6.875 13.75 6.875C13.9624 6.875 14.1687 6.88721 14.375 6.90613V4.375H10.625ZM5.625 4.375V3.75C5.625 2.71606 6.46606 1.875 7.5 1.875C8.53394 1.875 9.375 2.71606 9.375 3.75V4.375H5.625ZM13.75 19.375C10.6482 19.375 8.125 16.8518 8.125 13.75C8.125 10.6482 10.6482 8.125 13.75 8.125C16.8518 8.125 19.375 10.6482 19.375 13.75C19.375 16.8518 16.8518 19.375 13.75 19.375ZM13.75 9.375C11.3379 9.375 9.375 11.3379 9.375 13.75C9.375 16.1621 11.3379 18.125 13.75 18.125C16.1621 18.125 18.125 16.1621 18.125 13.75C18.125 11.3379 16.1621 9.375 13.75 9.375ZM13.125 15.8838L10.9912 13.75L11.875 12.8662L13.125 14.1162L15.625 11.6162L16.5088 12.5L13.125 15.8838Z" fill="#003362"/>
</g>
<defs>
<clipPath id="clip0_75_521">
<rect width="20" height="20" fill="white"/>
</clipPath>
</defs>
</svg>
