<svg width="14" height="14" viewBox="0 0 14 14" fill="none" xmlns="http://www.w3.org/2000/svg">
<rect width="14" height="14" rx="7" fill="#EB5757"/>
<g clip-path="url(#clip0_73_1295)">
<path d="M9.95177 8.75437L8.19779 7.00039L9.95177 5.2464C10.2825 4.91563 10.2825 4.3793 9.95177 4.04852C9.62099 3.71774 9.08466 3.71774 8.75388 4.04852L6.99976 5.8025L5.24577 4.04838C4.91486 3.7176 4.37852 3.7176 4.04789 4.04838C3.71711 4.3793 3.71711 4.91563 4.04789 5.24626L5.80201 7.00025L4.04789 8.75423C3.71711 9.08515 3.71711 9.62148 4.04789 9.95212C4.21349 10.1176 4.43005 10.2002 4.6469 10.2002C4.86361 10.2002 5.08046 10.1174 5.24592 9.95212L6.99976 8.19827L8.75388 9.95226C8.91948 10.1176 9.13605 10.2003 9.3529 10.2003C9.56974 10.2003 9.78645 10.1176 9.95191 9.95226C10.2825 9.62148 10.2825 9.08529 9.95177 8.75437Z" fill="white"/>
</g>
<defs>
<clipPath id="clip0_73_1295">
<rect width="8" height="8" fill="white" transform="translate(3 3)"/>
</clipPath>
</defs>
</svg>
