<svg width="43" height="26" viewBox="0 0 43 26" fill="none" xmlns="http://www.w3.org/2000/svg">
<path d="M20.103 25.3118H15.2908C15.1658 25.3118 15.043 25.2794 14.9342 25.2178C14.8255 25.1562 14.7345 25.0675 14.6703 24.9603L0.061535 0.660579C0.0221712 0.594771 0.000949842 0.519707 3.115e-05 0.44303C-0.000887542 0.366353 0.0185296 0.290801 0.0563054 0.224069C0.0940812 0.157337 0.148867 0.101807 0.215083 0.0631331C0.281299 0.0244598 0.35658 0.00402368 0.433263 0.00390697H5.24692C5.37177 0.00373084 5.49453 0.0358776 5.60327 0.0972166C5.712 0.158556 5.80301 0.246997 5.86743 0.353938L20.4762 24.6537C20.516 24.7196 20.5375 24.795 20.5386 24.872C20.5396 24.949 20.5201 25.0249 20.4821 25.0919C20.4441 25.1589 20.389 25.2146 20.3224 25.2532C20.2557 25.2919 20.18 25.3121 20.103 25.3118V25.3118Z" fill="url(#paint0_linear_828_2613)"/>
<path d="M20.103 25.3118H15.2908C15.1658 25.3118 15.043 25.2794 14.9342 25.2178C14.8255 25.1562 14.7345 25.0675 14.6703 24.9603L0.061535 0.660579C0.0221712 0.594771 0.000949842 0.519707 3.115e-05 0.44303C-0.000887542 0.366353 0.0185296 0.290801 0.0563054 0.224069C0.0940812 0.157337 0.148867 0.101807 0.215083 0.0631331C0.281299 0.0244598 0.35658 0.00402368 0.433263 0.00390697H5.24692C5.37177 0.00373084 5.49453 0.0358776 5.60327 0.0972166C5.712 0.158556 5.80301 0.246997 5.86743 0.353938L20.4762 24.6537C20.516 24.7196 20.5375 24.795 20.5386 24.872C20.5396 24.949 20.5201 25.0249 20.4821 25.0919C20.4441 25.1589 20.389 25.2146 20.3224 25.2532C20.2557 25.2919 20.18 25.3121 20.103 25.3118V25.3118Z" fill="#003362"/>
<path d="M42.1317 0.65821L33.2261 15.4666L30.6095 19.8304C30.5709 19.8945 30.5164 19.9475 30.4513 19.9843C30.3862 20.0211 30.3126 20.0405 30.2378 20.0405C30.163 20.0405 30.0894 20.0211 30.0243 19.9843C29.9592 19.9475 29.9047 19.8945 29.8661 19.8304L27.5518 15.9873C27.4572 15.8298 27.4072 15.6496 27.4072 15.4659C27.4072 15.2821 27.4572 15.1019 27.5518 14.9444L30.232 10.4822L36.32 0.357356C36.3844 0.250415 36.4754 0.161971 36.5841 0.100632C36.6929 0.0392933 36.8156 0.00714881 36.9405 0.00732494H41.7599C41.8357 0.00803269 41.9101 0.0285968 41.9755 0.0669704C42.0409 0.105344 42.0951 0.160186 42.1327 0.226032C42.1703 0.291879 42.19 0.366432 42.1898 0.442259C42.1896 0.518087 42.1696 0.592543 42.1317 0.65821V0.65821Z" fill="url(#paint1_linear_828_2613)"/>
<path d="M42.1317 0.65821L33.2261 15.4666L30.6095 19.8304C30.5709 19.8945 30.5164 19.9475 30.4513 19.9843C30.3862 20.0211 30.3126 20.0405 30.2378 20.0405C30.163 20.0405 30.0894 20.0211 30.0243 19.9843C29.9592 19.9475 29.9047 19.8945 29.8661 19.8304L27.5518 15.9873C27.4572 15.8298 27.4072 15.6496 27.4072 15.4659C27.4072 15.2821 27.4572 15.1019 27.5518 14.9444L30.232 10.4822L36.32 0.357356C36.3844 0.250415 36.4754 0.161971 36.5841 0.100632C36.6929 0.0392933 36.8156 0.00714881 36.9405 0.00732494H41.7599C41.8357 0.00803269 41.9101 0.0285968 41.9755 0.0669704C42.0409 0.105344 42.0951 0.160186 42.1327 0.226032C42.1703 0.291879 42.19 0.366432 42.1898 0.442259C42.1896 0.518087 42.1696 0.592543 42.1317 0.65821V0.65821Z" fill="#003362"/>
<path d="M38.2987 25.2672H33.4851C33.3888 25.267 33.2935 25.2476 33.2049 25.2101C33.1162 25.1726 33.0359 25.1177 32.9687 25.0488L31.4659 22.5465C31.3713 22.389 31.3213 22.2088 31.3213 22.0251C31.3213 21.8414 31.3713 21.6611 31.4659 21.5036L33.7628 17.6793C33.8014 17.6152 33.8559 17.5622 33.921 17.5254C33.9862 17.4886 34.0597 17.4692 34.1345 17.4692C34.2093 17.4692 34.2829 17.4886 34.348 17.5254C34.4131 17.5622 34.4676 17.6152 34.5062 17.6793L37.1315 22.0446L38.6734 24.6091C38.7132 24.6751 38.7347 24.7506 38.7357 24.8277C38.7367 24.9049 38.7171 24.9809 38.6789 25.0479C38.6408 25.115 38.5854 25.1706 38.5186 25.2092C38.4518 25.2477 38.3759 25.2677 38.2987 25.2672Z" fill="url(#paint2_linear_828_2613)"/>
<path d="M38.2987 25.2672H33.4851C33.3888 25.267 33.2935 25.2476 33.2049 25.2101C33.1162 25.1726 33.0359 25.1177 32.9687 25.0488L31.4659 22.5465C31.3713 22.389 31.3213 22.2088 31.3213 22.0251C31.3213 21.8414 31.3713 21.6611 31.4659 21.5036L33.7628 17.6793C33.8014 17.6152 33.8559 17.5622 33.921 17.5254C33.9862 17.4886 34.0597 17.4692 34.1345 17.4692C34.2093 17.4692 34.2829 17.4886 34.348 17.5254C34.4131 17.5622 34.4676 17.6152 34.5062 17.6793L37.1315 22.0446L38.6734 24.6091C38.7132 24.6751 38.7347 24.7506 38.7357 24.8277C38.7367 24.9049 38.7171 24.9809 38.6789 25.0479C38.6408 25.115 38.5854 25.1706 38.5186 25.2092C38.4518 25.2477 38.3759 25.2677 38.2987 25.2672Z" fill="#003362"/>
<path d="M29.4791 25.3122H24.6654C24.5405 25.3122 24.4176 25.2799 24.3089 25.2183C24.2001 25.1567 24.1092 25.0679 24.0449 24.9607L18.861 16.3343L17.8485 14.6579L17.8181 14.6102L16.8331 12.9714C16.7938 12.9056 16.7725 12.8306 16.7716 12.7539C16.7707 12.6772 16.7901 12.6016 16.8279 12.5349C16.8657 12.4682 16.9205 12.4126 16.9867 12.374C17.0529 12.3353 17.1282 12.3149 17.2049 12.3147H20.2973C21.3726 12.3141 22.4044 11.8896 23.169 11.1334C23.9336 10.3772 24.3694 9.35022 24.3819 8.27492C24.4065 6.00406 22.4828 4.14397 20.2105 4.14397H11.9471C11.8223 4.14415 11.6995 4.112 11.5908 4.05066C11.4821 3.98932 11.3911 3.90088 11.3266 3.79394L9.4463 0.656672C9.40694 0.590864 9.38572 0.515798 9.3848 0.439121C9.38388 0.362444 9.4033 0.286894 9.44107 0.220162C9.47885 0.15343 9.53363 0.0978995 9.59985 0.0592262C9.66606 0.0205528 9.74135 0.000116707 9.81803 0H20.1888C24.7045 0 28.4695 3.58565 28.5389 8.09991C28.5625 9.51701 28.2191 10.9161 27.5422 12.1613C26.8652 13.4065 25.8777 14.4554 24.6756 15.2061C24.579 15.266 24.5098 15.3613 24.4827 15.4717C24.4557 15.582 24.473 15.6985 24.5309 15.7963L29.8537 24.6541C29.8936 24.7201 29.9151 24.7956 29.9161 24.8728C29.9171 24.9499 29.8975 25.0259 29.8593 25.093C29.8212 25.16 29.7658 25.2157 29.699 25.2542C29.6321 25.2927 29.5562 25.3128 29.4791 25.3122Z" fill="url(#paint3_linear_828_2613)"/>
<path d="M29.4791 25.3122H24.6654C24.5405 25.3122 24.4176 25.2799 24.3089 25.2183C24.2001 25.1567 24.1092 25.0679 24.0449 24.9607L18.861 16.3343L17.8485 14.6579L17.8181 14.6102L16.8331 12.9714C16.7938 12.9056 16.7725 12.8306 16.7716 12.7539C16.7707 12.6772 16.7901 12.6016 16.8279 12.5349C16.8657 12.4682 16.9205 12.4126 16.9867 12.374C17.0529 12.3353 17.1282 12.3149 17.2049 12.3147H20.2973C21.3726 12.3141 22.4044 11.8896 23.169 11.1334C23.9336 10.3772 24.3694 9.35022 24.3819 8.27492C24.4065 6.00406 22.4828 4.14397 20.2105 4.14397H11.9471C11.8223 4.14415 11.6995 4.112 11.5908 4.05066C11.4821 3.98932 11.3911 3.90088 11.3266 3.79394L9.4463 0.656672C9.40694 0.590864 9.38572 0.515798 9.3848 0.439121C9.38388 0.362444 9.4033 0.286894 9.44107 0.220162C9.47885 0.15343 9.53363 0.0978995 9.59985 0.0592262C9.66606 0.0205528 9.74135 0.000116707 9.81803 0H20.1888C24.7045 0 28.4695 3.58565 28.5389 8.09991C28.5625 9.51701 28.2191 10.9161 27.5422 12.1613C26.8652 13.4065 25.8777 14.4554 24.6756 15.2061C24.579 15.266 24.5098 15.3613 24.4827 15.4717C24.4557 15.582 24.473 15.6985 24.5309 15.7963L29.8537 24.6541C29.8936 24.7201 29.9151 24.7956 29.9161 24.8728C29.9171 24.9499 29.8975 25.0259 29.8593 25.093C29.8212 25.16 29.7658 25.2157 29.699 25.2542C29.6321 25.2927 29.5562 25.3128 29.4791 25.3122Z" fill="#003362"/>
<defs>
<linearGradient id="paint0_linear_828_2613" x1="6.50874" y1="10.9789" x2="33.0611" y2="15.1377" gradientUnits="userSpaceOnUse">
<stop stop-color="#228BEB"/>
<stop offset="1" stop-color="#003362"/>
</linearGradient>
<linearGradient id="paint1_linear_828_2613" x1="4.6322" y1="10.0239" x2="33.7363" y2="13.3634" gradientUnits="userSpaceOnUse">
<stop stop-color="#228BEB"/>
<stop offset="1" stop-color="#003362"/>
</linearGradient>
<linearGradient id="paint2_linear_828_2613" x1="5.5616" y1="10.0523" x2="33.0712" y2="16.8401" gradientUnits="userSpaceOnUse">
<stop stop-color="#228BEB"/>
<stop offset="1" stop-color="#003362"/>
</linearGradient>
<linearGradient id="paint3_linear_828_2613" x1="5.22957" y1="10.9793" x2="33.2216" y2="15.2981" gradientUnits="userSpaceOnUse">
<stop stop-color="#228BEB"/>
<stop offset="1" stop-color="#003362"/>
</linearGradient>
</defs>
</svg>
