<svg width="190" height="26" viewBox="0 0 190 26" fill="none" xmlns="http://www.w3.org/2000/svg">
<path d="M54.2078 19.9629C54.0004 19.9629 53.8125 19.8981 53.644 19.7685C53.482 19.6389 53.3783 19.4704 53.3329 19.263L50.0667 6.76187C49.9825 6.42488 50.0213 6.15269 50.1833 5.94532C50.3454 5.73145 50.6013 5.62452 50.9513 5.62452H52.9149C53.1288 5.62452 53.3167 5.69257 53.4787 5.82866C53.6408 5.95828 53.7444 6.13001 53.7898 6.34387L56.0645 15.5982L58.0573 6.36331C58.0962 6.14945 58.1999 5.97448 58.3684 5.83838C58.5369 5.69581 58.7313 5.62452 58.9516 5.62452H60.8569C61.0837 5.62452 61.2814 5.69257 61.4499 5.82866C61.6184 5.96476 61.7221 6.14297 61.761 6.36331L63.744 15.5982L66.0187 6.34387C66.0641 6.12353 66.1678 5.94856 66.3298 5.81894C66.4983 5.68933 66.6927 5.62452 66.9131 5.62452H68.867C69.2169 5.62452 69.4729 5.73145 69.6349 5.94532C69.8034 6.15269 69.8391 6.42488 69.7419 6.76187L66.4951 19.263C66.4497 19.4704 66.3428 19.6389 66.1743 19.7685C66.0123 19.8981 65.8276 19.9629 65.6202 19.9629H62.6942C62.4738 19.9629 62.2794 19.8948 62.1109 19.7588C61.9424 19.6162 61.8452 19.438 61.8193 19.2241L59.9043 10.5239L57.9893 19.2241C57.9504 19.4444 57.8499 19.6227 57.6879 19.7588C57.5259 19.8948 57.3347 19.9629 57.1144 19.9629H54.2078ZM80.3377 20.0212C79.6313 20.1962 78.8957 20.2837 78.131 20.2837C77.3663 20.2837 76.6275 20.1962 75.9146 20.0212C75.2083 19.8462 74.5278 19.5643 73.8732 19.1755C73.2252 18.7867 72.6614 18.3071 72.1818 17.7368C71.7022 17.1665 71.3199 16.4601 71.0347 15.6176C70.7496 14.7687 70.607 13.829 70.607 12.7986C70.607 11.7681 70.7496 10.8317 71.0347 9.98922C71.3199 9.14026 71.7022 8.43063 72.1818 7.86034C72.6614 7.29004 73.2252 6.81048 73.8732 6.42164C74.5278 6.0328 75.2083 5.7509 75.9146 5.57592C76.6275 5.40094 77.3663 5.31345 78.131 5.31345C78.8957 5.31345 79.6313 5.40094 80.3377 5.57592C81.0441 5.7509 81.7213 6.0328 82.3693 6.42164C83.0239 6.81048 83.5909 7.29004 84.0705 7.86034C84.5565 8.43063 84.9421 9.14026 85.2273 9.98922C85.5124 10.8317 85.655 11.7681 85.655 12.7986C85.655 13.829 85.5124 14.7687 85.2273 15.6176C84.9421 16.4601 84.5565 17.1665 84.0705 17.7368C83.5909 18.3071 83.0239 18.7867 82.3693 19.1755C81.7213 19.5643 81.0441 19.8462 80.3377 20.0212ZM75.3314 16.1134C76.0443 16.9559 76.9775 17.3771 78.131 17.3771C79.2846 17.3771 80.2113 16.9559 80.9112 16.1134C81.6176 15.2644 81.9708 14.1595 81.9708 12.7986C81.9708 11.4376 81.6176 10.3359 80.9112 9.49345C80.2113 8.64449 79.2846 8.22001 78.131 8.22001C76.9775 8.22001 76.0443 8.64449 75.3314 9.49345C74.625 10.3359 74.2718 11.4376 74.2718 12.7986C74.2718 14.1595 74.625 15.2644 75.3314 16.1134ZM87.6478 19.0491V6.54801C87.6478 6.26935 87.7288 6.04576 87.8908 5.87727C88.0593 5.70877 88.2829 5.62452 88.5616 5.62452H95.0746C96.7142 5.62452 98.0071 6.049 98.9532 6.89797C99.8994 7.74693 100.372 8.92964 100.372 10.4461C100.372 11.4571 100.159 12.2963 99.7309 12.9638C99.3097 13.6313 98.6875 14.1919 97.8645 14.6455L99.8281 18.6506C100.016 19.0394 100.035 19.357 99.8864 19.6032C99.7374 19.843 99.4458 19.9629 99.0116 19.9629H97.1257C96.9507 19.9629 96.7855 19.9175 96.6299 19.8268C96.4809 19.7296 96.374 19.6032 96.3091 19.4477L94.2969 15.2871H91.3126V19.0491C91.3126 19.3278 91.2283 19.5514 91.0598 19.7199C90.8978 19.8819 90.684 19.9629 90.4183 19.9629H88.5616C88.2829 19.9629 88.0593 19.8819 87.8908 19.7199C87.7288 19.5514 87.6478 19.3278 87.6478 19.0491ZM91.3126 8.53108V12.3806H94.6371C95.3176 12.3806 95.8328 12.2153 96.1828 11.8848C96.5327 11.5478 96.7077 11.0747 96.7077 10.4655C96.7077 9.84341 96.5327 9.36708 96.1828 9.03657C95.8393 8.69958 95.3241 8.53108 94.6371 8.53108H91.3126ZM103.279 19.9629C103 19.9629 102.777 19.8819 102.608 19.7199C102.446 19.5514 102.365 19.3278 102.365 19.0491V6.54801C102.365 6.26935 102.446 6.04576 102.608 5.87727C102.777 5.70877 103 5.62452 103.279 5.62452H105.136C105.401 5.62452 105.615 5.70877 105.777 5.87727C105.946 6.04576 106.03 6.26935 106.03 6.54801V11.5251L111.163 5.96476C111.344 5.73794 111.577 5.62452 111.863 5.62452H113.671C114.267 5.62452 114.627 5.76386 114.75 6.04252C114.873 6.31471 114.74 6.67438 114.351 7.12155L110.064 11.739L114.769 18.5534C115.048 18.9811 115.116 19.3245 114.973 19.5838C114.837 19.8365 114.516 19.9629 114.011 19.9629H112.183C111.846 19.9629 111.594 19.83 111.425 19.5643L107.517 13.9748L106.03 15.2482V19.0491C106.03 19.3278 105.946 19.5514 105.777 19.7199C105.615 19.8819 105.401 19.9629 105.136 19.9629H103.279ZM121.924 19.9629C121.652 19.9629 121.431 19.8786 121.263 19.7101C121.094 19.5417 121.01 19.3213 121.01 19.0491V8.53108H117.122C116.849 8.53108 116.629 8.44683 116.461 8.27834C116.292 8.10984 116.208 7.8895 116.208 7.61731V6.54801C116.208 6.26935 116.289 6.04576 116.451 5.87727C116.619 5.70877 116.843 5.62452 117.122 5.62452H128.592C128.858 5.62452 129.075 5.71201 129.244 5.88699C129.419 6.05549 129.506 6.27583 129.506 6.54801V7.61731C129.506 7.88302 129.419 8.10336 129.244 8.27834C129.075 8.44683 128.858 8.53108 128.592 8.53108H124.694V19.0491C124.694 19.3213 124.607 19.5417 124.432 19.7101C124.263 19.8786 124.043 19.9629 123.771 19.9629H121.924ZM131.217 19.0491V6.54801C131.217 6.26935 131.298 6.04576 131.46 5.87727C131.629 5.70877 131.852 5.62452 132.131 5.62452H138.644C140.283 5.62452 141.576 6.049 142.522 6.89797C143.469 7.74693 143.942 8.92964 143.942 10.4461C143.942 11.4571 143.728 12.2963 143.3 12.9638C142.879 13.6313 142.257 14.1919 141.434 14.6455L143.397 18.6506C143.585 19.0394 143.605 19.357 143.456 19.6032C143.307 19.843 143.015 19.9629 142.581 19.9629H140.695C140.52 19.9629 140.355 19.9175 140.199 19.8268C140.05 19.7296 139.943 19.6032 139.878 19.4477L137.866 15.2871H134.882V19.0491C134.882 19.3278 134.798 19.5514 134.629 19.7199C134.467 19.8819 134.253 19.9629 133.987 19.9629H132.131C131.852 19.9629 131.629 19.8819 131.46 19.7199C131.298 19.5514 131.217 19.3278 131.217 19.0491ZM134.882 8.53108V12.3806H138.206C138.887 12.3806 139.402 12.2153 139.752 11.8848C140.102 11.5478 140.277 11.0747 140.277 10.4655C140.277 9.84341 140.102 9.36708 139.752 9.03657C139.408 8.69958 138.893 8.53108 138.206 8.53108H134.882ZM145.798 6.54801C145.798 6.26935 145.879 6.04576 146.041 5.87727C146.21 5.70877 146.433 5.62452 146.712 5.62452H148.569C148.835 5.62452 149.048 5.70877 149.21 5.87727C149.379 6.04576 149.463 6.26935 149.463 6.54801V13.2166C149.463 15.9903 150.37 17.3771 152.185 17.3771C154.006 17.3771 154.917 15.9903 154.917 13.2166V6.54801C154.917 6.27583 155.001 6.05549 155.169 5.88699C155.344 5.71201 155.565 5.62452 155.83 5.62452H157.658C157.93 5.62452 158.15 5.71201 158.319 5.88699C158.494 6.05549 158.581 6.27583 158.581 6.54801V13.2166C158.581 17.928 156.449 20.2837 152.185 20.2837C150.001 20.2837 148.391 19.6842 147.354 18.4853C146.317 17.2864 145.798 15.5301 145.798 13.2166V6.54801ZM173.406 16.162C173.697 16.2398 173.895 16.3888 173.999 16.6092C174.102 16.823 174.083 17.0596 173.94 17.3188C173.416 18.2066 172.635 18.9228 171.598 19.4671C170.561 20.0115 169.339 20.2837 167.933 20.2837C166.844 20.2837 165.843 20.1184 164.929 19.7879C164.022 19.4574 163.234 18.9811 162.567 18.3589C161.906 17.7368 161.391 16.9526 161.021 16.0065C160.652 15.0538 160.467 13.9845 160.467 12.7986C160.467 11.6126 160.652 10.5466 161.021 9.60038C161.391 8.64773 161.906 7.86034 162.567 7.2382C163.234 6.61606 164.022 6.13973 164.929 5.80922C165.843 5.47871 166.844 5.31345 167.933 5.31345C169.339 5.31345 170.561 5.58564 171.598 6.13001C172.635 6.67438 173.416 7.39049 173.94 8.27834C174.083 8.53756 174.102 8.77734 173.999 8.99769C173.895 9.21155 173.697 9.35736 173.406 9.43513L171.695 9.87257C171.28 9.96978 170.927 9.83045 170.635 9.45457C169.955 8.63153 169.054 8.22001 167.933 8.22001C166.799 8.22001 165.882 8.63153 165.182 9.45457C164.482 10.2776 164.132 11.3923 164.132 12.7986C164.132 14.2049 164.482 15.3195 165.182 16.1426C165.882 16.9656 166.799 17.3771 167.933 17.3771C169.054 17.3771 169.955 16.9656 170.635 16.1426C170.927 15.7667 171.28 15.6274 171.695 15.7246L173.406 16.162ZM176.789 19.9629C176.51 19.9629 176.286 19.8819 176.118 19.7199C175.956 19.5514 175.875 19.3278 175.875 19.0491V6.54801C175.875 6.26935 175.956 6.04576 176.118 5.87727C176.286 5.70877 176.51 5.62452 176.789 5.62452H178.645C178.911 5.62452 179.125 5.70877 179.287 5.87727C179.455 6.04576 179.54 6.26935 179.54 6.54801V11.5251L184.672 5.96476C184.854 5.73794 185.087 5.62452 185.372 5.62452H187.18C187.777 5.62452 188.136 5.76386 188.259 6.04252C188.383 6.31471 188.25 6.67438 187.861 7.12155L183.574 11.739L188.279 18.5534C188.557 18.9811 188.626 19.3245 188.483 19.5838C188.347 19.8365 188.026 19.9629 187.521 19.9629H185.693C185.356 19.9629 185.103 19.83 184.935 19.5643L181.027 13.9748L179.54 15.2482V19.0491C179.54 19.3278 179.455 19.5514 179.287 19.7199C179.125 19.8819 178.911 19.9629 178.645 19.9629H176.789Z" fill="url(#paint0_linear_828_2611)"/>
<path d="M54.2078 19.9629C54.0004 19.9629 53.8125 19.8981 53.644 19.7685C53.482 19.6389 53.3783 19.4704 53.3329 19.263L50.0667 6.76187C49.9825 6.42488 50.0213 6.15269 50.1833 5.94532C50.3454 5.73145 50.6013 5.62452 50.9513 5.62452H52.9149C53.1288 5.62452 53.3167 5.69257 53.4787 5.82866C53.6408 5.95828 53.7444 6.13001 53.7898 6.34387L56.0645 15.5982L58.0573 6.36331C58.0962 6.14945 58.1999 5.97448 58.3684 5.83838C58.5369 5.69581 58.7313 5.62452 58.9516 5.62452H60.8569C61.0837 5.62452 61.2814 5.69257 61.4499 5.82866C61.6184 5.96476 61.7221 6.14297 61.761 6.36331L63.744 15.5982L66.0187 6.34387C66.0641 6.12353 66.1678 5.94856 66.3298 5.81894C66.4983 5.68933 66.6927 5.62452 66.9131 5.62452H68.867C69.2169 5.62452 69.4729 5.73145 69.6349 5.94532C69.8034 6.15269 69.8391 6.42488 69.7419 6.76187L66.4951 19.263C66.4497 19.4704 66.3428 19.6389 66.1743 19.7685C66.0123 19.8981 65.8276 19.9629 65.6202 19.9629H62.6942C62.4738 19.9629 62.2794 19.8948 62.1109 19.7588C61.9424 19.6162 61.8452 19.438 61.8193 19.2241L59.9043 10.5239L57.9893 19.2241C57.9504 19.4444 57.8499 19.6227 57.6879 19.7588C57.5259 19.8948 57.3347 19.9629 57.1144 19.9629H54.2078ZM80.3377 20.0212C79.6313 20.1962 78.8957 20.2837 78.131 20.2837C77.3663 20.2837 76.6275 20.1962 75.9146 20.0212C75.2083 19.8462 74.5278 19.5643 73.8732 19.1755C73.2252 18.7867 72.6614 18.3071 72.1818 17.7368C71.7022 17.1665 71.3199 16.4601 71.0347 15.6176C70.7496 14.7687 70.607 13.829 70.607 12.7986C70.607 11.7681 70.7496 10.8317 71.0347 9.98922C71.3199 9.14026 71.7022 8.43063 72.1818 7.86034C72.6614 7.29004 73.2252 6.81048 73.8732 6.42164C74.5278 6.0328 75.2083 5.7509 75.9146 5.57592C76.6275 5.40094 77.3663 5.31345 78.131 5.31345C78.8957 5.31345 79.6313 5.40094 80.3377 5.57592C81.0441 5.7509 81.7213 6.0328 82.3693 6.42164C83.0239 6.81048 83.5909 7.29004 84.0705 7.86034C84.5565 8.43063 84.9421 9.14026 85.2273 9.98922C85.5124 10.8317 85.655 11.7681 85.655 12.7986C85.655 13.829 85.5124 14.7687 85.2273 15.6176C84.9421 16.4601 84.5565 17.1665 84.0705 17.7368C83.5909 18.3071 83.0239 18.7867 82.3693 19.1755C81.7213 19.5643 81.0441 19.8462 80.3377 20.0212ZM75.3314 16.1134C76.0443 16.9559 76.9775 17.3771 78.131 17.3771C79.2846 17.3771 80.2113 16.9559 80.9112 16.1134C81.6176 15.2644 81.9708 14.1595 81.9708 12.7986C81.9708 11.4376 81.6176 10.3359 80.9112 9.49345C80.2113 8.64449 79.2846 8.22001 78.131 8.22001C76.9775 8.22001 76.0443 8.64449 75.3314 9.49345C74.625 10.3359 74.2718 11.4376 74.2718 12.7986C74.2718 14.1595 74.625 15.2644 75.3314 16.1134ZM87.6478 19.0491V6.54801C87.6478 6.26935 87.7288 6.04576 87.8908 5.87727C88.0593 5.70877 88.2829 5.62452 88.5616 5.62452H95.0746C96.7142 5.62452 98.0071 6.049 98.9532 6.89797C99.8994 7.74693 100.372 8.92964 100.372 10.4461C100.372 11.4571 100.159 12.2963 99.7309 12.9638C99.3097 13.6313 98.6875 14.1919 97.8645 14.6455L99.8281 18.6506C100.016 19.0394 100.035 19.357 99.8864 19.6032C99.7374 19.843 99.4458 19.9629 99.0116 19.9629H97.1257C96.9507 19.9629 96.7855 19.9175 96.6299 19.8268C96.4809 19.7296 96.374 19.6032 96.3091 19.4477L94.2969 15.2871H91.3126V19.0491C91.3126 19.3278 91.2283 19.5514 91.0598 19.7199C90.8978 19.8819 90.684 19.9629 90.4183 19.9629H88.5616C88.2829 19.9629 88.0593 19.8819 87.8908 19.7199C87.7288 19.5514 87.6478 19.3278 87.6478 19.0491ZM91.3126 8.53108V12.3806H94.6371C95.3176 12.3806 95.8328 12.2153 96.1828 11.8848C96.5327 11.5478 96.7077 11.0747 96.7077 10.4655C96.7077 9.84341 96.5327 9.36708 96.1828 9.03657C95.8393 8.69958 95.3241 8.53108 94.6371 8.53108H91.3126ZM103.279 19.9629C103 19.9629 102.777 19.8819 102.608 19.7199C102.446 19.5514 102.365 19.3278 102.365 19.0491V6.54801C102.365 6.26935 102.446 6.04576 102.608 5.87727C102.777 5.70877 103 5.62452 103.279 5.62452H105.136C105.401 5.62452 105.615 5.70877 105.777 5.87727C105.946 6.04576 106.03 6.26935 106.03 6.54801V11.5251L111.163 5.96476C111.344 5.73794 111.577 5.62452 111.863 5.62452H113.671C114.267 5.62452 114.627 5.76386 114.75 6.04252C114.873 6.31471 114.74 6.67438 114.351 7.12155L110.064 11.739L114.769 18.5534C115.048 18.9811 115.116 19.3245 114.973 19.5838C114.837 19.8365 114.516 19.9629 114.011 19.9629H112.183C111.846 19.9629 111.594 19.83 111.425 19.5643L107.517 13.9748L106.03 15.2482V19.0491C106.03 19.3278 105.946 19.5514 105.777 19.7199C105.615 19.8819 105.401 19.9629 105.136 19.9629H103.279ZM121.924 19.9629C121.652 19.9629 121.431 19.8786 121.263 19.7101C121.094 19.5417 121.01 19.3213 121.01 19.0491V8.53108H117.122C116.849 8.53108 116.629 8.44683 116.461 8.27834C116.292 8.10984 116.208 7.8895 116.208 7.61731V6.54801C116.208 6.26935 116.289 6.04576 116.451 5.87727C116.619 5.70877 116.843 5.62452 117.122 5.62452H128.592C128.858 5.62452 129.075 5.71201 129.244 5.88699C129.419 6.05549 129.506 6.27583 129.506 6.54801V7.61731C129.506 7.88302 129.419 8.10336 129.244 8.27834C129.075 8.44683 128.858 8.53108 128.592 8.53108H124.694V19.0491C124.694 19.3213 124.607 19.5417 124.432 19.7101C124.263 19.8786 124.043 19.9629 123.771 19.9629H121.924ZM131.217 19.0491V6.54801C131.217 6.26935 131.298 6.04576 131.46 5.87727C131.629 5.70877 131.852 5.62452 132.131 5.62452H138.644C140.283 5.62452 141.576 6.049 142.522 6.89797C143.469 7.74693 143.942 8.92964 143.942 10.4461C143.942 11.4571 143.728 12.2963 143.3 12.9638C142.879 13.6313 142.257 14.1919 141.434 14.6455L143.397 18.6506C143.585 19.0394 143.605 19.357 143.456 19.6032C143.307 19.843 143.015 19.9629 142.581 19.9629H140.695C140.52 19.9629 140.355 19.9175 140.199 19.8268C140.05 19.7296 139.943 19.6032 139.878 19.4477L137.866 15.2871H134.882V19.0491C134.882 19.3278 134.798 19.5514 134.629 19.7199C134.467 19.8819 134.253 19.9629 133.987 19.9629H132.131C131.852 19.9629 131.629 19.8819 131.46 19.7199C131.298 19.5514 131.217 19.3278 131.217 19.0491ZM134.882 8.53108V12.3806H138.206C138.887 12.3806 139.402 12.2153 139.752 11.8848C140.102 11.5478 140.277 11.0747 140.277 10.4655C140.277 9.84341 140.102 9.36708 139.752 9.03657C139.408 8.69958 138.893 8.53108 138.206 8.53108H134.882ZM145.798 6.54801C145.798 6.26935 145.879 6.04576 146.041 5.87727C146.21 5.70877 146.433 5.62452 146.712 5.62452H148.569C148.835 5.62452 149.048 5.70877 149.21 5.87727C149.379 6.04576 149.463 6.26935 149.463 6.54801V13.2166C149.463 15.9903 150.37 17.3771 152.185 17.3771C154.006 17.3771 154.917 15.9903 154.917 13.2166V6.54801C154.917 6.27583 155.001 6.05549 155.169 5.88699C155.344 5.71201 155.565 5.62452 155.83 5.62452H157.658C157.93 5.62452 158.15 5.71201 158.319 5.88699C158.494 6.05549 158.581 6.27583 158.581 6.54801V13.2166C158.581 17.928 156.449 20.2837 152.185 20.2837C150.001 20.2837 148.391 19.6842 147.354 18.4853C146.317 17.2864 145.798 15.5301 145.798 13.2166V6.54801ZM173.406 16.162C173.697 16.2398 173.895 16.3888 173.999 16.6092C174.102 16.823 174.083 17.0596 173.94 17.3188C173.416 18.2066 172.635 18.9228 171.598 19.4671C170.561 20.0115 169.339 20.2837 167.933 20.2837C166.844 20.2837 165.843 20.1184 164.929 19.7879C164.022 19.4574 163.234 18.9811 162.567 18.3589C161.906 17.7368 161.391 16.9526 161.021 16.0065C160.652 15.0538 160.467 13.9845 160.467 12.7986C160.467 11.6126 160.652 10.5466 161.021 9.60038C161.391 8.64773 161.906 7.86034 162.567 7.2382C163.234 6.61606 164.022 6.13973 164.929 5.80922C165.843 5.47871 166.844 5.31345 167.933 5.31345C169.339 5.31345 170.561 5.58564 171.598 6.13001C172.635 6.67438 173.416 7.39049 173.94 8.27834C174.083 8.53756 174.102 8.77734 173.999 8.99769C173.895 9.21155 173.697 9.35736 173.406 9.43513L171.695 9.87257C171.28 9.96978 170.927 9.83045 170.635 9.45457C169.955 8.63153 169.054 8.22001 167.933 8.22001C166.799 8.22001 165.882 8.63153 165.182 9.45457C164.482 10.2776 164.132 11.3923 164.132 12.7986C164.132 14.2049 164.482 15.3195 165.182 16.1426C165.882 16.9656 166.799 17.3771 167.933 17.3771C169.054 17.3771 169.955 16.9656 170.635 16.1426C170.927 15.7667 171.28 15.6274 171.695 15.7246L173.406 16.162ZM176.789 19.9629C176.51 19.9629 176.286 19.8819 176.118 19.7199C175.956 19.5514 175.875 19.3278 175.875 19.0491V6.54801C175.875 6.26935 175.956 6.04576 176.118 5.87727C176.286 5.70877 176.51 5.62452 176.789 5.62452H178.645C178.911 5.62452 179.125 5.70877 179.287 5.87727C179.455 6.04576 179.54 6.26935 179.54 6.54801V11.5251L184.672 5.96476C184.854 5.73794 185.087 5.62452 185.372 5.62452H187.18C187.777 5.62452 188.136 5.76386 188.259 6.04252C188.383 6.31471 188.25 6.67438 187.861 7.12155L183.574 11.739L188.279 18.5534C188.557 18.9811 188.626 19.3245 188.483 19.5838C188.347 19.8365 188.026 19.9629 187.521 19.9629H185.693C185.356 19.9629 185.103 19.83 184.935 19.5643L181.027 13.9748L179.54 15.2482V19.0491C179.54 19.3278 179.455 19.5514 179.287 19.7199C179.125 19.8819 178.911 19.9629 178.645 19.9629H176.789Z" fill="#003362"/>
<path d="M20.103 25.3118H15.2908C15.1658 25.3118 15.043 25.2794 14.9342 25.2178C14.8255 25.1562 14.7345 25.0675 14.6703 24.9603L0.061535 0.660579C0.0221712 0.594771 0.000949842 0.519707 3.115e-05 0.44303C-0.000887542 0.366353 0.0185296 0.290801 0.0563054 0.224069C0.0940812 0.157337 0.148867 0.101807 0.215083 0.0631331C0.281299 0.0244598 0.35658 0.00402368 0.433263 0.00390697H5.24692C5.37177 0.00373084 5.49453 0.0358776 5.60327 0.0972166C5.712 0.158556 5.80301 0.246997 5.86743 0.353938L20.4762 24.6537C20.516 24.7196 20.5375 24.795 20.5386 24.872C20.5396 24.949 20.5201 25.0249 20.4821 25.0919C20.4441 25.1589 20.389 25.2146 20.3224 25.2532C20.2557 25.2919 20.18 25.3121 20.103 25.3118V25.3118Z" fill="url(#paint1_linear_828_2611)"/>
<path d="M20.103 25.3118H15.2908C15.1658 25.3118 15.043 25.2794 14.9342 25.2178C14.8255 25.1562 14.7345 25.0675 14.6703 24.9603L0.061535 0.660579C0.0221712 0.594771 0.000949842 0.519707 3.115e-05 0.44303C-0.000887542 0.366353 0.0185296 0.290801 0.0563054 0.224069C0.0940812 0.157337 0.148867 0.101807 0.215083 0.0631331C0.281299 0.0244598 0.35658 0.00402368 0.433263 0.00390697H5.24692C5.37177 0.00373084 5.49453 0.0358776 5.60327 0.0972166C5.712 0.158556 5.80301 0.246997 5.86743 0.353938L20.4762 24.6537C20.516 24.7196 20.5375 24.795 20.5386 24.872C20.5396 24.949 20.5201 25.0249 20.4821 25.0919C20.4441 25.1589 20.389 25.2146 20.3224 25.2532C20.2557 25.2919 20.18 25.3121 20.103 25.3118V25.3118Z" fill="#003362"/>
<path d="M42.1317 0.65821L33.2261 15.4666L30.6095 19.8304C30.5709 19.8945 30.5164 19.9475 30.4513 19.9843C30.3862 20.0211 30.3126 20.0405 30.2378 20.0405C30.163 20.0405 30.0894 20.0211 30.0243 19.9843C29.9592 19.9475 29.9047 19.8945 29.8661 19.8304L27.5518 15.9873C27.4572 15.8298 27.4072 15.6496 27.4072 15.4659C27.4072 15.2821 27.4572 15.1019 27.5518 14.9444L30.232 10.4822L36.32 0.357356C36.3844 0.250415 36.4754 0.161971 36.5841 0.100632C36.6929 0.0392933 36.8156 0.00714881 36.9405 0.00732494H41.7599C41.8357 0.00803269 41.9101 0.0285968 41.9755 0.0669704C42.0409 0.105344 42.0951 0.160186 42.1327 0.226032C42.1703 0.291879 42.19 0.366432 42.1898 0.442259C42.1896 0.518087 42.1696 0.592543 42.1317 0.65821V0.65821Z" fill="url(#paint2_linear_828_2611)"/>
<path d="M42.1317 0.65821L33.2261 15.4666L30.6095 19.8304C30.5709 19.8945 30.5164 19.9475 30.4513 19.9843C30.3862 20.0211 30.3126 20.0405 30.2378 20.0405C30.163 20.0405 30.0894 20.0211 30.0243 19.9843C29.9592 19.9475 29.9047 19.8945 29.8661 19.8304L27.5518 15.9873C27.4572 15.8298 27.4072 15.6496 27.4072 15.4659C27.4072 15.2821 27.4572 15.1019 27.5518 14.9444L30.232 10.4822L36.32 0.357356C36.3844 0.250415 36.4754 0.161971 36.5841 0.100632C36.6929 0.0392933 36.8156 0.00714881 36.9405 0.00732494H41.7599C41.8357 0.00803269 41.9101 0.0285968 41.9755 0.0669704C42.0409 0.105344 42.0951 0.160186 42.1327 0.226032C42.1703 0.291879 42.19 0.366432 42.1898 0.442259C42.1896 0.518087 42.1696 0.592543 42.1317 0.65821V0.65821Z" fill="#003362"/>
<path d="M38.2987 25.2672H33.4851C33.3888 25.267 33.2935 25.2476 33.2049 25.2101C33.1162 25.1726 33.0359 25.1177 32.9687 25.0488L31.4659 22.5465C31.3713 22.389 31.3213 22.2088 31.3213 22.0251C31.3213 21.8414 31.3713 21.6611 31.4659 21.5036L33.7628 17.6793C33.8014 17.6152 33.8559 17.5622 33.921 17.5254C33.9862 17.4886 34.0597 17.4692 34.1345 17.4692C34.2093 17.4692 34.2829 17.4886 34.348 17.5254C34.4131 17.5622 34.4676 17.6152 34.5062 17.6793L37.1315 22.0446L38.6734 24.6091C38.7132 24.6751 38.7347 24.7506 38.7357 24.8277C38.7367 24.9049 38.7171 24.9809 38.6789 25.0479C38.6408 25.115 38.5854 25.1706 38.5186 25.2092C38.4518 25.2477 38.3759 25.2677 38.2987 25.2672Z" fill="url(#paint3_linear_828_2611)"/>
<path d="M38.2987 25.2672H33.4851C33.3888 25.267 33.2935 25.2476 33.2049 25.2101C33.1162 25.1726 33.0359 25.1177 32.9687 25.0488L31.4659 22.5465C31.3713 22.389 31.3213 22.2088 31.3213 22.0251C31.3213 21.8414 31.3713 21.6611 31.4659 21.5036L33.7628 17.6793C33.8014 17.6152 33.8559 17.5622 33.921 17.5254C33.9862 17.4886 34.0597 17.4692 34.1345 17.4692C34.2093 17.4692 34.2829 17.4886 34.348 17.5254C34.4131 17.5622 34.4676 17.6152 34.5062 17.6793L37.1315 22.0446L38.6734 24.6091C38.7132 24.6751 38.7347 24.7506 38.7357 24.8277C38.7367 24.9049 38.7171 24.9809 38.6789 25.0479C38.6408 25.115 38.5854 25.1706 38.5186 25.2092C38.4518 25.2477 38.3759 25.2677 38.2987 25.2672Z" fill="#003362"/>
<path d="M29.4791 25.3122H24.6654C24.5405 25.3122 24.4176 25.2799 24.3089 25.2183C24.2001 25.1567 24.1092 25.0679 24.0449 24.9607L18.861 16.3343L17.8485 14.6579L17.8181 14.6102L16.8331 12.9714C16.7938 12.9056 16.7725 12.8306 16.7716 12.7539C16.7707 12.6772 16.7901 12.6016 16.8279 12.5349C16.8657 12.4682 16.9205 12.4126 16.9867 12.374C17.0529 12.3353 17.1282 12.3149 17.2049 12.3147H20.2973C21.3726 12.3141 22.4044 11.8896 23.169 11.1334C23.9336 10.3772 24.3694 9.35022 24.3819 8.27492C24.4065 6.00406 22.4828 4.14397 20.2105 4.14397H11.9471C11.8223 4.14415 11.6995 4.112 11.5908 4.05066C11.4821 3.98932 11.3911 3.90088 11.3266 3.79394L9.4463 0.656672C9.40694 0.590864 9.38572 0.515798 9.3848 0.439121C9.38388 0.362444 9.4033 0.286894 9.44107 0.220162C9.47885 0.15343 9.53363 0.0978995 9.59985 0.0592262C9.66606 0.0205528 9.74135 0.000116707 9.81803 0H20.1888C24.7045 0 28.4695 3.58565 28.5389 8.09991C28.5625 9.51701 28.2191 10.9161 27.5422 12.1613C26.8652 13.4065 25.8777 14.4554 24.6756 15.2061C24.579 15.266 24.5098 15.3613 24.4827 15.4717C24.4557 15.582 24.473 15.6985 24.5309 15.7963L29.8537 24.6541C29.8936 24.7201 29.9151 24.7956 29.9161 24.8728C29.9171 24.9499 29.8975 25.0259 29.8593 25.093C29.8212 25.16 29.7658 25.2157 29.699 25.2542C29.6321 25.2927 29.5562 25.3128 29.4791 25.3122Z" fill="url(#paint4_linear_828_2611)"/>
<path d="M29.4791 25.3122H24.6654C24.5405 25.3122 24.4176 25.2799 24.3089 25.2183C24.2001 25.1567 24.1092 25.0679 24.0449 24.9607L18.861 16.3343L17.8485 14.6579L17.8181 14.6102L16.8331 12.9714C16.7938 12.9056 16.7725 12.8306 16.7716 12.7539C16.7707 12.6772 16.7901 12.6016 16.8279 12.5349C16.8657 12.4682 16.9205 12.4126 16.9867 12.374C17.0529 12.3353 17.1282 12.3149 17.2049 12.3147H20.2973C21.3726 12.3141 22.4044 11.8896 23.169 11.1334C23.9336 10.3772 24.3694 9.35022 24.3819 8.27492C24.4065 6.00406 22.4828 4.14397 20.2105 4.14397H11.9471C11.8223 4.14415 11.6995 4.112 11.5908 4.05066C11.4821 3.98932 11.3911 3.90088 11.3266 3.79394L9.4463 0.656672C9.40694 0.590864 9.38572 0.515798 9.3848 0.439121C9.38388 0.362444 9.4033 0.286894 9.44107 0.220162C9.47885 0.15343 9.53363 0.0978995 9.59985 0.0592262C9.66606 0.0205528 9.74135 0.000116707 9.81803 0H20.1888C24.7045 0 28.4695 3.58565 28.5389 8.09991C28.5625 9.51701 28.2191 10.9161 27.5422 12.1613C26.8652 13.4065 25.8777 14.4554 24.6756 15.2061C24.579 15.266 24.5098 15.3613 24.4827 15.4717C24.4557 15.582 24.473 15.6985 24.5309 15.7963L29.8537 24.6541C29.8936 24.7201 29.9151 24.7956 29.9161 24.8728C29.9171 24.9499 29.8975 25.0259 29.8593 25.093C29.8212 25.16 29.7658 25.2157 29.699 25.2542C29.6321 25.2927 29.5562 25.3128 29.4791 25.3122Z" fill="#003362"/>
<defs>
<linearGradient id="paint0_linear_828_2611" x1="58.9071" y1="10.2591" x2="178.868" y2="14.5646" gradientUnits="userSpaceOnUse">
<stop stop-color="#228BEB"/>
<stop offset="1" stop-color="#003362"/>
</linearGradient>
<linearGradient id="paint1_linear_828_2611" x1="6.50874" y1="10.9789" x2="33.0611" y2="15.1377" gradientUnits="userSpaceOnUse">
<stop stop-color="#228BEB"/>
<stop offset="1" stop-color="#003362"/>
</linearGradient>
<linearGradient id="paint2_linear_828_2611" x1="4.6322" y1="10.0239" x2="33.7363" y2="13.3634" gradientUnits="userSpaceOnUse">
<stop stop-color="#228BEB"/>
<stop offset="1" stop-color="#003362"/>
</linearGradient>
<linearGradient id="paint3_linear_828_2611" x1="5.5616" y1="10.0523" x2="33.0712" y2="16.8401" gradientUnits="userSpaceOnUse">
<stop stop-color="#228BEB"/>
<stop offset="1" stop-color="#003362"/>
</linearGradient>
<linearGradient id="paint4_linear_828_2611" x1="5.22957" y1="10.9793" x2="33.2216" y2="15.2981" gradientUnits="userSpaceOnUse">
<stop stop-color="#228BEB"/>
<stop offset="1" stop-color="#003362"/>
</linearGradient>
</defs>
</svg>
