<svg width="28" height="28" viewBox="0 0 28 28" fill="none" xmlns="http://www.w3.org/2000/svg">
<g clip-path="url(#clip0_425_94)">
<path d="M14 0C11.2311 0 8.52431 0.821086 6.22202 2.35943C3.91973 3.89777 2.12532 6.08427 1.06569 8.64243C0.00606593 11.2006 -0.271181 14.0155 0.269012 16.7313C0.809205 19.447 2.14258 21.9416 4.10051 23.8995C6.05845 25.8574 8.55301 27.1908 11.2687 27.731C13.9845 28.2712 16.7994 27.9939 19.3576 26.9343C21.9157 25.8747 24.1022 24.0803 25.6406 21.778C27.1789 19.4757 28 16.7689 28 14C27.9995 10.2871 26.5244 6.72643 23.899 4.10102C21.2736 1.47561 17.7129 0.000464024 14 0ZM22.4963 20.0594C21.7675 21.2721 20.6028 22.1605 19.2405 22.5427C17.8783 22.925 16.4214 22.7722 15.1681 22.1156C13.1947 21.0844 11.3892 19.7597 9.81313 18.1869C8.23654 16.6064 6.91024 14.7948 5.88001 12.8144C5.22729 11.5622 5.07755 10.1081 5.46138 8.74917C5.84522 7.39029 6.73365 6.22936 7.94501 5.50375C8.34721 5.26242 8.8287 5.19045 9.28389 5.30363C9.73908 5.41681 10.1308 5.7059 10.3731 6.1075L11.5106 8.01062C11.6469 8.24193 11.729 8.50106 11.7509 8.76861C11.7729 9.03616 11.734 9.3052 11.6372 9.55559C11.5404 9.80598 11.3882 10.0312 11.192 10.2145C10.9959 10.3977 10.7608 10.5342 10.5044 10.6138C10.3288 10.665 10.1671 10.7556 10.0318 10.8787C9.89652 11.0019 9.7911 11.1542 9.72359 11.3243C9.65609 11.4943 9.62827 11.6775 9.64227 11.8599C9.65627 12.0423 9.71172 12.2191 9.80438 12.3769C10.5186 13.5658 11.3752 14.6633 12.355 15.645C13.3376 16.6287 14.4383 17.4869 15.6319 18.2C15.784 18.2927 15.9553 18.3496 16.1326 18.3663C16.31 18.383 16.4889 18.359 16.6556 18.2962C16.8405 18.2272 17.0055 18.1136 17.136 17.9656C17.2665 17.8175 17.3585 17.6396 17.4038 17.4475C17.4887 17.1974 17.6283 16.9693 17.8125 16.78C17.9967 16.5907 18.2208 16.4448 18.4685 16.353C18.7162 16.2612 18.9813 16.2258 19.2443 16.2494C19.5074 16.273 19.762 16.355 19.9894 16.4894L21.8925 17.6269C22.2937 17.8707 22.5823 18.2632 22.6953 18.7188C22.8084 19.1744 22.7369 19.6563 22.4963 20.0594Z" fill="#2D3944"/>
</g>
<defs>
<clipPath id="clip0_425_94">
<rect width="28" height="28" fill="white"/>
</clipPath>
</defs>
</svg>
