<svg width="24" height="24" viewBox="0 0 24 24" fill="none" xmlns="http://www.w3.org/2000/svg">
<path d="M12.2043 3.25244C14.6193 3.25244 16.5793 5.21307 16.5793 7.62744C16.5793 10.0424 14.6193 12.0024 12.2043 12.0024C9.78997 12.0024 7.82935 10.0424 7.82935 7.62744C7.82935 5.21307 9.78997 3.25244 12.2043 3.25244ZM12.2043 4.50244C10.48 4.50244 9.07935 5.90307 9.07935 7.62744C9.07935 9.35244 10.48 10.7524 12.2043 10.7524C13.9293 10.7524 15.3293 9.35244 15.3293 7.62744C15.3293 5.90307 13.9293 4.50244 12.2043 4.50244ZM19.7043 19.5024H12C11.8342 19.5024 11.6752 19.5683 11.558 19.6855C11.4408 19.8027 11.375 19.9617 11.375 20.1274C11.375 20.2932 11.4408 20.4522 11.558 20.5694C11.6752 20.6866 11.8342 20.7524 12 20.7524H20.3293C20.4951 20.7524 20.6541 20.6866 20.7713 20.5694C20.8885 20.4522 20.9543 20.2932 20.9543 20.1274V18.8774C20.9543 17.3856 20.3617 15.9549 19.3068 14.9C18.2519 13.8451 16.8212 13.2524 15.3293 13.2524H12C11.8342 13.2524 11.6752 13.3183 11.558 13.4355C11.4408 13.5527 11.375 13.7117 11.375 13.8774C11.375 14.0432 11.4408 14.2022 11.558 14.3194C11.6752 14.4366 11.8342 14.5024 12 14.5024H15.3293C16.4897 14.5024 17.6025 14.9634 18.4229 15.7838C19.2434 16.6043 19.7043 17.7171 19.7043 18.8774V19.5024Z" fill="black"/>
<path d="M9.24113 17.625L8.25175 18.6144C8.19372 18.6724 8.14769 18.7413 8.11629 18.8171C8.08488 18.8929 8.06872 18.9742 8.06872 19.0563C8.06872 19.1383 8.08488 19.2196 8.11629 19.2954C8.14769 19.3712 8.19372 19.4401 8.25175 19.4981C8.30978 19.5562 8.37867 19.6022 8.45448 19.6336C8.5303 19.665 8.61156 19.6812 8.69362 19.6812C8.77569 19.6812 8.85695 19.665 8.93277 19.6336C9.00858 19.6022 9.07747 19.5562 9.1355 19.4981L11.1918 17.4419C11.2498 17.3839 11.2959 17.315 11.3274 17.2392C11.3588 17.1634 11.375 17.0821 11.375 17C11.375 16.9179 11.3588 16.8366 11.3274 16.7608C11.2959 16.685 11.2498 16.6161 11.1918 16.5581L9.1355 14.5019C9.07747 14.4439 9.00858 14.3978 8.93277 14.3664C8.85695 14.335 8.77569 14.3188 8.69362 14.3188C8.61156 14.3188 8.5303 14.335 8.45448 14.3664C8.37867 14.3978 8.30978 14.4439 8.25175 14.5019C8.19372 14.5599 8.14769 14.6288 8.11629 14.7046C8.08488 14.7804 8.06872 14.8617 8.06872 14.9438C8.06872 15.0258 8.08488 15.1071 8.11629 15.1829C8.14769 15.2587 8.19372 15.3276 8.25175 15.3856L9.24113 16.375H4.24738C4.08161 16.375 3.92264 16.4409 3.80543 16.5581C3.68822 16.6753 3.62238 16.8342 3.62238 17C3.62238 17.1658 3.68822 17.3247 3.80543 17.4419C3.92264 17.5592 4.08161 17.625 4.24738 17.625H9.24113Z" fill="black"/>
</svg>
