<svg width="30" height="30" viewBox="0 0 30 30" fill="none" xmlns="http://www.w3.org/2000/svg">
<path fill-rule="evenodd" clip-rule="evenodd" d="M3.95459 23.2836C3.95459 23.0394 4.05157 22.8053 4.22418 22.6327C4.3968 22.4601 4.63092 22.3631 4.87504 22.3631H17.7614C18.0055 22.3631 18.2396 22.4601 18.4123 22.6327C18.5849 22.8053 18.6819 23.0394 18.6819 23.2836C18.6819 23.5277 18.5849 23.7618 18.4123 23.9344C18.2396 24.107 18.0055 24.204 17.7614 24.204H4.87504C4.63092 24.204 4.3968 24.107 4.22418 23.9344C4.05157 23.7618 3.95459 23.5277 3.95459 23.2836ZM3.95459 17.7608C3.95459 17.5167 4.05157 17.2826 4.22418 17.11C4.3968 16.9374 4.63092 16.8404 4.87504 16.8404H25.125C25.3692 16.8404 25.6033 16.9374 25.7759 17.11C25.9485 17.2826 26.0455 17.5167 26.0455 17.7608C26.0455 18.005 25.9485 18.2391 25.7759 18.4117C25.6033 18.5843 25.3692 18.6813 25.125 18.6813H4.87504C4.63092 18.6813 4.3968 18.5843 4.22418 18.4117C4.05157 18.2391 3.95459 18.005 3.95459 17.7608ZM3.95459 12.2381C3.95459 11.994 4.05157 11.7599 4.22418 11.5872C4.3968 11.4146 4.63092 11.3176 4.87504 11.3176H25.125C25.3692 11.3176 25.6033 11.4146 25.7759 11.5872C25.9485 11.7599 26.0455 11.994 26.0455 12.2381C26.0455 12.4822 25.9485 12.7163 25.7759 12.889C25.6033 13.0616 25.3692 13.1586 25.125 13.1586H4.87504C4.63092 13.1586 4.3968 13.0616 4.22418 12.889C4.05157 12.7163 3.95459 12.4822 3.95459 12.2381ZM3.95459 6.71538C3.95459 6.47126 4.05157 6.23714 4.22418 6.06452C4.3968 5.8919 4.63092 5.79492 4.87504 5.79492H25.125C25.3692 5.79492 25.6033 5.8919 25.7759 6.06452C25.9485 6.23714 26.0455 6.47126 26.0455 6.71538C26.0455 6.9595 25.9485 7.19362 25.7759 7.36624C25.6033 7.53885 25.3692 7.63583 25.125 7.63583H4.87504C4.63092 7.63583 4.3968 7.53885 4.22418 7.36624C4.05157 7.19362 3.95459 6.9595 3.95459 6.71538Z" fill="white"/>
</svg>
