<svg width="35" height="35" viewBox="0 0 35 35" fill="none" xmlns="http://www.w3.org/2000/svg">
<g clip-path="url(#clip0_232_3515)">
<path d="M17.5 0C27.1651 0 35 7.8349 35 17.5C35 27.1651 27.1651 35 17.5 35C7.8349 35 0 27.1651 0 17.5C0 7.8349 7.8349 0 17.5 0Z" fill="#535353"/>
<path d="M26.7238 25.4767C26.1336 26.5953 24.3325 27.3313 22.9683 27.4237C22.0354 27.484 20.8311 27.4649 17.0938 25.234C12.3133 22.3819 9.79221 16.7318 9.58585 16.359C9.39031 15.9878 7.92985 13.3203 8.29311 10.8355C8.65636 8.35064 10.0951 7.32516 10.6797 6.88004C11.1598 6.51471 11.8788 6.42084 12.5411 6.51767C12.7554 6.549 12.9465 6.58798 13.1183 6.62195C13.6238 6.71796 13.8748 6.7856 14.0929 7.63767C14.3635 8.70523 15.0176 11.3388 15.1015 11.6119C15.1875 11.8854 15.2603 12.2497 15.038 12.5599C14.8251 12.8825 14.6598 13.0153 14.3613 13.2723C14.0629 13.5293 13.7875 13.719 13.4859 13.9977C13.212 14.2384 12.9049 14.4942 13.1249 15.0459C13.3465 15.5867 14.1211 17.3956 15.424 18.9479C17.1053 20.9513 18.5921 21.7301 19.1185 22.0458C19.5109 22.2801 20.0148 22.3117 20.3674 22.0317C20.8159 21.6706 21.3956 21.0479 21.9822 20.4372C22.4001 19.9987 22.8462 20.002 23.2797 20.2422C23.7235 20.4729 26.0188 22.0575 26.4904 22.3851C26.9617 22.7149 27.2795 22.8852 27.3715 23.1175C27.4614 23.3495 27.3143 24.356 26.7238 25.4767Z" fill="#FAFAFA"/>
</g>
<defs>
<clipPath id="clip0_232_3515">
<rect width="35" height="35" fill="white"/>
</clipPath>
</defs>
</svg>
