<svg width="24" height="24" viewBox="0 0 24 24" fill="none" xmlns="http://www.w3.org/2000/svg">
<path fill-rule="evenodd" clip-rule="evenodd" d="M7.15721 4.55273C6.79872 4.19666 6.22516 4.19949 5.8781 4.5442C4.10593 6.30438 3.74457 9.02892 5.14926 11.0359C7.4974 14.3908 9.89187 16.8015 12.9635 18.9007C15.026 20.3102 17.7532 19.753 19.4591 18.0587C19.814 17.7061 19.8169 17.1267 19.4503 16.7626L17.4431 14.769C17.0875 14.4159 16.5222 14.404 16.1602 14.729L15.1845 15.6052C14.4893 16.2294 13.4503 16.3622 12.622 15.8614C10.539 14.6021 9.33008 13.3909 8.08228 11.3526C7.57619 10.5258 7.71143 9.48881 8.34117 8.79693L9.22317 7.82792C9.54801 7.47105 9.53669 6.91612 9.18293 6.56474L7.15721 4.55273ZM4.97118 3.63232C5.8267 2.7826 7.21057 2.79307 8.06413 3.64084L10.0899 5.65286C10.9253 6.48267 10.9691 7.82041 10.1749 8.69298L9.29286 9.66205C9.02768 9.95338 8.98744 10.3675 9.17971 10.6816C10.3204 12.545 11.3816 13.6088 13.288 14.7614C13.6079 14.9548 14.0301 14.9133 14.3246 14.6489L15.3004 13.7728C16.1762 12.9863 17.5165 13.0292 18.3501 13.8572L20.3573 15.8507C21.252 16.7395 21.1892 18.1528 20.3141 19.0221C18.184 21.1378 14.8097 21.72 12.2373 19.9619C9.02517 17.7667 6.52298 15.2418 4.09503 11.7728C2.29461 9.20043 2.80294 5.78588 4.97118 3.63232V3.63232Z" fill="black"/>
</svg>
