<svg width="24" height="24" viewBox="0 0 24 24" fill="none" xmlns="http://www.w3.org/2000/svg">
<path fill-rule="evenodd" clip-rule="evenodd" d="M10.5 16.8462C11.3334 16.8462 12.1586 16.682 12.9286 16.3631C13.6985 16.0442 14.3981 15.5767 14.9874 14.9874C15.5767 14.3981 16.0442 13.6985 16.3631 12.9286C16.682 12.1586 16.8462 11.3334 16.8462 10.5C16.8462 9.66661 16.682 8.84138 16.3631 8.07143C16.0442 7.30148 15.5767 6.60189 14.9874 6.01259C14.3981 5.4233 13.6985 4.95584 12.9286 4.63692C12.1586 4.31799 11.3334 4.15385 10.5 4.15385C8.8169 4.15385 7.20273 4.82246 6.01259 6.01259C4.82246 7.20273 4.15385 8.8169 4.15385 10.5C4.15385 12.1831 4.82246 13.7973 6.01259 14.9874C7.20273 16.1775 8.8169 16.8462 10.5 16.8462V16.8462ZM18 10.5C18 12.4891 17.2098 14.3968 15.8033 15.8033C14.3968 17.2098 12.4891 18 10.5 18C8.51088 18 6.60322 17.2098 5.1967 15.8033C3.79018 14.3968 3 12.4891 3 10.5C3 8.51088 3.79018 6.60322 5.1967 5.1967C6.60322 3.79018 8.51088 3 10.5 3C12.4891 3 14.3968 3.79018 15.8033 5.1967C17.2098 6.60322 18 8.51088 18 10.5V10.5Z" fill="#1C1C1C"/>
<path d="M15 16.4838C15.0318 16.5262 15.0658 16.5665 15.104 16.6057L19.1883 20.689C19.3873 20.888 19.6571 20.9999 19.9385 21C20.22 21.0001 20.4899 20.8884 20.6889 20.6896C20.888 20.4907 20.9999 20.2209 21 19.9396C21.0001 19.6582 20.8884 19.3884 20.6895 19.1894L16.6051 15.1061C16.5672 15.0677 16.5264 15.0322 16.4831 15C16.0669 15.5673 15.5668 16.068 15 16.4848V16.4838Z" fill="#1C1C1C"/>
</svg>
