<svg width="28" height="28" viewBox="0 0 28 28" fill="none" xmlns="http://www.w3.org/2000/svg">
<g clip-path="url(#clip0_422_82)">
<path d="M19.6205 9.91884L12.5202 15.7225L12.1862 15.9961C12.1128 16.0543 12.0648 16.1387 12.0525 16.2316L11.9777 16.8488L11.7725 18.5829C11.7744 18.604 11.7679 18.625 11.7543 18.6413C11.7407 18.6575 11.7212 18.6677 11.7001 18.6696C11.679 18.6715 11.658 18.665 11.6418 18.6514C11.6255 18.6378 11.6153 18.6183 11.6134 18.5973L11.0359 16.8632L10.4393 15.0893C10.4139 15.0098 10.4171 14.9239 10.4485 14.8466C10.4799 14.7692 10.5375 14.7054 10.6112 14.6661L17.9993 10.4311L19.3898 9.63566C19.5918 9.51793 19.7987 9.77248 19.6205 9.91884Z" fill="#2D3944"/>
<path d="M14 0C11.2311 0 8.52431 0.821086 6.22202 2.35943C3.91973 3.89777 2.12532 6.08427 1.06569 8.64243C0.00606603 11.2006 -0.271181 14.0155 0.269012 16.7313C0.809205 19.447 2.14258 21.9416 4.10051 23.8995C6.05845 25.8574 8.55301 27.1908 11.2687 27.731C13.9845 28.2712 16.7994 27.9939 19.3576 26.9343C21.9157 25.8747 24.1022 24.0803 25.6406 21.778C27.1789 19.4757 28 16.7689 28 14C28 10.287 26.525 6.72601 23.8995 4.10051C21.274 1.475 17.713 0 14 0ZM22.7325 8.10409L19.9993 20.1807C19.8705 20.747 19.1514 21.0032 18.6471 20.658L14.5202 17.858L12.4186 19.845C12.3329 19.9254 12.2289 19.9837 12.1156 20.0148C12.0023 20.0459 11.8831 20.0489 11.7683 20.0235C11.6536 19.9981 11.5468 19.9451 11.4572 19.8691C11.3676 19.7931 11.2979 19.6963 11.2541 19.5873L10.4952 17.36L9.73637 15.1327L5.66842 14.0191C5.55468 13.9943 5.45233 13.9325 5.37728 13.8435C5.30223 13.7545 5.25869 13.6432 5.25343 13.5269C5.24817 13.4106 5.28148 13.2959 5.34818 13.2004C5.41489 13.105 5.51125 13.0343 5.62228 12.9993L21.3373 7.33727L21.6268 7.23386C22.2361 7.02068 22.8661 7.51386 22.7325 8.10409Z" fill="#2D3944"/>
</g>
<defs>
<clipPath id="clip0_422_82">
<rect width="28" height="28" fill="white"/>
</clipPath>
</defs>
</svg>
