<svg width="13" height="9" viewBox="0 0 13 9" fill="none" xmlns="http://www.w3.org/2000/svg">
<path d="M12.6352 1.02122C12.4042 0.792462 12.0916 0.664062 11.7658 0.664062C11.44 0.664063 11.1274 0.792462 10.8964 1.02122L6.46917 5.36908L2.10361 1.02122C1.87255 0.792462 1.55999 0.664062 1.23419 0.664062C0.908398 0.664062 0.595839 0.792462 0.364781 1.02122C0.249195 1.1354 0.15745 1.27124 0.0948421 1.42091C0.0322336 1.57057 0 1.73111 0 1.89325C0 2.05539 0.0322336 2.21592 0.0948421 2.36559C0.15745 2.51526 0.249195 2.6511 0.364781 2.76528L5.59359 7.97289C5.70823 8.08801 5.84463 8.17938 5.99491 8.24174C6.14518 8.30409 6.30637 8.33619 6.46917 8.33619C6.63197 8.33619 6.79316 8.30409 6.94343 8.24174C7.09371 8.17938 7.23011 8.08801 7.34475 7.97289L12.6352 2.76528C12.7508 2.6511 12.8425 2.51526 12.9052 2.36559C12.9678 2.21592 13 2.05539 13 1.89325C13 1.73111 12.9678 1.57057 12.9052 1.42091C12.8425 1.27124 12.7508 1.1354 12.6352 1.02122Z" fill="white"/>
</svg>
