<svg width="28" height="28" viewBox="0 0 28 28" fill="none" xmlns="http://www.w3.org/2000/svg">
<g clip-path="url(#clip0_424_88)">
<path d="M20.6086 9.79066C20.4861 9.31339 20.1314 8.7693 19.6859 8.30316C19.1386 7.73043 18.4386 7.2643 17.8261 7.12748C15.2978 6.64371 12.7006 6.64371 10.1723 7.12748C9.05863 7.37566 7.6634 8.71839 7.39135 9.79066C6.93661 11.8601 6.93661 14.0037 7.39135 16.0732C7.6109 16.9418 8.56385 17.9823 9.50726 18.4818C9.71634 18.5968 9.94004 18.683 10.1723 18.7379C10.1963 18.7421 10.2181 18.7545 10.2338 18.7732C10.2495 18.7918 10.2581 18.8154 10.2582 18.8398V21.8943C10.2581 21.9281 10.2682 21.9611 10.2871 21.989C10.3061 22.017 10.333 22.0387 10.3643 22.0512C10.3957 22.0637 10.4301 22.0665 10.4631 22.0592C10.4961 22.052 10.5261 22.035 10.5493 22.0104L12.0018 20.5229L13.3636 19.1229C13.3733 19.1124 13.3851 19.1041 13.3983 19.0986C13.4115 19.0931 13.4257 19.0906 13.44 19.0911C14.9099 19.1307 16.3799 19.0123 17.8245 18.7379C18.9382 18.4898 20.3334 17.147 20.607 16.0732C21.0623 14.0038 21.0628 11.8603 20.6086 9.79066ZM17.8659 16.2275C17.6594 16.6993 17.304 17.0905 16.8541 17.3411C16.7133 17.4022 16.5667 17.4491 16.4166 17.4811C16.2464 17.4286 16.0841 17.3952 15.9393 17.3316C14.7357 16.8617 13.6157 16.201 12.6223 15.3748C12.3271 15.1215 12.0491 14.8488 11.7902 14.5586C11.1526 13.8244 10.6174 13.0072 10.1993 12.1293C9.99567 11.7157 9.82385 11.2845 9.64885 10.8566C9.48976 10.4668 9.72522 10.0611 9.96704 9.77157C10.2032 9.50096 10.4945 9.28398 10.8214 9.13521C10.9361 9.07684 11.0678 9.06079 11.1932 9.08989C11.3186 9.11899 11.4297 9.19136 11.507 9.2943C11.9104 9.75164 12.2659 10.249 12.5682 10.7786C12.6637 10.9329 12.6963 11.118 12.6593 11.2956C12.6223 11.4732 12.5185 11.6298 12.3693 11.7332C12.2898 11.7873 12.2102 11.8525 12.1418 11.9129C12.0743 11.9634 12.0162 12.0254 11.97 12.0959C11.9299 12.1616 11.9055 12.2358 11.8989 12.3125C11.8923 12.3893 11.9035 12.4665 11.9318 12.5382C12.2389 13.3829 12.705 14.0861 13.4018 14.5809C13.6376 14.7481 13.8916 14.888 14.1591 14.9977C14.3336 15.0929 14.5299 15.1406 14.7286 15.1361C15.0754 15.0948 15.19 14.7129 15.4318 14.5141C15.543 14.4234 15.6804 14.3711 15.8237 14.3648C15.967 14.3584 16.1086 14.3985 16.2273 14.4791C16.485 14.6382 16.7332 14.8163 16.9814 14.9929C17.2268 15.1599 17.4631 15.34 17.6893 15.5323C17.795 15.6095 17.8704 15.7212 17.9026 15.8481C17.9348 15.975 17.9219 16.1091 17.8659 16.2275ZM15.5814 12.4093C15.5716 12.3831 15.5652 12.3559 15.5623 12.3282C15.554 12.2211 15.5381 12.1148 15.5145 12.01C15.4677 11.7972 15.3471 11.6078 15.1741 11.4754C15.0903 11.4161 14.9973 11.371 14.8989 11.3418C14.7732 11.3068 14.6411 11.3163 14.517 11.2861C14.4557 11.2752 14.4012 11.2405 14.3654 11.1895C14.3296 11.1385 14.3155 11.0754 14.3261 11.0141C14.3376 10.955 14.3703 10.9021 14.4181 10.8655C14.4659 10.8289 14.5254 10.811 14.5854 10.8152C15.3141 10.8693 15.8582 11.2193 15.9982 12.0004C16.0127 12.0729 16.0228 12.1463 16.0284 12.22C16.0388 12.2859 16.0388 12.353 16.0284 12.4188C16.0196 12.4593 15.9988 12.4961 15.9687 12.5245C15.9386 12.5529 15.9006 12.5715 15.8598 12.5779H15.8248C15.7711 12.5813 15.7179 12.5665 15.6737 12.5359C15.6296 12.5053 15.597 12.4607 15.5814 12.4093ZM15.3491 10.4382C15.1039 10.323 14.8435 10.2432 14.5759 10.2011C14.4582 10.182 14.3404 10.1709 14.2227 10.155C14.1919 10.1535 14.1618 10.1456 14.1341 10.1319C14.1065 10.1182 14.082 10.099 14.0622 10.0754C14.0423 10.0518 14.0275 10.0244 14.0187 9.99482C14.01 9.96526 14.0074 9.93422 14.0111 9.90361C14.0114 9.87257 14.0181 9.84193 14.031 9.81367C14.0439 9.78542 14.0625 9.76019 14.0858 9.73963C14.1091 9.71907 14.1364 9.70364 14.166 9.69434C14.1956 9.68504 14.2269 9.68209 14.2577 9.68566C14.7249 9.70369 15.1825 9.82312 15.5989 10.0357C16.1071 10.2911 16.5218 10.7003 16.7841 11.205C16.9317 11.5006 17.0305 11.8181 17.0768 12.1452C17.0855 12.1878 17.0919 12.2308 17.0959 12.2741C17.1039 12.3695 17.107 12.4634 17.115 12.5827V12.6273C17.1138 12.6745 17.1074 12.7214 17.0959 12.7673C17.0818 12.8132 17.0539 12.8536 17.0161 12.8832C16.9782 12.9127 16.9321 12.9298 16.8842 12.9323C16.8362 12.9347 16.7886 12.9223 16.748 12.8968C16.7073 12.8712 16.6755 12.8338 16.6568 12.7895C16.6391 12.7253 16.6311 12.6588 16.6329 12.5923C16.6365 12.2369 16.566 11.8848 16.4261 11.5582C16.3944 11.4863 16.3588 11.4162 16.3195 11.3482C16.0914 10.9569 15.7542 10.6407 15.3491 10.4382ZM17.9773 13.3718C17.8182 13.3718 17.7402 13.2366 17.7291 13.0886C17.7084 12.7975 17.6925 12.5048 17.6527 12.2152C17.5837 11.7262 17.4136 11.257 17.1532 10.8375C16.8853 10.4011 16.5288 10.0258 16.1068 9.7359C15.6848 9.44596 15.2066 9.24782 14.7032 9.1543C14.4741 9.11452 14.2402 9.10498 14.0095 9.07952C13.8632 9.06521 13.6707 9.05566 13.6389 8.87271C13.6346 8.83765 13.6378 8.80209 13.6482 8.76834C13.6586 8.7346 13.676 8.70343 13.6993 8.67686C13.7226 8.65029 13.7512 8.62893 13.7832 8.61415C13.8153 8.59938 13.8501 8.59153 13.8854 8.59111H14.0557C14.7417 8.6055 15.4139 8.78687 16.014 9.11952C16.6142 9.45217 17.1242 9.92607 17.5 10.5002C17.8011 10.9683 18.0056 11.4919 18.1014 12.0402C18.1618 12.3854 18.1841 12.7386 18.2111 13.0886C18.2163 13.1229 18.2142 13.1578 18.2049 13.1912C18.1957 13.2246 18.1795 13.2557 18.1574 13.2824C18.1354 13.3091 18.1079 13.3309 18.0769 13.3463C18.0458 13.3617 18.0119 13.3704 17.9773 13.3718Z" fill="#2D3944"/>
<path d="M14 0C11.2311 0 8.52431 0.821086 6.22202 2.35943C3.91973 3.89777 2.12532 6.08427 1.06569 8.64243C0.00606603 11.2006 -0.271181 14.0155 0.269012 16.7313C0.809205 19.447 2.14258 21.9416 4.10051 23.8995C6.05845 25.8574 8.55301 27.1908 11.2687 27.731C13.9845 28.2712 16.7994 27.9939 19.3576 26.9343C21.9157 25.8747 24.1022 24.0803 25.6406 21.778C27.1789 19.4757 28 16.7689 28 14C28 10.287 26.525 6.72601 23.8995 4.10051C21.274 1.475 17.713 0 14 0ZM22.0866 16.407V16.4261C21.6793 18.0791 19.8371 19.8498 18.1459 20.2189H18.1268C16.7668 20.4807 15.385 20.6133 14 20.615C13.5959 20.615 13.1886 20.6023 12.7846 20.5784L10.9168 22.5209C10.8142 22.6264 10.6824 22.699 10.5383 22.7294C10.3943 22.7597 10.2444 22.7465 10.1079 22.6914C9.97138 22.6363 9.85436 22.5417 9.77176 22.4199C9.68916 22.298 9.64472 22.1543 9.6441 22.007V20.1632C9.20535 20.0328 8.78788 19.8393 8.40478 19.5889C7.23069 18.8427 6.21251 17.6034 5.91978 16.4261V16.407C5.41547 14.1176 5.41547 11.7458 5.91978 9.45636V9.43568C6.32705 7.78432 8.16773 6.01364 9.86364 5.64455H9.88273C12.606 5.12273 15.4036 5.12273 18.1268 5.64455H18.1459C19.0591 5.84341 20.0152 6.45114 20.7661 7.23546C21.4025 7.89568 21.8989 8.68318 22.0866 9.44205V9.46273C22.59 11.7501 22.59 14.1196 22.0866 16.407Z" fill="#2D3944"/>
</g>
<defs>
<clipPath id="clip0_424_88">
<rect width="28" height="28" fill="white"/>
</clipPath>
</defs>
</svg>
