<svg width="35" height="35" viewBox="0 0 35 35" fill="none" xmlns="http://www.w3.org/2000/svg">
<g clip-path="url(#clip0_229_3516)">
<path d="M35 17.5C35 7.83502 27.165 0 17.5 0C7.83502 0 0 7.83502 0 17.5C0 27.165 7.83502 35 17.5 35C27.165 35 35 27.165 35 17.5Z" fill="#419FD9"/>
<path d="M35 17.5C35 7.83502 27.165 0 17.5 0C7.83502 0 0 7.83502 0 17.5C0 27.165 7.83502 35 17.5 35C27.165 35 35 27.165 35 17.5Z" fill="url(#paint0_linear_229_3516)"/>
<path d="M7.86581 17.1148C12.9549 14.851 16.3484 13.3586 18.0464 12.6374C22.8943 10.5786 23.9017 10.221 24.5583 10.2091C24.7027 10.2066 25.0256 10.2432 25.2348 10.4164C25.4114 10.5627 25.4599 10.7604 25.4832 10.8991C25.5065 11.0379 25.5354 11.3539 25.5124 11.6008C25.2497 14.4192 24.113 21.2587 23.5346 24.4153C23.2899 25.751 22.808 26.1988 22.3416 26.2427C21.3278 26.3379 20.558 25.5586 19.5762 24.9014C18.0397 23.8732 17.1717 23.233 15.6803 22.2296C13.9568 21.0699 15.0741 20.4325 16.0563 19.3908C16.3134 19.1183 20.78 14.97 20.8665 14.5938C20.8773 14.5467 20.8873 14.3713 20.7853 14.2787C20.6832 14.186 20.5325 14.2177 20.4238 14.2428C20.2697 14.2786 17.8152 15.935 13.0603 19.2122C12.3636 19.7007 11.7326 19.9386 11.1672 19.9261C10.5439 19.9124 9.34493 19.5663 8.45359 19.2705C7.36035 18.9076 6.49143 18.7158 6.56709 18.0996C6.6065 17.7787 7.0394 17.4504 7.86581 17.1148Z" fill="white"/>
</g>
<defs>
<linearGradient id="paint0_linear_229_3516" x1="17.5" y1="0" x2="17.5" y2="34.7404" gradientUnits="userSpaceOnUse">
<stop stop-color="#2AABEE"/>
<stop offset="1" stop-color="#229ED9"/>
</linearGradient>
<clipPath id="clip0_229_3516">
<rect width="35" height="35" fill="white"/>
</clipPath>
</defs>
</svg>
