<svg width="35" height="35" viewBox="0 0 35 35" fill="none" xmlns="http://www.w3.org/2000/svg">
<g clip-path="url(#clip0_229_3520)">
<path d="M17.5 0C27.1651 0 35 7.8349 35 17.5C35 27.1651 27.1651 35 17.5 35C7.8349 35 0 27.1651 0 17.5C0 7.8349 7.8349 0 17.5 0Z" fill="#7F4DA0"/>
<path d="M22.162 15.2818C22.0767 14.5906 21.8645 14.0481 21.4868 13.5668C20.9968 12.947 20.3711 12.5766 19.4436 12.3564C18.8384 12.2106 18.5949 12.2266 18.3761 12.4264C18.1727 12.6138 18.1326 12.9878 18.2886 13.2314C18.398 13.4078 18.5242 13.4706 18.8749 13.5398C19.343 13.6259 19.666 13.7367 19.9599 13.9051C20.5833 14.2653 20.8735 14.829 20.9049 15.7412C20.9195 16.1699 20.9559 16.3019 21.1061 16.4536C21.3832 16.7307 21.8769 16.6774 22.0861 16.3449C22.1634 16.2195 22.1751 16.1648 22.1831 15.8739C22.1887 15.6763 22.1817 15.4785 22.162 15.2818Z" fill="white"/>
<path d="M24.6061 16.0623C24.4822 13.9433 23.6538 12.2393 22.1707 11.0398C21.3358 10.366 20.3259 9.9023 19.2183 9.67698C18.8129 9.59678 18.0662 9.53115 17.9379 9.56907C17.8176 9.60334 17.6462 9.73459 17.5704 9.85271C17.4902 9.98105 17.4712 10.2676 17.5405 10.4331C17.6513 10.7102 17.8577 10.8079 18.4359 10.859C19.327 10.937 20.2457 11.2498 20.9406 11.7135C21.7282 12.2355 22.3605 12.9602 22.7708 13.8114C23.1237 14.5405 23.3396 15.5905 23.3345 16.5311C23.3323 16.8709 23.3848 17.0634 23.5211 17.2034C23.6175 17.3078 23.7464 17.3764 23.8867 17.3981C24.0271 17.4198 24.1706 17.3933 24.294 17.323C24.5886 17.1684 24.6579 16.8972 24.6061 16.0623ZM27.3091 24.2202C27.2541 24.0754 27.1847 23.9364 27.1021 23.8053C26.6667 23.1483 24.329 21.3189 23.1616 20.7202C22.4945 20.3775 22.0008 20.263 21.6348 20.3702C21.241 20.481 21.0339 20.6648 20.374 21.4844C20.1079 21.8125 19.8352 22.1209 19.763 22.1698C19.5829 22.2938 19.2307 22.3944 18.9828 22.3944C18.4053 22.3907 17.3589 22.0174 16.5547 21.5259C15.929 21.1453 15.1277 20.4635 14.513 19.7891C13.7875 18.9972 13.2938 18.2987 12.9037 17.5097C12.3991 16.4962 12.2715 15.8771 12.4823 15.4243C12.5333 15.3098 12.6033 15.1888 12.6339 15.1508C12.6653 15.1166 12.9898 14.8497 13.3485 14.5595C14.0536 13.9988 14.1674 13.8712 14.2986 13.4876C14.4641 12.9991 14.4197 12.501 14.1637 12.0001C13.9668 11.6188 13.4528 10.789 13.0795 10.253C12.5858 9.54719 11.3557 8.03927 11.1107 7.83511C10.6688 7.4749 10.1023 7.41219 9.47737 7.655C8.81747 7.91094 7.58153 8.90698 7.05289 9.60188C6.57601 10.2319 6.39299 10.6781 6.36528 11.2666C6.34122 11.7507 6.38278 11.9513 6.63799 12.5703C8.6381 17.4266 11.6218 21.3043 15.722 24.3828C17.8628 25.9914 20.0838 27.2164 22.388 28.0534C23.7311 28.5405 24.3152 28.5653 25.0021 28.1635C25.2923 27.9907 26.0105 27.2543 26.4115 26.7176C27.0751 25.8251 27.3201 25.4139 27.3886 25.085C27.4367 24.8604 27.3988 24.4696 27.3091 24.2202Z" fill="white"/>
<path d="M27.0936 16.5482C27.0491 15.3495 26.8471 14.3665 26.4264 13.2713C26.0108 12.1929 25.5908 11.4892 24.7967 10.5384C24.0457 9.64591 23.4631 9.13695 22.5385 8.56966C21.2486 7.77997 19.6787 7.25716 17.9192 7.03695C17.3198 6.96039 17.1835 6.96549 16.9997 7.08799C16.6424 7.32133 16.6475 7.90174 17.0055 8.1307C17.1237 8.20362 17.2294 8.22987 17.7092 8.29331C18.4457 8.39247 18.9196 8.48581 19.4811 8.63893C21.6861 9.24122 23.3814 10.4735 24.5145 12.3015C25.4624 13.8255 25.8562 15.3495 25.8008 17.2963C25.7811 17.954 25.7949 18.07 25.8955 18.2282C26.088 18.5228 26.5963 18.5811 26.8573 18.3368C27.0192 18.1874 27.0498 18.0758 27.0819 17.5129C27.0965 17.2183 27.1001 16.7852 27.0936 16.5482Z" fill="white"/>
</g>
<defs>
<clipPath id="clip0_229_3520">
<rect width="35" height="35" fill="white"/>
</clipPath>
</defs>
</svg>
