<svg width="35" height="35" viewBox="0 0 35 35" fill="none" xmlns="http://www.w3.org/2000/svg">
<g clip-path="url(#clip0_232_3521)">
<path d="M17.5 0C27.1651 0 35 7.8349 35 17.5C35 27.1651 27.1651 35 17.5 35C7.8349 35 0 27.1651 0 17.5C0 7.8349 7.8349 0 17.5 0Z" fill="#39CB3F"/>
<path d="M27.3547 24.7081C26.9325 25.9003 25.2569 26.8891 23.9203 27.1778C23.0059 27.3725 21.8116 27.5278 17.7909 25.8609C12.6481 23.7303 9.33625 18.5044 9.07813 18.1653C8.83094 17.8262 7 15.3981 7 12.8869C7 10.3756 8.27531 9.15281 8.78938 8.62781C9.21156 8.19688 9.90937 8 10.5787 8C10.7953 8 10.99 8.01094 11.165 8.01969C11.6791 8.04156 11.9372 8.07219 12.2762 8.88375C12.6984 9.90094 13.7266 12.4122 13.8491 12.6703C13.9737 12.9284 14.0984 13.2784 13.9234 13.6175C13.7594 13.9675 13.615 14.1228 13.3569 14.4203C13.0987 14.7178 12.8537 14.9453 12.5956 15.2647C12.3594 15.5425 12.0925 15.84 12.39 16.3541C12.6875 16.8572 13.7156 18.535 15.2294 19.8825C17.1828 21.6216 18.7666 22.1772 19.3331 22.4134C19.7553 22.5884 20.2584 22.5469 20.5669 22.2188C20.9584 21.7966 21.4419 21.0966 21.9341 20.4075C22.2841 19.9131 22.7259 19.8519 23.1897 20.0269C23.6622 20.1909 26.1625 21.4269 26.6766 21.6828C27.1906 21.9409 27.5297 22.0634 27.6544 22.28C27.7769 22.4966 27.7769 23.5138 27.3547 24.7081Z" fill="#FAFAFA"/>
</g>
<defs>
<clipPath id="clip0_232_3521">
<rect width="35" height="35" fill="white"/>
</clipPath>
</defs>
</svg>
