<svg width="230" height="190" viewBox="0 0 230 190" fill="none" xmlns="http://www.w3.org/2000/svg">
<g clip-path="url(#clip0_63_3768)">
<path d="M219.321 125.961C219.14 126.276 218.95 126.581 218.759 126.887C209.506 141.862 188.593 148.775 167.569 144.155C159.769 142.439 153.042 139.067 145.112 136.451C144.43 136.222 143.738 136.009 143.037 135.797C131.808 132.383 117.913 130.803 95.4055 137.36C60.4064 147.552 30.771 151.179 15.8731 132.136C15.6826 131.907 15.5022 131.669 15.3317 131.423C13.3166 128.722 11.5922 125.579 10.1787 121.952C6.06825 111.462 10.0884 99.4522 18.9509 87.9092C19.2316 87.5441 19.5224 87.1704 19.8131 86.805C26.1593 78.8379 34.7712 71.1255 44.5561 64.322C45.6087 63.5916 46.6212 62.8271 47.6037 62.0287C47.9045 61.8078 48.2053 61.5615 48.4962 61.3068C54.01 56.7201 58.3211 51.3775 61.9905 45.8565C62.1608 45.6018 62.3313 45.3469 62.5016 45.0921C69.2688 34.7128 73.9107 23.7728 80.1565 15.8905C80.6679 15.245 81.1892 14.6248 81.7406 14.0219C81.9713 13.7585 82.2118 13.4951 82.4624 13.2404C84.4174 11.1679 86.5831 9.32478 88.9289 7.72799C89.1996 7.53274 89.4803 7.34571 89.761 7.16741C96.1173 3.02243 103.697 0.559175 112.008 -0.196742C112.429 -0.230656 112.84 -0.264735 113.261 -0.298568C126.144 -1.19047 140.681 1.97774 155.037 9.35869C155.418 9.54563 155.789 9.74097 156.17 9.94479C165.574 14.9136 174.878 21.7086 183.56 30.3469C183.83 30.6101 184.101 30.882 184.372 31.1537C192.162 39.0445 199.45 48.4386 205.836 59.37C205.997 59.6333 206.147 59.8966 206.297 60.1598C208.483 63.9482 210.558 67.9147 212.523 72.0682C212.644 72.3315 212.764 72.5947 212.894 72.8581C214.378 76.0687 215.802 79.3813 217.135 82.8128C217.245 83.0761 217.346 83.348 217.446 83.6112C218.91 87.4079 220.283 91.3236 221.536 95.3836C225.286 107.479 223.973 117.841 219.321 125.961Z" fill="#DCF4E6"/>
<path d="M217.444 83.6129C208.251 86.1866 197.985 87.8853 187.819 87.8853C178.425 87.8853 169.121 86.4244 160.84 82.8485C145.491 76.2064 135.476 63.3043 131.064 44.4822C125.49 20.6912 118.272 7.32197 112.006 -0.195049C112.427 -0.228964 112.838 -0.263043 113.259 -0.296875C119.505 7.42388 126.553 20.8695 132.047 44.3208C136.388 62.8711 146.233 75.5779 161.301 82.0926C178.244 89.4227 199.659 87.6815 217.133 82.8146C217.244 83.0778 217.344 83.3497 217.444 83.6129Z" fill="white"/>
<path d="M212.892 72.8588C205.794 74.4047 199.448 75.1777 193.824 75.1777C186.285 75.1777 180.039 73.7931 175.006 71.0411C164.6 65.3419 159.075 53.7733 158.123 35.6731C157.562 25.1579 156.419 16.4603 155.035 9.35938C155.416 9.54632 155.787 9.74165 156.168 9.94547C157.492 16.9444 158.584 25.4467 159.126 35.6308C160.068 53.4422 165.442 64.7898 175.557 70.3278C184.089 74.9993 196.27 75.5854 212.521 72.069C212.642 72.3323 212.762 72.5955 212.892 72.8588Z" fill="white"/>
<path d="M206.296 60.1607C202.537 60.9167 199.178 61.299 196.211 61.299C190.586 61.299 186.396 59.9399 183.689 57.222C177.724 51.2508 179.969 39.9371 183.558 30.3477C183.829 30.6109 184.1 30.8828 184.371 31.1545C180.972 40.4382 178.927 51.1489 184.451 56.6783C188.31 60.5345 195.489 61.4348 205.835 59.3709C205.996 59.6341 206.146 59.8975 206.296 60.1607Z" fill="white"/>
<path d="M219.321 125.961C219.14 126.276 218.95 126.581 218.759 126.887C214.699 127.329 210.208 127.601 205.305 127.601C184.382 127.601 155.96 122.632 121.542 104.676C77.0389 81.4626 42.5712 82.4053 21.4977 87.2808C20.6355 87.4847 19.7833 87.6885 18.9512 87.9094C19.2319 87.5442 19.5227 87.1705 19.8134 86.8052C20.2846 86.6862 20.7558 86.5758 21.227 86.4654C42.5011 81.539 77.2595 80.5792 122.064 103.946C164.782 126.225 198.157 128.408 219.321 125.961Z" fill="white"/>
<path d="M145.112 136.45C144.431 136.221 143.739 136.009 143.037 135.796C129.904 123.956 110.324 112.634 83.8063 113.305C54.3713 114.044 31.5933 123.022 15.8734 132.135C15.6829 131.906 15.5025 131.668 15.332 131.422C31.1823 122.24 54.1407 113.203 83.776 112.455C111.577 111.767 131.838 124.041 145.112 136.45Z" fill="white"/>
<path d="M109.278 51.8197C108.326 60.6532 103.303 66.4289 94.7515 68.5184C91.6637 69.2743 88.2751 69.6056 84.6759 69.6056C73.4373 69.6056 60.1335 66.3015 47.6016 62.0292C47.9024 61.8083 48.2031 61.562 48.494 61.3073C64.7853 66.8451 82.2497 70.6843 94.4708 67.703C104.737 65.1888 107.644 57.6379 108.286 51.7432C109.74 38.1531 100.667 19.0422 88.9267 7.72855C89.1974 7.53329 89.4781 7.34627 89.7588 7.16797C101.759 18.6175 110.792 37.771 109.278 51.8197Z" fill="white"/>
<path d="M89.1894 53.1863C88.0165 53.6875 86.6328 53.9168 85.099 53.9168C78.8932 53.9168 70.1109 50.188 61.9902 45.8563C62.1606 45.6015 62.3311 45.3466 62.5014 45.0918C72.4067 50.4088 83.2242 54.8001 88.7383 52.4304C97.5406 48.6422 87.2044 25.089 81.7404 14.0217C81.9711 13.7583 82.2115 13.4949 82.4622 13.2402C87.9762 24.3076 98.9441 48.9905 89.1894 53.1863Z" fill="white"/>
<path d="M151.574 153.027L163.423 161.715L167.039 156.468L159.115 147.576L151.574 153.027Z" fill="#D7A28E"/>
<path d="M164.591 153.272C164.559 152.24 173.962 157.991 173.75 158.706C173.537 159.42 162.096 174.06 160.301 174.975C158.505 175.891 155.279 174.097 156.574 171.564C157.869 169.031 160.754 163.821 159.832 161.173C159.832 161.173 157.851 158.545 157.888 158.028C157.926 157.512 160.147 158.648 160.147 158.648C160.147 158.648 164.669 155.749 164.591 153.272Z" fill="#FFC439"/>
<path d="M157.426 169.934C157.503 170.027 157.786 169.942 158.197 169.935C158.614 169.93 159.185 170.048 159.816 170.272C161.077 170.731 162.069 171.297 162.226 171.138C162.377 171.003 161.598 170.144 160.142 169.608C159.42 169.347 158.63 169.274 158.09 169.434C157.549 169.6 157.363 169.872 157.426 169.934Z" fill="#DBA12C"/>
<path d="M172.582 157.318C172.928 157.5 174.408 158.372 174.106 158.949C173.804 159.526 160.526 175.852 160.175 175.803C159.824 175.754 158.818 175.209 158.587 175.152C158.356 175.094 172.582 157.318 172.582 157.318Z" fill="#11405C"/>
<path d="M161.746 163.979C161.548 163.284 159.631 163.43 159.506 163.731C159.382 164.032 161.94 164.665 161.746 163.979Z" fill="#DBA12C"/>
<path d="M161.124 165.698C160.927 165.003 159.01 165.149 158.885 165.45C158.76 165.751 161.319 166.384 161.124 165.698Z" fill="#DBA12C"/>
<path d="M160.347 167.407C160.15 166.711 158.233 166.858 158.108 167.159C157.983 167.46 160.542 168.093 160.347 167.407Z" fill="#DBA12C"/>
<path d="M165 161.137C165.906 161.674 167.155 161.487 167.789 160.72C168.423 159.953 168.203 158.895 167.297 158.358C166.392 157.82 165.143 158.007 164.509 158.774C163.874 159.541 164.095 160.599 165 161.137Z" fill="#DBA12C"/>
<path d="M145.854 82.5995L135.833 116.171L161.745 149.292L155.078 156.347C155.078 156.347 107.805 124.822 108.528 120.162C109.251 115.502 118.236 81.7891 118.236 81.7891L145.854 82.5995Z" fill="#2F627C"/>
<path d="M153.538 138.796L147.812 151.424L147.8 151.415L119.598 131.08C119.598 131.08 127.373 128.795 127.229 125.956C127.085 123.117 126.091 101.034 126.091 101.034V83.7852L133.783 97.3929L138.814 106.183L135.831 116.168L153.538 138.796Z" fill="#11405C"/>
<path d="M138.265 174.994C138.192 175.369 137.581 181.152 137.254 182.738C136.296 183.374 130.88 182.579 130.596 181.705C130.312 180.83 131.355 173.92 131.355 173.92L138.265 174.994Z" fill="#D7A28E"/>
<path d="M135.672 189.514C134.962 189.67 120.771 187.429 119.369 187.232C117.968 187.036 119.341 182.84 123.686 183.361L129.484 180.584C129.878 179.758 130.37 178.851 130.72 178.504C131.352 177.885 133.479 178.099 134.682 179.058C135.241 179.506 135.37 180.296 135.307 181.055C136.683 181.274 137.689 181.555 137.652 182.214C137.601 183.126 136.387 189.358 135.672 189.514Z" fill="#FFC439"/>
<path d="M127.535 185.88C127.504 185.447 125.751 183.34 123.482 183.364C123.482 183.364 124.709 182.274 126.625 183.563C128.038 184.516 127.535 185.88 127.535 185.88Z" fill="#DBA12C"/>
<path d="M134.139 184.822C134.007 185.498 134.388 186.114 134.989 186.199C135.59 186.283 136.184 185.803 136.316 185.127C136.448 184.45 136.067 183.834 135.466 183.75C134.865 183.666 134.271 184.146 134.139 184.822Z" fill="#DBA12C"/>
<path d="M129.808 183.58C129.25 183.2 126.184 182.6 126.942 182.342C127.699 182.084 129.93 182.825 130.013 183.307C130.095 183.79 129.808 183.58 129.808 183.58Z" fill="#DBA12C"/>
<path d="M130.941 182.822C130.383 182.442 127.317 181.842 128.075 181.584C128.833 181.326 131.063 182.066 131.146 182.549C131.229 183.032 130.941 182.822 130.941 182.822Z" fill="#DBA12C"/>
<path d="M132.073 182.061C131.516 181.681 128.45 181.08 129.208 180.823C129.965 180.565 132.196 181.305 132.279 181.788C132.361 182.27 132.073 182.061 132.073 182.061Z" fill="#DBA12C"/>
<path d="M136.26 188.483C136.261 188.474 129.929 187.849 126.418 187.341C126.026 187.285 125.875 186.388 122.366 185.854C119.943 185.454 118.991 185.992 118.891 186.052C118.705 186.165 118.147 187.406 118.816 187.605C119.484 187.805 135.277 190.145 135.589 189.953C136.205 189.574 136.26 188.483 136.26 188.483Z" fill="#11405C"/>
<path d="M161.175 81.7891L140.101 178.026L129.303 175.999L130.11 96.2202L125.455 81.7891H161.175Z" fill="#2F627C"/>
<path d="M114.67 81.7873C114.67 81.7873 157.968 90.2289 162.384 86.1287C166.8 82.0285 155.255 29.6302 152.912 28.5719C150.569 27.5137 133.997 28.5719 133.997 28.5719C133.997 28.5719 120.346 62.4921 114.67 81.7873Z" fill="#F2CD33"/>
<path d="M162.109 67.5071L137.782 63.435C137.782 63.435 137.184 79.9565 136.889 85.5013C131.257 84.7126 125.757 83.7953 121.644 83.0631C117.436 82.3306 114.672 81.7915 114.672 81.7915C117.788 71.1848 123.316 56.1681 127.666 44.789C129.917 38.882 128.904 35.2037 130.025 32.3789C132.019 32.6604 137.012 33.5769 137.525 34.0999C138.465 35.0576 136.614 50.9694 136.766 52.241C136.88 53.2147 153.36 58.3491 160.997 60.6667C161.415 62.9925 161.786 65.294 162.109 67.5071Z" fill="#DBA12C"/>
<path d="M128.334 25.0862L19.5901 19.3988C16.1726 19.22 13.2534 21.4276 13.0422 24.3246L9.05112 79.0986C8.84032 81.9922 11.4183 84.469 14.8356 84.6477L123.58 90.3351C127.001 90.514 129.946 88.3261 130.157 85.4324L134.148 30.6584C134.359 27.7615 131.755 25.2651 128.334 25.0862Z" fill="#549BEC"/>
<path d="M97.8661 22.6727C97.8661 22.6727 96.9064 21.0776 94.9711 22.837C93.0359 24.5965 94.1477 25.9028 95.0424 25.7236C95.9372 25.5445 96.527 25.486 97.0176 24.2289C97.0176 24.2289 97.1969 25.3703 98.2355 25.2961C99.274 25.2216 99.8435 24.4879 99.8435 24.4879C99.8435 24.4879 99.7555 25.5295 100.247 25.7015C100.74 25.8734 102.014 25.5131 102.551 24.4596C102.551 24.4596 102.891 25.5971 104.326 24.9207C105.762 24.2442 105.291 24.0283 105.291 24.0283L107.209 24.0942C107.209 24.0942 106.481 21.9653 103.541 22.6587C103.541 22.6587 102.359 21.3182 100.851 22.8087C100.851 22.8087 99.4426 20.8457 97.8661 22.6727Z" fill="#D7A28E"/>
<path d="M97.8716 22.6925C97.939 22.7431 97.6673 23.065 97.4422 23.4987C97.2081 23.9307 97.1149 24.3107 97.0361 24.3094C96.9484 24.3122 96.9121 23.8702 97.169 23.395C97.4193 22.9168 97.8191 22.6469 97.8716 22.6925Z" fill="#C18C7C"/>
<path d="M100.852 22.7534C100.883 22.78 100.821 22.8745 100.732 23.0266C100.641 23.179 100.522 23.3927 100.394 23.6325C100.136 24.112 99.9235 24.5074 99.8435 24.4859C99.7659 24.4657 99.854 24.026 100.121 23.5272C100.255 23.2783 100.412 23.0639 100.556 22.9259C100.701 22.787 100.826 22.7293 100.852 22.7534Z" fill="#C18C7C"/>
<path d="M103.54 22.657C103.567 22.6878 103.484 22.7776 103.378 22.9298C103.273 23.0837 103.149 23.3063 103.033 23.5648C102.798 24.0812 102.654 24.5249 102.57 24.5129C102.491 24.5035 102.505 24.0239 102.753 23.4732C102.876 23.1988 103.046 22.9642 103.21 22.8214C103.376 22.6781 103.518 22.6315 103.54 22.657Z" fill="#C18C7C"/>
<path d="M61.3201 59.4739L60.7344 59.4433L60.7749 58.8887L62.0843 58.9572L61.801 62.8454L61.0773 62.8075L61.3201 59.4739Z" fill="#91C4F6"/>
<path d="M62.7685 62.3964C63.9099 61.6477 65.1007 61.003 65.1562 60.2405C65.1858 59.8351 64.9984 59.547 64.4633 59.5189C63.9596 59.4926 63.6671 59.7772 63.6164 60.2135L62.9239 60.1772C63.0104 59.3358 63.6825 58.9589 64.4945 59.0013C65.4265 59.05 65.9206 59.5522 65.8697 60.2508C65.8009 61.195 64.6153 61.8558 63.8372 62.3878L65.8328 62.4923L65.7958 62.9989L62.7363 62.8389L62.7685 62.3964Z" fill="#91C4F6"/>
<path d="M68.2074 59.1834C69.1203 59.2312 69.585 59.7053 69.5437 60.2706C69.5098 60.7346 69.1407 61.0312 68.7746 61.1138L68.7729 61.1351C69.2425 61.2828 69.5264 61.6351 69.487 62.1738C69.4419 62.7924 68.8916 63.2347 67.9348 63.1846C67.0659 63.1392 66.4203 62.72 66.4318 61.9549L67.1243 61.9911C67.1293 62.3556 67.4239 62.6493 67.9652 62.6777C68.5003 62.7057 68.785 62.4423 68.8115 62.0794C68.8489 61.5674 68.4712 61.3711 67.7222 61.3319L67.5584 61.3233L67.595 60.8219L67.765 60.8308C68.4138 60.8593 68.8222 60.72 68.8525 60.3042C68.877 59.9681 68.6352 59.7307 68.1441 59.705C67.6405 59.6786 67.3888 59.9223 67.3249 60.1921L66.6263 60.1555C66.7254 59.486 67.37 59.1395 68.2074 59.1834Z" fill="#91C4F6"/>
<path d="M72.4175 62.5847L70.1387 62.4656L70.172 62.007L72.4746 59.5469L73.3435 59.5924L73.1612 62.0939L73.7467 62.1245L73.7083 62.6524L73.1228 62.6218L73.0638 63.4326L72.3584 63.3957L72.4175 62.5847ZM72.4875 62.0585L72.6247 60.1757L71.002 61.9808L72.4875 62.0585Z" fill="#91C4F6"/>
<path d="M79.1211 59.8364L79.0822 60.3696L76.9733 60.2594L76.896 61.3208C77.0798 61.1377 77.4629 60.997 77.8723 61.0185C78.9989 61.0774 79.2936 61.8049 79.2508 62.3916C79.1944 63.1648 78.6293 63.7242 77.5654 63.6687C76.6209 63.6192 76.1056 63.1478 76.043 62.5342L76.7417 62.5708C76.8121 62.9064 77.1239 63.137 77.6086 63.1623C78.2254 63.1946 78.5286 62.8516 78.5636 62.3716C78.6006 61.865 78.3258 61.5613 77.7275 61.5301C77.3056 61.5081 77.008 61.6906 76.8673 61.9725L76.1876 61.9369L76.3512 59.6914L79.1211 59.8364Z" fill="#91C4F6"/>
<path d="M82.5893 60.931C82.5241 60.6117 82.3167 60.4242 81.8634 60.4004C81.2149 60.3665 80.854 60.7225 80.761 61.7401C81.011 61.4319 81.4768 61.285 81.955 61.3099C82.7798 61.3531 83.3309 61.8531 83.2719 62.6637C83.2183 63.3999 82.6552 63.9325 81.6729 63.8812C80.3383 63.8114 80.0499 62.9986 80.1401 61.7613C80.2289 60.5451 80.7607 59.8342 81.9066 59.8941C82.8006 59.9409 83.2127 60.4442 83.2503 60.9656L82.5893 60.931ZM80.7861 62.5232C80.7511 63.0033 81.0615 63.3408 81.672 63.3727C82.201 63.4004 82.5506 63.1132 82.5839 62.6548C82.6178 62.1907 82.3647 61.8455 81.7604 61.8138C81.2883 61.7891 80.8238 62.0059 80.7861 62.5232Z" fill="#91C4F6"/>
<path d="M87.1368 60.2818L87.1038 60.735L85.1044 64.0624L84.3805 64.0245L86.394 60.7622L84.0645 60.6403L84.1022 60.123L87.1368 60.2818Z" fill="#91C4F6"/>
<path d="M87.8066 61.2843C87.8478 60.7191 88.3805 60.2598 89.394 60.3128C90.4077 60.3658 90.8692 60.8823 90.8283 61.4423C90.7981 61.8584 90.4927 62.1475 90.11 62.283C90.5651 62.4565 90.8481 62.8194 90.8143 63.2835C90.7626 63.9929 90.0492 64.416 89.0987 64.3662C88.1544 64.3168 87.5079 63.8226 87.5595 63.1132C87.5938 62.6437 87.9276 62.3134 88.3976 62.1934C88.0193 62.0076 87.775 61.7164 87.8066 61.2843ZM88.2475 63.1279C88.2187 63.5224 88.5503 63.829 89.1356 63.8596C89.7148 63.8899 90.0825 63.6146 90.1108 63.2254C90.1427 62.788 89.7758 62.5332 89.2342 62.5048C88.7055 62.4772 88.2805 62.6745 88.2475 63.1279ZM90.1368 61.4811C90.1659 61.0811 89.8606 60.8456 89.3571 60.8194C88.8662 60.7938 88.5231 60.99 88.4932 61.4006C88.4675 61.7526 88.7895 62.021 89.2677 62.0461C89.7463 62.0711 90.1111 61.8331 90.1368 61.4811Z" fill="#91C4F6"/>
<path d="M95.0584 60.6112C96.3428 60.6784 96.633 61.5502 96.5521 62.6596C96.4697 63.7903 96.0551 64.6252 94.7707 64.558C93.4864 64.4909 93.1962 63.6191 93.2785 62.4883C93.3594 61.379 93.774 60.544 95.0584 60.6112ZM95.018 61.1658C94.1806 61.122 94.0366 61.7998 93.9837 62.5253C93.9281 63.2879 93.9738 63.9595 94.8112 64.0032C95.6486 64.047 95.7915 63.3853 95.847 62.6227C95.8999 61.8972 95.8554 61.2096 95.018 61.1658Z" fill="#91C4F6"/>
<path d="M99.0954 60.8202C100.38 60.8874 100.67 61.7592 100.589 62.8686C100.507 63.9993 100.092 64.8342 98.8078 64.767C97.5235 64.6999 97.2333 63.8281 97.3157 62.6974C97.3964 61.588 97.8111 60.753 99.0954 60.8202ZM99.055 61.3748C98.2177 61.331 98.0736 62.0087 98.0207 62.7342C97.9651 63.4969 98.0109 64.1685 98.8482 64.2122C99.6856 64.256 99.8285 63.5943 99.8841 62.8317C99.9369 62.1062 99.8923 61.4186 99.055 61.3748Z" fill="#91C4F6"/>
<path d="M103.133 61.0331C104.417 61.1002 104.707 61.972 104.626 63.0815C104.544 64.2121 104.129 65.047 102.845 64.9799C101.561 64.9127 101.27 64.0409 101.353 62.9103C101.434 61.8009 101.848 60.9659 103.133 61.0331ZM103.092 61.5877C102.255 61.5439 102.111 62.2216 102.058 62.9471C102.002 63.7097 102.048 64.3813 102.885 64.4251C103.723 64.4689 103.866 63.8072 103.921 63.0446C103.974 62.3191 103.929 61.6314 103.092 61.5877Z" fill="#91C4F6"/>
<path d="M105.98 61.8079L105.395 61.7773L105.435 61.2227L106.744 61.2912L106.461 65.1793L105.737 65.1415L105.98 61.8079Z" fill="#91C4F6"/>
<path d="M111.013 61.4432C112.298 61.5104 112.588 62.3821 112.507 63.4916C112.425 64.6223 112.01 65.4571 110.726 65.3901C109.441 65.3229 109.151 64.4511 109.234 63.3204C109.315 62.2109 109.729 61.3761 111.013 61.4432ZM110.973 61.9978C110.136 61.9541 109.992 62.6318 109.939 63.3573C109.883 64.1198 109.929 64.7914 110.766 64.8353C111.604 64.879 111.746 64.2173 111.802 63.4548C111.855 62.7292 111.81 62.0416 110.973 61.9978Z" fill="#91C4F6"/>
<path d="M113.857 62.22L113.271 62.1894L113.312 61.6348L114.621 61.7033L114.338 65.5914L113.614 65.5536L113.857 62.22Z" fill="#91C4F6"/>
<path d="M115.31 65.1444C116.451 64.3957 117.642 63.751 117.697 62.9884C117.727 62.583 117.539 62.2948 117.004 62.2669C116.501 62.2405 116.208 62.5251 116.157 62.9615L115.465 62.9253C115.551 62.0838 116.224 61.7068 117.036 61.7493C117.967 61.7981 118.462 62.3004 118.411 62.9989C118.342 63.9431 117.156 64.6038 116.378 65.136L118.374 65.2404L118.337 65.7469L115.277 65.587L115.31 65.1444Z" fill="#91C4F6"/>
<path d="M120.746 61.9314C121.659 61.9792 122.124 62.4534 122.083 63.0186C122.049 63.4826 121.68 63.7792 121.313 63.8619L121.312 63.8831C121.781 64.0309 122.065 64.3831 122.026 64.9218C121.981 65.5405 121.431 65.9828 120.474 65.9327C119.605 65.8872 118.959 65.468 118.971 64.703L119.663 64.7391C119.668 65.1037 119.963 65.3974 120.504 65.4257C121.04 65.4537 121.324 65.1903 121.351 64.8274C121.388 64.3155 121.01 64.1191 120.261 64.0799L120.097 64.0713L120.134 63.57L120.304 63.5788C120.953 63.6073 121.361 63.468 121.392 63.0522C121.416 62.7161 121.174 62.4787 120.683 62.4531C120.18 62.4268 119.928 62.6704 119.864 62.9401L119.165 62.9036C119.265 62.234 119.909 61.8877 120.746 61.9314Z" fill="#91C4F6"/>
<path d="M12.5188 31.3677L11.6797 42.8848L132.79 49.218L133.629 37.7009L12.5188 31.3677Z" fill="#2F627C"/>
<path d="M29.7223 41.1378L27.1172 41.0016L27.5192 35.4844L30.0023 35.6142C31.3798 35.6863 32.0639 36.3677 32.0072 37.1455C31.9585 37.8122 31.4511 38.1922 30.8093 38.3498C31.4954 38.4895 32.0148 39.1061 31.9668 39.7651C31.9053 40.6064 31.0525 41.2073 29.7223 41.1378ZM29.855 36.3475L28.5335 36.2784L28.4185 37.8583L29.7399 37.9274C30.4331 37.9636 30.8752 37.708 30.9122 37.2C30.9486 36.6995 30.548 36.3837 29.855 36.3475ZM29.7703 38.6701L28.3646 38.5966L28.2391 40.3192L29.6823 40.3948C30.4036 40.4325 30.8668 40.1459 30.9055 39.6139C30.9453 39.066 30.4821 38.7074 29.7703 38.6701Z" fill="#91C4F6"/>
<path d="M37.031 40.3877L34.3043 40.245L33.7538 41.3479L32.6387 41.2896L35.3744 35.8867L36.6111 35.9513L38.5421 41.5983L37.4175 41.5395L37.031 40.3877ZM35.9129 37.0142L34.6579 39.5226L36.785 39.6338L35.9129 37.0142Z" fill="#91C4F6"/>
<path d="M45.3112 36.4068L44.9087 41.9318L43.8406 41.8759L40.9269 37.5878L40.6266 41.7078L39.5586 41.652L39.9612 36.127L41.0293 36.1828L43.9436 40.463L44.2432 36.351L45.3112 36.4068Z" fill="#91C4F6"/>
<path d="M47.5664 39.5924L47.3865 42.0613L46.3184 42.0054L46.7204 36.4883L47.7885 36.5441L47.605 39.0605L50.3184 36.6764L51.6585 36.7465L48.6274 39.3612L51.3031 42.2662L49.9073 42.1932L47.5664 39.5924Z" fill="#91C4F6"/>
<path d="M58.0659 37.0117C59.4247 37.0828 60.5536 37.7236 60.9717 38.8294L59.688 38.7622C59.384 38.1565 58.7858 37.8462 58.008 37.8056C56.7152 37.7379 55.7216 38.4668 55.6308 39.7134C55.54 40.9596 56.4197 41.7946 57.7125 41.8623C58.4904 41.903 59.129 41.6574 59.5186 41.0879L60.8023 41.1551C60.2268 42.2089 59.0141 42.7191 57.6553 42.648C55.8188 42.552 54.4138 41.3152 54.5346 39.6562C54.6548 38.0048 56.2294 36.9157 58.0659 37.0117Z" fill="#91C4F6"/>
<path d="M65.9431 41.9014L63.2164 41.7588L62.6658 42.8616L61.5508 42.8033L64.2864 37.4004L65.5231 37.465L67.4536 43.112L66.3294 43.0532L65.9431 41.9014ZM64.8249 38.5279L63.57 41.0362L65.6971 41.1475L64.8249 38.5279Z" fill="#91C4F6"/>
<path d="M71.1194 37.764C72.6656 37.8448 73.3697 38.6388 73.3044 39.5358C73.257 40.1867 72.7938 40.8638 71.6806 41.0366L73.1258 43.4071L71.8514 43.3406L70.5129 41.0554L69.6977 41.0128L69.5369 43.2195L68.4688 43.1636L68.8708 37.6465L71.1194 37.764ZM71.0657 38.5021L69.885 38.4404L69.7502 40.29L70.9309 40.3517C71.7648 40.3954 72.1681 40.0262 72.2081 39.4783C72.2485 38.9228 71.8996 38.5458 71.0657 38.5021Z" fill="#91C4F6"/>
<path d="M80.1805 41.0276C80.0567 42.7263 78.613 43.6947 76.5236 43.5854L74.3965 43.4742L74.7985 37.957L76.9257 38.0683C79.015 38.1775 80.3048 39.3208 80.1805 41.0276ZM76.5775 42.8472C78.1141 42.9276 78.9932 42.2245 79.0845 40.9701C79.1765 39.7081 78.4085 38.8867 76.8719 38.8063L75.813 38.751L75.5185 42.7919L76.5775 42.8472Z" fill="#91C4F6"/>
<path d="M50.2835 66.3648C50.2327 67.0622 49.5218 67.5961 48.6965 67.5529L26.9111 66.4135C26.0898 66.3705 25.458 65.7665 25.5087 65.0691L26.2969 54.2511C26.3477 53.5553 27.0626 53.0201 27.8839 53.063L49.6693 54.2024C50.4944 54.2456 51.1224 54.851 51.0717 55.5469L50.2835 66.3648Z" fill="#91C4F6"/>
<path d="M137.715 26.8258C137.978 26.6608 145.036 25.4781 145.407 25.5394C145.778 25.6007 146.491 27.5075 146.763 28.1028C147.035 28.6981 145.285 31.034 144.366 31.4088C143.448 31.7834 141.365 31.0053 140.739 30.6016C140.739 30.6016 139.347 31.6681 137.854 31.6681C136.362 31.6681 136.501 27.5858 137.715 26.8258Z" fill="#DBA12C"/>
<path d="M148.374 18.3549C149.555 18.2855 150.446 17.4184 150.365 16.4176C150.33 15.992 150.12 15.5904 149.771 15.2829C150.638 15.1621 151.404 14.6952 151.53 13.8904C151.656 13.0855 151.006 12.3769 150.08 12.1535C150.08 12.1535 150.08 12.1535 150.08 12.1639C150.887 12.4424 151.501 13.0997 151.371 13.8678C151.257 14.523 150.723 14.8917 150.068 15.074C150.602 14.7481 150.952 14.2489 151.035 13.6956C151.101 13.0717 150.72 12.4748 150.068 12.1803C150.457 11.5658 150.616 10.7815 150.24 10.1322C149.929 9.57287 149.257 9.22231 148.528 9.23947C148.884 8.32777 148.299 7.34452 147.223 7.04309C146.72 6.90213 146.171 6.93176 145.693 7.12615C145.892 6.33738 145.299 5.5614 144.368 5.39255C144.125 5.34839 143.873 5.34956 143.631 5.39538C143.641 5.01216 143.387 4.65877 142.98 4.49031C142.505 4.31942 141.968 4.31503 141.489 4.47803C141.252 4.13342 140.823 3.91495 140.353 3.89848C139.735 3.8939 139.205 4.26941 139.101 4.7854C138.313 4.5681 137.421 4.42695 136.637 4.72165C135.994 4.96352 135.479 5.50007 135.508 6.11014C134.157 5.89782 132.857 6.65392 132.606 7.79939C132.588 7.88352 132.575 7.96823 132.569 8.05373C131.948 8.11612 131.414 8.45411 131.167 8.94066C130.983 9.26286 130.896 9.61897 130.914 9.97694C130.359 10.0683 129.937 10.4492 129.862 10.9232C129.811 11.3612 129.995 11.7956 130.362 12.1067C130.386 12.2319 130.376 12.36 130.333 12.4815C130.115 13.101 130.276 13.772 130.763 14.2695C130.296 14.8779 130.499 15.6923 131.217 16.0885C131.273 16.1195 131.332 16.1474 131.392 16.1717C131.143 16.9495 131.674 17.7529 132.586 17.9802C132.439 18.5937 132.615 19.2312 133.07 19.7252C133.422 20.1018 134.01 20.3927 134.568 20.2472C134.522 20.6239 134.955 20.9231 135.383 20.9804C135.543 20.9987 135.705 21.002 135.866 20.9908C136.073 20.9527 136.285 20.945 136.495 20.9681C136.693 21.0174 136.819 21.1874 136.978 21.2979C137.085 21.3762 137.201 21.4448 137.324 21.5025C138.281 21.938 139.466 21.7505 140.174 21.0521C140.744 21.474 141.561 21.3837 142.212 21.1238C142.419 21.034 142.617 20.9291 142.804 20.8104C142.964 20.6942 143.162 20.6228 143.372 20.6057C143.507 20.6057 143.645 20.6239 143.783 20.6199C144.249 20.6076 144.588 20.3557 144.885 20.0792C146.461 21.1623 148.451 19.9214 148.374 18.3549ZM130.002 11.15C129.993 10.6527 130.354 10.204 130.904 10.0299C130.904 10.0667 130.904 10.0913 130.904 10.0913C130.904 10.0913 130.751 10.1898 130.684 10.2429C130.562 10.3441 130.459 10.4601 130.377 10.587C130.202 10.851 130.124 11.1532 130.152 11.4552C130.169 11.5881 130.205 11.7185 130.259 11.8444C130.265 11.8597 130.271 11.8754 130.276 11.8914C130.108 11.6697 130.017 11.413 130.012 11.1499L130.002 11.15ZM140.575 4.24026C140.022 4.16959 139.475 4.39955 139.207 4.81591H139.164C139.355 4.35909 139.678 3.99674 140.339 3.99674C140.753 4.01117 141.127 4.21169 141.32 4.52297C141.111 4.37167 140.857 4.2739 140.585 4.24026H140.575ZM144.926 20.034L144.941 20.0217C146.135 20.4598 147.524 20.0178 148.083 19.0224C147.595 20.118 146.41 20.8165 144.946 20.0279L144.926 20.034Z" fill="#11405C"/>
<path d="M139.117 28.7916C140.9 29.064 145.123 26.5094 144.678 25.3443C144.268 24.2746 143.94 21.2599 143.869 18.8262L137.543 22.6441C137.585 23.1944 137.128 28.4896 139.117 28.7916Z" fill="#D7A28E"/>
<path d="M131.491 19.2041C130.776 21.7249 134.468 23.851 136.073 24.1312C136.509 24.2067 143.587 22.2307 144.176 19.1263C144.55 17.1481 145.732 12.7011 141.64 11.4053C140.569 11.0661 133.025 9.60229 133.08 13.1696C133.123 15.9853 132.326 16.2654 131.491 19.2041Z" fill="#D7A28E"/>
<path d="M136.075 24.1312C136.085 24.2528 137.396 24.2894 138.913 23.8118C139.667 23.5764 140.296 23.2289 140.68 22.9124C141.067 22.5925 141.198 22.3218 141.136 22.2845C141.067 22.2393 140.831 22.4147 140.419 22.6344C140.004 22.8543 139.408 23.1213 138.701 23.3418C137.293 23.7881 136.051 23.9781 136.075 24.1312Z" fill="#C18C7C"/>
<path d="M143.805 18.8653C145.514 19.9353 147.2 16.5029 145.617 15.8053C145.16 15.6036 144.231 15.4762 143.924 16.2594C143.593 17.1046 143.431 18.6308 143.805 18.8653Z" fill="#D7A28E"/>
<path d="M145.125 16.4277C144.718 16.6586 143.942 17.4749 144.361 18.1477C144.361 18.1477 144.389 17.7117 144.683 17.4609L145.39 17.2309L144.706 17.1527L145.125 16.4277Z" fill="#11405C"/>
<path d="M136.421 16.677C136.732 16.8007 135.65 17.741 136.267 17.8767C136.884 18.0122 135.848 18.1602 135.756 17.7322C135.663 17.3043 136.145 16.5674 136.421 16.677Z" fill="#11405C"/>
<path d="M138.591 16.0261C138.427 16.3181 138.556 16.6602 138.878 16.7897C139.201 16.9193 139.595 16.7877 139.758 16.4954C139.922 16.2033 139.793 15.8611 139.471 15.7315C139.148 15.6019 138.754 15.7337 138.591 16.0261Z" fill="#11405C"/>
<path d="M138.746 15.9346C138.699 16.0342 138.74 16.1413 138.837 16.1743C138.935 16.207 139.052 16.1532 139.099 16.0539C139.145 15.9544 139.104 15.847 139.007 15.8142C138.91 15.7816 138.792 15.8354 138.746 15.9346Z" fill="white"/>
<path d="M141.445 15.6358C141.623 15.6816 141.863 15.287 141.716 15.1907C141.716 15.1907 139.118 13.861 138.611 14.156C138.611 14.156 138.495 14.4442 138.511 14.5421C138.536 14.6964 138.739 14.9063 139.032 14.9814L141.445 15.6358Z" fill="#11405C"/>
<path d="M134.112 15.3266C134.093 15.6497 134.365 15.9245 134.722 15.9401C135.078 15.956 135.383 15.7069 135.403 15.3837C135.423 15.0606 135.15 14.7861 134.794 14.7702C134.437 14.7546 134.132 15.0037 134.112 15.3266Z" fill="#11405C"/>
<path d="M134.217 15.1937C134.218 15.3005 134.305 15.3863 134.409 15.3853C134.514 15.3842 134.598 15.2966 134.597 15.1898C134.595 15.0826 134.509 14.997 134.404 14.9981C134.299 14.9989 134.215 15.0866 134.217 15.1937Z" fill="white"/>
<path d="M133.843 14.011C133.707 13.9955 133.693 13.7007 133.809 13.6633C133.809 13.6633 135.954 13.389 136.072 13.6141C136.072 13.6141 136.143 13.8979 136.125 13.9773C136.097 14.1021 135.931 14.2196 135.705 14.1938L133.843 14.011Z" fill="#11405C"/>
<path d="M137.373 20.0952C135.348 20.2892 135.175 19.6448 134.332 19.612C133.871 19.5942 133.608 19.9169 133.742 20.2364C133.742 20.2364 134.382 21.7394 136.734 21.3333C138.217 21.0776 137.82 20.0526 137.373 20.0952Z" fill="white"/>
<path d="M144.103 14.104C142.402 14.3262 142.464 14.0275 141.596 12.6086C139.777 13.0384 138.204 12.6701 137.975 11.566C137.056 12.532 136.128 13.0688 134.524 12.054C133.914 12.8388 132.633 12.1175 132.645 11.6272C132.672 10.5233 135.585 8.01623 142.131 9.62631C147.93 11.0524 144.584 16.9082 143.746 16.839C142.908 16.7701 144.263 14.7787 144.103 14.104Z" fill="#11405C"/>
<path d="M164.429 45.1738C164.429 45.1738 170.598 55.2726 170.735 56.8201C170.872 58.3674 162.165 59.5388 160.733 57.6951C160.163 56.9615 155.156 49.6789 155.156 49.6789L164.429 45.1738Z" fill="#D7A28E"/>
<path d="M150.582 28.1973L154.521 28.5982C154.521 28.5982 166.012 44.9677 168.312 48.5934C164.148 50.9156 160.05 51.5495 156.427 52.2401C153.291 48.2664 153.186 47.7407 151.494 44.7536C148.385 37.5192 150.582 28.1973 150.582 28.1973Z" fill="#F2CD33"/>
<path d="M149.748 37.4199C149.926 38.9117 153.617 49.5293 156.212 51.9691C156.212 51.9691 152.977 49.9305 151.715 46.0477C150.434 42.1072 149.748 37.4199 149.748 37.4199Z" fill="#DBA12C"/>
<path d="M133.675 45.1738C132.727 45.2247 132.79 46.0422 132.79 46.0422L132.98 48.5419L125.902 46.491C125.902 46.491 125.329 46.9844 125.692 47.3605C125.858 47.5327 129.205 48.8386 129.205 48.8386L124.477 47.4719C124.477 47.4719 123.952 48.0739 124.388 48.3127C124.597 48.427 128.668 50.2675 128.668 50.2675L124.299 48.9251C124.299 48.9251 124.17 49.7332 124.331 49.8222C125.162 50.2808 128.287 51.6656 128.287 51.6656L125.144 50.58C125.144 50.58 124.73 51.1976 125.382 51.4395C126.165 51.7287 129.75 53.4816 131.058 53.7325C132.772 54.0613 137.478 56.1576 137.478 56.1576C137.478 56.1576 139.688 51.6064 139.905 51.2393C139.257 51.0131 136.958 50.1792 136.958 50.1792C135.643 48.7491 135.339 47.2794 133.675 45.1738Z" fill="#D7A28E"/>
<path d="M136.957 50.1777C136.957 50.1777 161.172 54.1849 162.281 54.1606C163.39 54.1361 171.35 55.5933 170.737 57.3623C170.125 59.1313 169.511 65.4137 164.706 64.7434C153.436 63.1706 134.494 54.9207 134.494 54.9207L137.195 50.4522" fill="#D7A28E"/>
<path d="M149.133 52.2402C149.133 52.2402 161.98 53.6506 165.985 54.77C165.985 54.77 159.802 55.6268 149.133 52.2402Z" fill="#C18C7C"/>
<path d="M129.875 49.0092C129.846 49.076 129.361 48.9864 128.79 48.81C128.22 48.6332 127.781 48.436 127.81 48.3697C127.838 48.3031 128.324 48.3925 128.894 48.5693C129.464 48.7459 129.903 48.9428 129.875 49.0092Z" fill="#C18C7C"/>
<path d="M129.416 50.4839C129.384 50.5491 128.931 50.4511 128.405 50.2648C127.879 50.0786 127.479 49.8746 127.512 49.8093C127.544 49.744 127.996 49.842 128.522 50.0285C129.048 50.2148 129.448 50.4186 129.416 50.4839Z" fill="#C18C7C"/>
<path d="M129.12 51.8974C129.09 51.9635 128.707 51.9003 128.264 51.7564C127.822 51.6123 127.488 51.4419 127.517 51.3758C127.548 51.3097 127.93 51.3729 128.373 51.5173C128.815 51.6611 129.149 51.8315 129.12 51.8974Z" fill="#C18C7C"/>
<path d="M129.298 51.324C129.365 51.3756 129.236 51.5589 129.176 51.7826C129.108 52.0066 129.129 52.2074 129.054 52.2355C128.979 52.272 128.791 52.0352 128.881 51.7225C128.974 51.4105 129.249 51.2757 129.298 51.324Z" fill="#C18C7C"/>
<path d="M129.587 49.9998C129.653 50.0514 129.525 50.2343 129.464 50.4584C129.396 50.6824 129.418 50.8832 129.343 50.9113C129.268 50.9477 129.08 50.711 129.17 50.3982C129.262 50.0863 129.538 49.9515 129.587 49.9998Z" fill="#C18C7C"/>
<path d="M130.011 48.6033C130.078 48.6549 129.949 48.8382 129.889 49.0619C129.82 49.2857 129.842 49.4865 129.767 49.5148C129.692 49.5511 129.504 49.3145 129.594 49.0018C129.686 48.6898 129.962 48.555 130.011 48.6033Z" fill="#C18C7C"/>
<path d="M164.141 18.0232C166.946 18.0232 169.22 16.0969 169.22 13.7206C169.22 11.3443 166.946 9.41797 164.141 9.41797C161.336 9.41797 159.062 11.3443 159.062 13.7206C159.062 16.0969 161.336 18.0232 164.141 18.0232Z" fill="#F2CD33"/>
<path d="M163.955 15.3517C163.591 15.3213 163.192 15.1798 162.924 14.9678L163.234 14.5738C163.514 14.7608 163.794 14.887 164.116 14.887C164.504 14.887 164.694 14.7254 164.694 14.4527C164.694 13.7859 163.073 13.8819 163.073 12.9323C163.073 12.4626 163.419 12.1293 163.955 12.0485V11.5332H164.432V12.0384C164.814 12.0787 165.076 12.2354 165.297 12.4322L164.945 12.7707C164.724 12.599 164.54 12.503 164.253 12.503C163.931 12.503 163.735 12.6445 163.735 12.907C163.735 13.5132 165.356 13.3919 165.356 14.4122C165.356 14.892 165.022 15.2457 164.432 15.3366V15.8568H163.955L163.955 15.3517Z" fill="#DBA12C"/>
<path d="M27.6287 85.0676C28.2046 87.8858 25.9749 90.5658 22.6485 91.0537C19.3221 91.5416 16.1587 89.6526 15.5828 86.8344C15.0069 84.0162 17.2366 81.3361 20.563 80.8482C23.8894 80.3603 27.0528 82.2494 27.6287 85.0676Z" fill="#F2CD33"/>
<path d="M21.7821 87.9163C21.3432 87.9435 20.8355 87.8452 20.4658 87.6405L20.7382 87.1193C21.1157 87.2922 21.4785 87.3932 21.8604 87.3372C22.3198 87.2698 22.5069 87.045 22.4408 86.7216C22.2792 85.9307 20.3794 86.3267 20.1492 85.2004C20.0354 84.6435 20.3648 84.1879 20.9817 83.9988L20.8567 83.3877L21.4224 83.3047L21.5448 83.9039C22.007 83.8854 22.3559 84.0255 22.6652 84.2205L22.3302 84.6832C22.027 84.5179 21.7846 84.4361 21.4452 84.4859C21.0633 84.542 20.8644 84.744 20.928 85.0553C21.075 85.7743 22.9686 85.3483 23.2159 86.5584C23.3322 87.1274 23.0219 87.6049 22.3441 87.8153L22.4702 88.4323L21.9045 88.5153L21.7821 87.9163Z" fill="#DBA12C"/>
<path d="M200.746 125.102C201.507 128.83 198.558 132.375 194.157 133.021C189.756 133.666 185.571 131.167 184.809 127.439C184.047 123.711 186.997 120.165 191.398 119.52C195.799 118.874 199.984 121.373 200.746 125.102Z" fill="#F2CD33"/>
<path d="M193.01 128.873C192.43 128.908 191.758 128.778 191.269 128.508L191.629 127.818C192.128 128.047 192.608 128.18 193.114 128.106C193.721 128.017 193.969 127.72 193.882 127.292C193.668 126.246 191.154 126.769 190.85 125.279C190.699 124.543 191.135 123.94 191.951 123.69L191.786 122.881L192.534 122.771L192.696 123.564C193.308 123.54 193.769 123.725 194.179 123.983L193.735 124.595C193.334 124.377 193.013 124.268 192.564 124.334C192.059 124.408 191.796 124.675 191.88 125.087C192.075 126.039 194.58 125.475 194.907 127.076C195.061 127.829 194.65 128.46 193.754 128.739L193.92 129.555L193.172 129.665L193.01 128.873Z" fill="#DBA12C"/>
<path d="M100.905 95.6523L90.5391 99.5426L91.0822 103.788L99.8407 120.548L101.247 120.026L111.609 116.136L113.01 115.609L104.246 98.852L100.905 95.6523ZM97.1742 100.385C96.5665 100.613 95.8564 100.376 95.585 99.8636C95.3161 99.3447 95.5863 98.7386 96.2007 98.5083C96.8058 98.2816 97.5267 98.5118 97.7997 99.0305C98.0644 99.5496 97.7886 100.155 97.1742 100.385Z" fill="#FFC439"/>
<path d="M98.8805 105.247L98.5198 104.559L99.9271 104.033L100.293 104.718C101.626 104.477 102.67 105.036 103.324 106.297L103.479 106.586L101.846 107.2L101.642 106.817C101.297 106.15 100.85 106.015 100.306 106.223C99.7578 106.426 99.5767 106.797 99.9205 107.462C100.92 109.37 104.342 108.198 105.728 110.861C106.382 112.118 106.163 113.172 105.053 113.84L105.41 114.519L103.998 115.049L103.64 114.369C102.291 114.621 101.246 114.046 100.588 112.785L100.26 112.146L101.883 111.54L102.263 112.267C102.613 112.93 103.083 113.043 103.627 112.835C104.178 112.63 104.4 112.262 104.052 111.597C103.053 109.684 99.6322 110.857 98.2492 108.202C97.5934 106.954 97.7897 105.927 98.8805 105.247Z" fill="#DBA12C"/>
<path d="M84.2313 5.02734L80.3496 21.9607C80.3496 21.9607 92.9222 27.3496 93.3804 26.9596C93.8385 26.5696 101.775 10.5573 101.775 10.5573L84.2313 5.02734Z" fill="#F2CD33"/>
<path d="M90.6653 12.4984C91.5395 12.8203 91.8781 13.4824 91.2541 14.2723C90.6394 15.0655 89.6621 15.2432 88.7879 14.9213C87.9045 14.5961 87.566 13.934 88.1808 13.1408C88.8047 12.3509 89.7911 12.1766 90.6653 12.4984ZM93.5607 13.657L95.079 14.216L87.571 17.9765L86.0527 17.4175L93.5607 13.657ZM89.2758 13.5439C89.0182 13.8753 89.0631 14.0865 89.3391 14.1882C89.6152 14.2898 89.9108 14.204 90.1683 13.8725C90.4259 13.541 90.3718 13.3265 90.0957 13.2249C89.8198 13.1232 89.5334 13.2124 89.2758 13.5439ZM92.362 16.7191C93.2363 17.0409 93.5656 17.6997 92.9417 18.4895C92.327 19.2827 91.3497 19.4606 90.4755 19.1387C89.6015 18.8168 89.2628 18.1547 89.8867 17.3648C90.5014 16.5716 91.4879 16.3972 92.362 16.7191ZM90.9633 17.7611C90.7057 18.0926 90.7506 18.3037 91.0359 18.4088C91.3028 18.507 91.5983 18.4213 91.8559 18.0897C92.1135 17.7582 92.0594 17.5437 91.7926 17.4454C91.5164 17.3439 91.2209 17.4296 90.9633 17.7611Z" fill="#DBA12C"/>
<path d="M170.98 27.4758L180.308 46.6038C180.308 46.6038 197.102 44.9568 197.256 44.3097C197.41 43.6627 192.861 23.1855 192.861 23.1855L170.98 27.4758Z" fill="#F2CD33"/>
<path d="M183.254 31.3521C184.38 31.1846 185.236 31.658 185.228 32.7982C185.231 33.9367 184.391 34.662 183.265 34.8295C182.127 34.9986 181.271 34.5253 181.268 33.3868C181.276 32.2466 182.127 31.5195 183.254 31.3521ZM187.057 30.8904L189.013 30.5996L184.431 38.5701L182.474 38.8609L187.057 30.8904ZM182.678 33.177C182.679 33.6532 182.889 33.8395 183.245 33.7866C183.6 33.7337 183.829 33.4823 183.828 33.0061C183.828 32.5299 183.606 32.3454 183.25 32.3983C182.895 32.4512 182.678 32.7009 182.678 33.177ZM188.246 34.6274C189.373 34.4599 190.216 34.9351 190.208 36.0752C190.212 37.2137 189.372 37.9391 188.246 38.1065C187.119 38.2739 186.264 37.8006 186.272 36.6604C186.268 35.5219 187.12 34.7948 188.246 34.6274ZM187.659 36.4542C187.66 36.9304 187.87 37.1166 188.237 37.062C188.581 37.0109 188.81 36.7594 188.809 36.2833C188.808 35.8071 188.587 35.6226 188.243 35.6737C187.887 35.7266 187.658 35.978 187.659 36.4542Z" fill="#DBA12C"/>
</g>
<defs>
<clipPath id="clip0_63_3768">
<rect width="230" height="190" fill="white"/>
</clipPath>
</defs>
</svg>
