<svg width="230" height="190" viewBox="0 0 230 190" fill="none" xmlns="http://www.w3.org/2000/svg">
<g clip-path="url(#clip0_63_3881)">
<path d="M101.476 90.9692C119.537 88.5223 132.133 72.9116 129.609 56.1016C127.085 39.2916 110.397 27.648 92.3356 30.0949C74.2744 32.5418 61.679 48.1526 64.203 64.9625C66.7271 81.7725 83.4148 93.4161 101.476 90.9692Z" fill="#DC952D"/>
<path d="M104.38 90.6763C122.442 88.2294 135.037 72.6186 132.513 55.8086C129.989 38.9986 113.301 27.3551 95.2399 29.8019C77.1787 32.2488 64.5833 47.8596 67.1073 64.6696C69.6314 81.4796 86.3191 93.1231 104.38 90.6763Z" fill="#FCC84E"/>
<path d="M67.0293 63.595C81.0692 52.6113 95.1092 41.6438 109.166 30.6602C111.182 31.228 113.573 32.0879 116.118 33.402C117.587 34.1646 118.868 34.9595 119.978 35.7383L70.9065 74.8058C70.9065 74.8058 67.3026 71.0419 67.0293 63.595Z" fill="#FEF04F"/>
<path d="M81.9609 86.1975C98.0847 73.5589 114.208 60.9042 130.315 48.2656C130.998 49.8394 131.664 51.7376 132.143 53.9116C132.382 55.0311 132.553 56.1019 132.672 57.0915C118.888 68.059 105.105 79.0427 91.3209 90.0101C90.2619 89.7668 89.1005 89.4261 87.8878 89.0043C85.5136 88.1606 83.5494 87.1547 81.9609 86.1975Z" fill="#F59E1B"/>
<path d="M100.064 83.9897C113.761 83.9897 124.865 73.4427 124.865 60.4323C124.865 47.422 113.761 36.875 100.064 36.875C86.3672 36.875 75.2637 47.422 75.2637 60.4323C75.2637 73.4427 86.3672 83.9897 100.064 83.9897Z" fill="#D2753F"/>
<path d="M104.803 82.7602C117.765 81.0041 126.771 69.5776 124.918 57.2385C123.066 44.8993 111.056 36.3201 98.0933 38.0762C85.131 39.8323 76.125 51.2587 77.9778 63.5979C79.8305 75.937 91.8405 84.5163 104.803 82.7602Z" fill="#FDAA40"/>
<path d="M99.9285 50.5675C99.9285 50.5675 102.115 51.1678 103.31 51.8654C104.506 52.5631 106.778 51.8492 106.265 49.7563C105.753 47.6634 103.498 46.8846 102.081 46.625C100.663 46.3655 99.9968 46.3655 99.9968 46.3655L99.604 46.2843L99.2111 43.7209C99.2111 43.7209 98.4596 43.1044 97.059 42.9746C95.6585 42.8448 95.0436 44.3699 95.0436 44.3699L95.556 47.1929C95.556 47.1929 88.6214 49.0749 89.6633 55.0778C90.7052 61.0807 96.8541 60.8373 96.8541 60.8373C96.8541 60.8373 105.206 59.5232 106.077 64.3255C106.948 69.1278 102.508 70.8962 100.441 70.5069C98.3742 70.1175 96.1367 70.3284 94.4628 67.4405C92.789 64.5526 90.2269 67.4243 90.2099 67.9759C90.1928 68.5275 92.0374 72.5511 95.0606 73.995C95.0606 73.995 96.632 74.6764 97.8276 74.7089C99.0233 74.7251 99.3819 74.5953 99.3819 74.5953L99.8944 77.6455C99.8944 77.6455 100.202 78.0997 101.893 78.2782C103.584 78.4567 104.233 77.1101 104.233 77.1101L103.806 73.9139C103.806 73.9139 109.084 73.2487 110.706 66.1101C112.329 58.9716 104.13 56.4893 100.97 56.6353C97.8106 56.7975 94.1896 57.7385 94.2408 53.5689C94.2579 52.9687 95.9317 50.1619 99.9285 50.5675Z" fill="#D2753F"/>
<path d="M101.567 50.421C101.567 50.421 103.753 51.0213 104.949 51.7189C106.145 52.4166 108.416 51.7027 107.904 49.6098C107.392 47.5169 105.137 46.7382 103.719 46.4786C102.302 46.219 101.636 46.219 101.636 46.219L101.243 46.1379L100.85 43.5745C100.85 43.5745 100.098 42.9579 98.6977 42.8282C97.2971 42.6984 96.6822 44.2234 96.6822 44.2234L97.1946 47.0464C97.1946 47.0464 90.2601 48.9284 91.302 54.9313C92.3439 60.9342 98.4927 60.6908 98.4927 60.6908C98.4927 60.6908 106.845 59.3767 107.716 64.179C108.587 68.9813 104.146 70.7498 102.08 70.3604C100.013 69.971 97.7754 70.1819 96.1015 67.294C94.4277 64.4062 91.8656 67.2778 91.8485 67.8294C91.8315 68.3811 93.6761 72.4046 96.6993 73.8486C96.6993 73.8486 98.2707 74.53 99.4663 74.5624C100.662 74.5787 101.021 74.4489 101.021 74.4489L101.533 77.499C101.533 77.499 101.84 77.9533 103.531 78.1317C105.222 78.3102 105.871 76.9636 105.871 76.9636L105.444 73.7674C105.444 73.7674 110.722 73.1023 112.345 65.9637C113.985 58.8413 105.769 56.3428 102.609 56.4888C99.4492 56.6511 95.8282 57.5921 95.8795 53.4225C95.8795 52.8222 97.5533 50.0154 101.567 50.421Z" fill="#FECB51"/>
<path d="M122.457 168.649L123.67 174.148L124.011 176.988L129.887 176.631C129.887 176.631 129.289 169.427 128.691 167.74C128.094 166.053 122.457 168.649 122.457 168.649Z" fill="#FEABB5"/>
<path d="M166.387 161.397L171.238 162.209L171.17 168.098L162.988 167.206L164.508 162.209L164.73 161.057L166.387 161.397Z" fill="#FEABB5"/>
<path d="M123.412 32.1723C123.566 34.2652 123.737 36.3581 123.89 38.451C124.352 39.1324 124.813 39.8138 125.291 40.4952C128.553 40.333 131.816 40.187 135.061 40.0248L134.873 39.538L131.525 30.6797L123.412 32.1723Z" fill="#FEABB5"/>
<path d="M124.438 38.9062C124.438 38.9062 125.855 39.1009 127.905 39.4416C129.954 39.7823 131.987 39.7175 132.687 39.5877C133.388 39.4579 134.822 39.247 134.822 39.247L135.078 40.0257C135.078 40.0257 127.58 40.3664 127.392 40.3664C127.205 40.3664 125.411 39.7499 125.411 39.7499L124.438 38.9062Z" fill="#FE8D90"/>
<path d="M123.909 38.4531C123.858 38.5667 123.807 38.7127 123.824 38.9074C123.875 39.4266 124.456 39.7673 124.626 39.8646C124.695 39.9133 125.429 40.8056 126.898 42.574C126.898 42.574 128.316 44.2938 129.802 47.5224C131.219 50.605 132.91 57.9382 132.364 67.4131C132.227 69.8467 131.459 79.4027 127.291 88.6666C126.539 90.3377 125.873 91.6194 125.429 92.4468C123.209 96.6488 118.512 104.29 118.512 104.29C118.512 104.29 119.588 106.805 130.092 105.734C140.596 104.664 142.663 102.165 142.663 102.165L142.766 101.776L141.587 70.593L135.336 39.605C134.106 39.9133 132.244 40.2378 129.973 40.0755C127.223 39.8808 125.139 39.0372 123.909 38.4531Z" fill="white"/>
<path d="M117.042 93.5481C117.042 93.5481 96.1705 124.779 95.2652 132.064C94.36 139.349 97.5369 141.133 98.9033 142.48C100.27 143.826 122.354 170.45 122.354 170.45C122.354 170.45 125.907 171.05 128.486 170.45C131.065 169.85 131.441 168.584 131.441 168.584C131.441 168.584 114.122 138.683 113.712 134.563C113.251 130.101 124.489 114.364 124.489 114.364C124.489 114.364 131.185 146.601 131.629 148.613C132.073 150.624 163.33 170.142 163.33 170.142C163.33 170.142 165.38 168.958 167.344 165.599C169.308 162.257 169.308 159.645 169.308 159.645L144.337 142.415C144.337 142.415 147.975 118.03 147.975 108.945C147.975 108.945 147.821 105.457 147.599 104.191C147.377 102.926 135.199 95.0407 126.795 93.1911C118.392 91.3254 117.042 93.5481 117.042 93.5481Z" fill="#4F2926"/>
<path d="M128.384 9.63571C128.162 9.31123 121.552 14.438 119.366 20.1489C117.179 25.8598 118.563 30.2727 121.774 31.5544C124.985 32.8361 128.743 31.9438 129.938 31.4246C131.151 30.9055 134.225 29.4453 134.362 29.0721C134.499 28.6828 135.694 29.494 137.522 28.2123C139.349 26.9306 139.264 25.5028 138.051 23.9291L137.334 23.0206C137.334 23.0206 139.213 18.8023 139.315 17.3421C139.418 15.8982 138.41 15.4764 137.3 15.1194C136.224 14.7625 131.407 14.2433 128.384 9.63571Z" fill="#FEABB5"/>
<path d="M127.58 9.3125C127.58 9.3125 127.307 10.0264 128.024 11.1945C128.742 12.3626 130.928 14.2122 132.841 14.8287C134.754 15.4452 137.863 15.4776 137.982 16.4998C138.102 17.5219 137.589 19.7121 137.419 20.2475C137.231 20.7829 137.419 22.5513 137.419 22.5513C137.419 22.5513 139.724 18.6576 139.724 18.2033C139.724 17.749 140.237 15.8184 138.563 14.8774C136.889 13.9364 133.815 13.6281 133.695 13.5632C133.558 13.5145 127.58 9.3125 127.58 9.3125Z" fill="#FE8D90"/>
<path d="M129.717 0.681411C129.717 0.681411 126.711 2.90411 126.438 6.60319C126.181 10.3023 131.015 13.3037 132.757 13.9365C134.499 14.5854 137.471 15.1857 137.471 15.1857C137.471 15.1857 139.043 15.9645 138.787 17.7654C138.53 19.5662 137.01 22.9246 137.01 22.9246C137.01 22.9246 139.248 24.7092 138.36 26.8346C137.471 28.96 134.824 29.0248 134.243 28.8302C134.243 28.8302 132.604 29.9658 132.057 30.2417C132.057 30.2417 133.116 31.8478 138.701 30.3066C144.286 28.7653 146.592 23.8169 147.173 22.2756C147.754 20.7344 148.249 16.0294 145.431 13.3686C142.613 10.7079 140.682 11.2108 141.007 7.25216C141.331 3.29349 138.12 3.32593 137.933 3.32593C137.745 3.32593 133.731 4.05602 133.731 4.05602C133.731 4.05602 132.262 3.19614 131.784 1.80087C131.305 0.405602 130.434 0 130.434 0L129.717 0.681411Z" fill="#4F2926"/>
<path d="M138.343 97.7195C138.343 97.7195 137.745 105.507 140.802 109.644C143.86 113.798 147.378 113.619 147.378 113.619C147.378 113.619 148.454 104.874 146.951 102.489C145.448 100.104 138.035 97.541 138.035 97.541L138.343 97.7195Z" stroke="white" stroke-width="3" stroke-miterlimit="10"/>
<path d="M135.32 39.6029C135.32 39.6029 141.52 37.7858 146.678 42.8153C151.819 47.8285 157.609 55.535 160.103 67.6381C162.597 79.7413 160.291 90.0273 157.422 94.278C154.535 98.5287 151.136 101.871 148.523 103.607C145.91 105.343 145.91 105.343 145.91 105.343C145.91 105.343 141.793 102.13 140.871 95.6895C139.949 89.2486 141.588 86.0362 141.588 86.0362L135.081 40.0248C135.081 40.0248 135.012 39.5705 135.32 39.6029Z" fill="#5670C4"/>
<path d="M136.445 81.411C137.146 81.2001 143.346 79.9995 147.479 75.4405C151.613 70.8816 152.842 59.3949 151.749 53.6516C150.656 47.9083 148.521 43.9172 145.6 41.9378C142.68 39.9585 136.445 81.411 136.445 81.411Z" fill="#C92615"/>
<path d="M112.31 87.5779C112.207 87.6428 109.697 89.2165 108.586 89.0543C107.476 88.8921 104.043 87.0263 102.472 87.7077C100.9 88.3891 100.678 90.0926 102.147 90.985C103.616 91.8935 104.675 92.0395 104.675 92.0395C104.675 92.0395 101.003 93.9377 100.388 93.7755C99.773 93.6133 98.9873 92.9967 98.3211 93.2888C97.6721 93.5808 96.3228 98.4967 100.251 100.492C104.18 102.488 107.647 102.845 110.602 101.904C113.54 100.963 116.426 100.168 117.963 98.9834C119.501 97.7991 119.637 97.1501 119.637 97.1501L119.535 96.4687L112.31 87.5779Z" fill="#FEABB5"/>
<path d="M116.036 90.6758C115.967 90.8542 116.941 96.8734 113.815 98.804C110.707 100.735 107.051 101.643 105.617 101.708C104.182 101.773 101.312 101.027 101.312 101.027C101.312 101.027 105.719 103.217 110.741 101.805C110.741 101.805 114.908 100.832 117.419 99.3394C119.93 97.8468 119.93 96.4353 119.93 96.4353L116.036 90.6758Z" fill="#FE8D90"/>
<path d="M137.865 39.4098C137.865 39.4098 133.253 41.2431 132.655 49.2578C132.074 57.2725 132.467 65.6765 131.289 68.6293C130.11 71.5821 111.715 85.8755 111.715 85.8755C111.715 85.8755 111.783 90.1262 115.78 93.7928C119.777 97.4595 119.64 96.8105 119.64 96.8105C119.64 96.8105 140.529 86.1351 142.186 84.6749C146.934 80.554 147.225 74.8918 148.369 70.1868C149.667 64.8815 150.982 56.0719 148.745 44.9259C147.6 43.5956 146.507 42.6221 145.67 41.9569C144.287 40.8699 143.057 40.1561 141.844 39.6369C140.188 38.9393 139.18 38.8419 138.326 39.1664C138.121 39.2637 137.967 39.3449 137.865 39.4098Z" fill="#F0512A"/>
<path d="M126.266 12.9805C126.266 12.9805 128.469 14.1162 128.965 14.8949C129.46 15.6737 129.904 16.274 129.819 16.8418C129.733 17.4259 128.811 19.6323 128.333 20.3137C127.855 20.9952 126.744 22.1795 126.471 22.3904C126.215 22.6013 126.215 22.6013 126.215 22.6013" stroke="#4F2926" stroke-miterlimit="10"/>
<path d="M132.773 18.4953C132.773 18.4953 134.328 18.3006 135.113 18.9658C135.899 19.631 136.326 21.1398 136.326 21.1398" stroke="#4F2926" stroke-miterlimit="10"/>
<path d="M126.522 17.9639C127.005 17.0312 126.759 15.9769 125.972 15.609C125.185 15.2411 124.155 15.6989 123.672 16.6316C123.189 17.5642 123.435 18.6186 124.222 18.9865C125.009 19.3544 126.039 18.8965 126.522 17.9639Z" fill="#4F2926"/>
<path d="M134.682 22.8448C135.166 21.9121 134.919 20.8578 134.132 20.4899C133.345 20.122 132.315 20.5798 131.832 21.5125C131.349 22.4451 131.595 23.4994 132.382 23.8673C133.17 24.2352 134.199 23.7774 134.682 22.8448Z" fill="#4F2926"/>
<path d="M121.586 24.4178C122.774 24.4178 123.738 23.4953 123.738 22.3573C123.738 21.2194 122.774 20.2969 121.586 20.2969C120.397 20.2969 119.434 21.2194 119.434 22.3573C119.434 23.4953 120.397 24.4178 121.586 24.4178Z" fill="#FE8D90"/>
<path d="M130.912 28.9588C132.1 28.9588 133.064 28.0363 133.064 26.8983C133.064 25.7604 132.1 24.8379 130.912 24.8379C129.723 24.8379 128.76 25.7604 128.76 26.8983C128.76 28.0363 129.723 28.9588 130.912 28.9588Z" fill="#FE8D90"/>
<path d="M123.379 24.4023C123.379 24.4023 124.096 26.0734 124.882 26.6575C125.668 27.2416 127.034 27.3227 127.034 27.3227" stroke="#4F2926" stroke-miterlimit="10"/>
<path d="M170.399 161.512C169.955 161.544 170.246 167.32 170.246 167.32L167.222 167.401C167.222 167.401 166.847 168.293 167.154 169.332C167.462 170.37 169.648 173.42 169.648 173.42C169.648 173.42 169.58 182.116 170.024 183.009C170.468 183.901 172.517 181.662 173.73 179.147C174.943 176.616 177.249 167.807 177.71 165.876C178.171 163.945 178.171 163.28 178.171 163.28C178.171 163.28 178.393 160.798 170.399 161.512Z" fill="#F0512A"/>
<path d="M123.568 173.046C123.568 173.046 124.866 176.112 126.061 176.112C127.257 176.112 129.631 173.711 129.631 173.711C129.631 173.711 130.707 173.37 130.878 173.759C131.049 174.149 131.22 182.634 131.22 182.634C131.22 182.634 122.03 182.18 117.829 182.131C113.627 182.082 111.133 181.19 110.792 180.509C110.45 179.843 110.962 179.065 111.526 179.065C112.09 179.065 116.855 178.367 117.846 178.091C118.836 177.815 123.089 172.818 123.089 172.818L123.568 173.046Z" fill="#F0512A"/>
<path d="M123.412 32.0901C123.412 32.0901 125.991 31.9603 127.306 31.5547C128.622 31.1491 129.8 30.5488 129.8 30.5488C129.8 30.5488 129.544 32.2524 126.999 33.0798C124.454 33.9072 123.583 33.8585 123.583 33.8585L123.412 32.1712V32.0901Z" fill="#FE8D90"/>
<path d="M135.952 24.3535C135.952 24.3535 137.199 25.1647 137.062 26.0733C136.925 26.9818 136.396 27.355 135.918 27.0792C135.439 26.8033 135.029 26.1057 135.251 25.8624C135.473 25.619 136.276 25.2296 136.362 25.765C136.43 26.2842 135.935 26.2193 135.935 26.2193" stroke="#FE8D90" stroke-miterlimit="10"/>
<path d="M121.364 176.388C121.713 176.388 121.996 176.17 121.996 175.901C121.996 175.632 121.713 175.414 121.364 175.414C121.015 175.414 120.732 175.632 120.732 175.901C120.732 176.17 121.015 176.388 121.364 176.388Z" fill="#F9ECDC"/>
<path d="M120.357 177.508C120.659 177.508 120.904 177.319 120.904 177.086C120.904 176.853 120.659 176.664 120.357 176.664C120.055 176.664 119.811 176.853 119.811 177.086C119.811 177.319 120.055 177.508 120.357 177.508Z" fill="#F9ECDC"/>
<path d="M119.23 178.467C119.503 178.467 119.725 178.278 119.725 178.045C119.725 177.812 119.503 177.623 119.23 177.623C118.956 177.623 118.734 177.812 118.734 178.045C118.734 178.278 118.956 178.467 119.23 178.467Z" fill="#F9ECDC"/>
<path d="M168.986 169.005C169.106 168.693 168.988 168.366 168.722 168.274C168.456 168.181 168.143 168.359 168.024 168.671C167.904 168.982 168.022 169.309 168.288 169.401C168.554 169.494 168.866 169.316 168.986 169.005Z" fill="#F9ECDC"/>
<path d="M169.735 170.29C169.838 170.021 169.736 169.738 169.505 169.658C169.275 169.578 169.004 169.731 168.9 170.001C168.797 170.27 168.9 170.553 169.13 170.633C169.36 170.713 169.631 170.559 169.735 170.29Z" fill="#F9ECDC"/>
<path d="M170.301 171.619C170.395 171.375 170.284 171.112 170.054 171.032C169.824 170.952 169.561 171.085 169.467 171.33C169.373 171.574 169.484 171.836 169.714 171.916C169.944 171.996 170.207 171.863 170.301 171.619Z" fill="#F9ECDC"/>
<path d="M4.09068 154.909C4.09068 154.909 11.7768 159.468 21.4783 155.655C21.4783 155.655 25.3385 153.968 28.4641 149.231C31.5898 144.493 31.5044 144.51 33.2978 145.353C35.0742 146.197 35.0742 162.08 35.0742 162.08L37.5337 162.226C37.5337 162.226 37.5337 148.322 35.3816 144.088C35.3816 144.088 34.7838 140.567 33.2978 140.275C31.8119 139.983 28.8399 139.788 23.4938 142.043C18.1477 144.299 17.5499 141.054 10.4958 143.666C3.44163 146.278 0.845435 150.22 0.0939054 152.978C-0.657624 155.737 1.06748 158.77 1.06748 158.77C1.06748 158.77 0.828355 156.775 4.09068 154.909Z" fill="#529A74"/>
<path d="M1.63086 154.94C1.8529 154.308 3.62925 152.75 14.7826 151.339C25.9189 149.927 29.2667 143.437 30.9064 143.227" stroke="#328A5A" stroke-width="3" stroke-miterlimit="10"/>
<path d="M13.8262 122.202C14.424 122.105 15.5342 126.226 21.9906 129.471C28.4469 132.715 31.7263 133.072 33.7247 132.651C35.7231 132.229 37.1407 130.314 37.8069 130.606C38.473 130.898 38.473 161.513 38.473 161.513H40.8471C40.8471 161.513 40.4714 129.974 40.181 129.341C39.8906 128.708 38.9171 126.453 33.0415 122.786C27.1659 119.12 22.93 115.161 15.5172 116.865C15.5172 116.865 12.2548 118 10.6151 120.255C8.97544 122.511 9.94902 123.922 9.94902 123.922C9.94902 123.922 9.65865 122.835 13.8262 122.202Z" fill="#529A74"/>
<path d="M12.4082 120.662C12.4082 120.662 21.102 119.461 26.8239 123.485C32.5458 127.508 35.364 129.131 35.364 129.131" stroke="#328A5A" stroke-width="3" stroke-miterlimit="10"/>
<path d="M42.3177 161.788C41.6516 160.62 42.0444 123.58 42.3177 122.461C42.591 121.342 42.813 119.703 48.1079 117.967C53.4028 116.231 65.7176 105.799 70.8417 106.383C75.9657 106.967 81.4827 111.721 81.3802 113.311C81.2606 114.901 78.2545 114.268 75.59 114.527C72.9084 114.787 71.4053 118.227 67.9039 122.786C64.3854 127.344 58.2706 129.032 51.968 127.02C45.6654 125.008 44.8285 123.84 44.8285 123.84L43.7695 161.999L42.3177 161.788Z" fill="#328A5A"/>
<path d="M45.9206 162.08C45.5448 161.237 48.7388 136.82 47.0308 128.14C45.3228 119.46 45.9206 117.14 42.0605 115.728C38.2003 114.317 29.7969 108.671 28.0205 103.025C26.2442 97.3788 26.0222 94.1989 25.8001 93.8582C25.5781 93.5175 25.2023 92.4467 23.426 94.134C21.6496 95.8213 20.8981 93.4364 23.4943 90.1105C26.0905 86.7845 28.6867 85.876 33.23 88.7639C37.7733 91.6517 45.2716 99.6989 46.9796 103.868C48.6876 108.038 46.8259 114.382 46.9796 116.215C47.1333 118.048 49.7978 128.497 50.3273 135.976C50.8397 143.455 48.6193 162.016 48.6193 162.016L45.9206 162.08Z" fill="#529A74"/>
<path d="M45.647 123.37C45.647 123.37 56.51 125.333 60.0798 123.694C63.6495 122.055 69.0981 110.358 72.4458 109.725C75.7936 109.092 81.3617 113.586 81.3617 113.586C81.3617 113.586 81.4813 114.641 77.8432 114.544C74.2051 114.446 73.5048 114.965 71.0453 118.405C68.5857 121.844 66.4165 126.03 61.0704 127.182C55.7243 128.35 52.2058 127.296 49.4217 126.225C46.6376 125.17 44.793 123.84 44.793 123.84L45.647 123.37Z" fill="#529A74"/>
<path d="M27.8672 90.3848C27.8672 90.3848 38.269 100.898 40.5749 106.122C42.8807 111.346 43.8372 114.38 43.8372 114.38" stroke="#328A5A" stroke-width="3" stroke-miterlimit="10"/>
<path d="M21.9219 93.9074C21.9902 93.0638 25.2696 86.2821 30.6157 90.5977C35.9618 94.9133 35.8935 99.0018 40.044 102.522C44.2116 106.043 45.6975 108.168 45.4755 110.78C45.2535 113.393 45.6292 116.637 46.5857 118.114C47.5593 119.59 47.7813 119.525 47.5593 119.59C47.3372 119.655 46.7736 115.842 46.7736 115.842C46.7736 115.842 49.2331 106.741 46.5516 102.831C43.87 98.9207 36.1839 88.6022 30.1204 87.2231C24.0398 85.8441 21.9219 93.9074 21.9219 93.9074Z" fill="#328A5A"/>
<path d="M84.5562 145.111C84.5562 145.111 76.8701 149.394 67.1685 145.808C67.1685 145.808 63.3084 144.218 60.1827 139.757C58.1331 136.836 57.467 135.83 56.7325 135.701C56.7325 135.701 56.0835 135.636 55.349 136.09C52.582 137.777 53.2823 156.97 53.5385 162.487C52.8553 162.568 52.1721 162.649 51.4889 162.73C50.874 157.83 50.6007 151.779 51.4035 144.932C51.8305 141.233 52.5137 137.875 53.2823 134.889C53.2823 134.889 53.8801 131.563 55.3661 131.304C56.8521 131.044 59.8241 130.833 65.1702 132.959C70.5163 135.084 71.1141 132.034 78.1682 134.484C85.2223 136.95 87.8185 140.665 88.5701 143.261C89.3045 145.857 87.5965 148.712 87.5965 148.712C87.5965 148.712 87.8185 146.863 84.5562 145.111Z" fill="#328A5A"/>
<path d="M86.6056 144.364C86.1786 143.553 84.129 141.817 74.547 142.222C64.965 142.628 59.7555 134.516 58.3379 134.565" stroke="#529A74" stroke-width="3" stroke-miterlimit="10"/>
<path d="M56.3225 189.953H29.9677C28.9087 189.953 28.0547 189.142 28.0547 188.136V163.313C28.0547 162.307 28.9087 161.496 29.9677 161.496H56.3225C57.3814 161.496 58.2354 162.307 58.2354 163.313V188.136C58.2525 189.126 57.3814 189.953 56.3225 189.953Z" fill="#FEABB5"/>
<path d="M34.0156 189.629C34.1352 189.37 38.4223 181.842 43.8709 177.137C49.3366 172.432 58.2525 171.215 58.2525 171.215L58.372 187.78C58.372 187.78 58.2012 189.889 55.1951 190.002L34.0156 189.629Z" fill="#FE8D90"/>
<path d="M67.6626 22.0319H22.4684C20.6579 22.0319 19.1719 20.6367 19.1719 18.9007V11.7621C19.1719 10.0424 20.6408 8.63086 22.4684 8.63086H67.6626C69.4731 8.63086 70.9591 10.0261 70.9591 11.7621V18.9007C70.9591 20.6367 69.4731 22.0319 67.6626 22.0319Z" fill="#F1CFAA"/>
<path d="M66.0404 14.3722H34.9885C34.7665 14.3722 34.5957 14.2099 34.5957 13.999V12.4415C34.5957 12.2306 34.7665 12.0684 34.9885 12.0684H66.0404C66.2624 12.0684 66.4332 12.2306 66.4332 12.4415V13.999C66.4332 14.2099 66.2454 14.3722 66.0404 14.3722Z" fill="#F9ECDC"/>
<path d="M66.2792 18.9503H35.2444C35.0224 18.9503 34.8516 18.7881 34.8516 18.5771V17.0196C34.8516 16.8087 35.0224 16.6465 35.2444 16.6465H66.2962C66.5183 16.6465 66.6891 16.8087 66.6891 17.0196V18.5771C66.672 18.7881 66.5012 18.9503 66.2792 18.9503Z" fill="#F9ECDC"/>
<path d="M27.8311 20.1678C30.6233 20.1678 32.8869 18.1558 32.8869 15.6738C32.8869 13.1917 30.6233 11.1797 27.8311 11.1797C25.0389 11.1797 22.7754 13.1917 22.7754 15.6738C22.7754 18.1558 25.0389 20.1678 27.8311 20.1678Z" fill="#FAEFE5"/>
<path d="M27.8321 11.1797V15.982L22.8105 15.3168C22.8276 15.3006 23.0155 11.3906 27.8321 11.1797Z" fill="#E6B78B"/>
<path d="M8.58203 50.9592C8.58203 50.9592 12.2884 49.4504 13.894 49.5802C15.4995 49.71 16.3877 51.1539 17.8395 51.3324C19.2913 51.5271 22.0242 49.4504 24.3471 49.7586C26.6871 50.0669 26.6871 51.2675 28.4463 51.3324C30.2227 51.3973 31.5037 49.2557 34.3902 49.6289C37.2939 50.002 35.6713 51.0728 38.3358 51.0728C41.0003 51.0728 41.3931 49.7587 43.4769 49.9371C45.5607 50.1156 45.8852 50.505 45.8852 50.505" stroke="#E6B78B" stroke-width="4" stroke-miterlimit="10"/>
<path d="M9.625 53.0847C11.965 52.2735 13.4851 52.5168 14.8515 52.8413C16.218 53.1496 16.218 55.0964 18.558 54.3501C20.8979 53.6038 22.6572 52.3384 23.7845 52.5331C24.9118 52.7277 26.7565 54.1068 28.2937 54.1717C29.8138 54.2366 32.1538 52.8575 33.5202 52.8575C34.8866 52.8575 36.7313 54.1068 38.5931 53.9283C40.4377 53.7336 42.0433 52.4844 43.1705 52.4844C44.2978 52.4844 45.6643 53.1171 45.6643 53.1171" stroke="#E6B78B" stroke-width="4" stroke-miterlimit="10"/>
<path d="M178.222 130.766H166.966C165.838 130.766 164.916 129.89 164.916 128.819V115.662C164.916 114.591 165.838 113.715 166.966 113.715H178.222C179.349 113.715 180.271 114.591 180.271 115.662V128.819C180.271 129.89 179.349 130.766 178.222 130.766Z" fill="#F1CFAA"/>
<path d="M172.689 126.565C169.204 124.099 167.326 121.341 168.06 119.702C168.282 119.215 168.931 118.372 169.973 118.209C171.322 117.999 172.347 119.053 172.45 119.167C172.638 118.956 173.423 118.145 174.687 118.047C174.909 118.031 176.19 117.934 176.942 118.745C176.942 118.745 177.3 119.134 177.42 119.734C177.693 121.032 175.814 123.677 172.689 126.565Z" fill="#F0512A"/>
<path d="M192.793 87.2854C192.793 87.2854 196.499 85.7766 198.105 85.9064C199.71 86.0361 200.599 87.4801 202.05 87.6586C203.502 87.8532 206.235 85.7766 208.558 86.0848C210.898 86.3931 210.898 87.5937 212.657 87.6586C214.434 87.7234 215.715 85.5819 218.601 85.955C221.488 86.3282 219.882 87.399 222.547 87.399C225.211 87.399 225.604 86.0848 227.688 86.2633C229.772 86.458 230.096 86.8311 230.096 86.8311" stroke="#E6B78B" stroke-width="4" stroke-miterlimit="10"/>
<path d="M193.836 89.4265C196.176 88.6153 197.696 88.8586 199.062 89.1831C200.429 89.4914 200.429 91.4382 202.769 90.6919C205.109 89.9456 206.868 88.6802 207.995 88.8748C209.123 89.0695 210.967 90.4486 212.505 90.5135C214.042 90.5784 216.365 89.1993 217.731 89.1993C219.098 89.1993 220.942 90.4486 222.804 90.2701C224.666 90.0917 226.254 88.8262 227.381 88.8262C228.509 88.8262 229.875 89.4589 229.875 89.4589" stroke="#E6B78B" stroke-width="4" stroke-miterlimit="10"/>
<path d="M190.675 91.8286L187.686 90.4171L184.765 91.9584L185.243 88.8272L182.801 86.6694L186.097 86.134L187.498 83.2461L189.052 86.0529L192.366 86.4422L190.026 88.7136L190.675 91.8286Z" fill="#E6B78B"/>
<path d="M55.6035 91.2458C59.4145 91.2458 62.5039 88.3112 62.5039 84.6912C62.5039 81.0713 59.4145 78.1367 55.6035 78.1367C51.7925 78.1367 48.7031 81.0713 48.7031 84.6912C48.7031 88.3112 51.7925 91.2458 55.6035 91.2458Z" fill="#F1CFAA"/>
<path d="M59.2428 86.9966L56.5271 86.6234L54.6482 88.5217L54.1871 85.9583L51.6934 84.855L54.1358 83.6382L54.4604 81.0586L56.4246 82.8757L59.1233 82.3727L57.9106 84.709L59.2428 86.9966Z" fill="#FDAA40"/>
<path d="M207.755 62.7391H176.191C174.175 62.7391 172.553 61.1978 172.553 59.2834V28.2467C172.553 26.3323 174.175 24.791 176.191 24.791H207.755C209.771 24.791 211.393 26.3323 211.393 28.2467V59.2672C211.393 61.1816 209.771 62.7391 207.755 62.7391Z" fill="#F1CFAA"/>
<path d="M190.384 32.4642C190.554 32.4805 190.349 28.6191 190.349 28.6191L194.261 28.6678L194.244 32.6914C194.244 32.6914 196.857 33.0645 197.779 33.8108C198.702 34.5734 199.129 35.0439 199.129 35.0439L195.764 38.3536C195.764 38.3536 193.014 36.066 190.247 37.8831C190.247 37.8831 188.881 40.5925 191.408 41.3388C191.408 41.3388 194.141 41.2739 195.849 41.858C197.557 42.442 201.212 44.9405 200.034 49.5644C198.855 54.1883 194.722 55.1617 194.722 55.1617L194.329 55.2428L194.534 58.5688C194.534 58.5688 190.845 58.7635 190.674 58.6823C190.503 58.6012 190.606 54.967 190.606 54.967C190.606 54.967 187.77 54.6425 185.464 52.8254L184.679 51.852L188.3 48.4936C188.3 48.4936 190.144 50.6514 193.236 50.473C196.328 50.2783 195.508 46.563 193.988 46.3683C192.467 46.1736 187.548 46.4656 185.26 41.858C182.937 37.2666 187.463 32.3182 190.384 32.4642Z" fill="#DC952D"/>
</g>
<defs>
<clipPath id="clip0_63_3881">
<rect width="230" height="190" fill="white"/>
</clipPath>
</defs>
</svg>
