<svg width="24" height="24" viewBox="0 0 24 24" fill="none" xmlns="http://www.w3.org/2000/svg">
<path d="M12 21C11.5209 21.0004 11.0518 20.8588 10.6485 20.592C9.50436 19.8332 7.3039 18.2758 5.44256 16.3741C3.15835 14.0385 2 11.8389 2 9.83476C2 8.44218 2.39909 7.16623 3.15424 6.14529C3.87033 5.17451 4.8819 4.48027 6.02641 4.17411C7.17094 3.86793 8.38198 3.9676 9.465 4.45708C10.4343 4.8887 11.2989 5.61639 12 6.58208C12.7012 5.61404 13.5657 4.88634 14.535 4.45708C15.6181 3.9676 16.8291 3.86793 17.9736 4.17411C19.1181 4.48027 20.1297 5.17451 20.8458 6.14529C21.6009 7.16623 22 8.44218 22 9.83476C22 11.8389 20.8417 14.0375 18.5575 16.3723C16.6961 18.2739 14.4966 19.8313 13.3515 20.5901C12.9484 20.8576 12.4793 20.9999 12 21ZM7.33914 5.18337C6.97715 5.18303 6.61672 5.23226 6.26729 5.32976C5.39023 5.5782 4.6162 6.11627 4.06362 6.86164C3.46224 7.67482 3.14417 8.70332 3.14417 9.83665C3.14417 11.514 4.18811 13.4312 6.2476 15.5355C8.0325 17.361 10.1593 18.8646 11.2668 19.5965C11.4855 19.7408 11.7396 19.8173 11.9991 19.8173C12.2586 19.8173 12.5127 19.7408 12.7314 19.5965C13.839 18.8627 15.9639 17.3591 17.7506 15.5355C19.8101 13.4312 20.854 11.514 20.854 9.83665C20.854 8.70332 20.536 7.6767 19.9346 6.86164C19.382 6.11627 18.608 5.5782 17.7309 5.32976C16.167 4.89153 13.9698 5.34958 12.4916 7.94965C12.4412 8.0385 12.3691 8.11219 12.2825 8.16341C12.196 8.21462 12.0979 8.24158 11.9982 8.24158C11.8984 8.24158 11.8004 8.21462 11.7138 8.16341C11.6273 8.11219 11.5552 8.0385 11.5048 7.94965C10.3433 5.90303 8.73411 5.18337 7.33914 5.18337Z" fill="#1C1C1C"/>
</svg>
