<svg width="25" height="25" viewBox="0 0 25 25" fill="none" xmlns="http://www.w3.org/2000/svg">
<rect width="25" height="25" rx="12.5" fill="#787878"/>
<g clip-path="url(#clip0_282_1967)">
<path d="M18.9095 7.75801C18.3332 7.16967 17.7449 6.58634 17.242 6.08967C17.0703 5.91801 16.842 5.83301 16.6128 5.83301C16.3841 5.83301 16.1549 5.91842 15.9836 6.09009C13.0299 9.04884 10.0716 12.0047 7.11365 14.9618C7.0649 15.0105 7.02823 15.0697 7.00615 15.1355C6.6824 16.1068 6.10115 17.6951 5.85157 18.6034C5.76157 18.928 6.05157 19.2305 6.38032 19.1547C7.46115 18.9051 8.90698 18.3126 9.86448 17.9934C9.92907 17.9722 9.98907 17.9359 10.0382 17.8884C12.9941 14.9293 15.9537 11.9734 18.9095 9.01551C19.252 8.67217 19.252 8.10092 18.9095 7.75801V7.75801ZM6.98073 18.0188C7.05865 17.7793 7.14282 17.5368 7.22657 17.2843C7.33698 17.3305 7.44073 17.3968 7.53032 17.4872C7.61657 17.5734 7.6799 17.6705 7.72615 17.7738C7.47573 17.8572 7.22323 17.9426 6.98073 18.0188ZM9.48698 17.183C9.20157 17.2797 8.88323 17.3884 8.56782 17.4955C8.4774 17.2638 8.34407 17.0438 8.15823 16.8576C7.96823 16.668 7.7449 16.5343 7.50698 16.4443C7.61282 16.1309 7.72323 15.7959 7.81657 15.5163L14.972 8.35801C15.5286 8.91426 16.0849 9.47051 16.6416 10.0272C14.2599 12.4118 11.8716 14.7984 9.48698 17.183V17.183ZM17.2695 9.39759L15.6011 7.73009L16.6124 6.73009L18.2699 8.38634L17.2695 9.39759Z" fill="white"/>
</g>
<defs>
<clipPath id="clip0_282_1967">
<rect width="13.3333" height="13.3333" fill="white" transform="translate(5.83398 5.83301)"/>
</clipPath>
</defs>
</svg>
