<svg width="20" height="20" viewBox="0 0 20 20" fill="none" xmlns="http://www.w3.org/2000/svg">
<g clip-path="url(#clip0_75_559)">
<path d="M2.49935 0H11.666C12.3291 0 12.9649 0.263392 13.4338 0.732233C13.9026 1.20107 14.166 1.83696 14.166 2.5V6.66667C14.166 6.88768 14.0782 7.09964 13.9219 7.25592C13.7657 7.4122 13.5537 7.5 13.3327 7.5C13.1117 7.5 12.8997 7.4122 12.7434 7.25592C12.5871 7.09964 12.4993 6.88768 12.4993 6.66667V2.5C12.4993 2.27899 12.4116 2.06702 12.2553 1.91074C12.099 1.75446 11.887 1.66667 11.666 1.66667H2.49935C2.27834 1.66667 2.06637 1.75446 1.91009 1.91074C1.75381 2.06702 1.66602 2.27899 1.66602 2.5V17.5C1.66602 17.721 1.75381 17.933 1.91009 18.0893C2.06637 18.2455 2.27834 18.3333 2.49935 18.3333H11.666C11.887 18.3333 12.099 18.2455 12.2553 18.0893C12.4116 17.933 12.4993 17.721 12.4993 17.5V13.3333C12.4993 13.1123 12.5871 12.9004 12.7434 12.7441C12.8997 12.5878 13.1117 12.5 13.3327 12.5C13.5537 12.5 13.7657 12.5878 13.9219 12.7441C14.0782 12.9004 14.166 13.1123 14.166 13.3333V17.5C14.166 18.163 13.9026 18.7989 13.4338 19.2678C12.9649 19.7366 12.3291 20 11.666 20H2.49935C1.83631 20 1.20042 19.7366 0.731582 19.2678C0.262741 18.7989 -0.000650704 18.163 -0.000650704 17.5V2.5C-0.000650704 1.83696 0.262741 1.20107 0.731582 0.732233C1.20042 0.263392 1.83631 0 2.49935 0V0Z" fill="#717171"/>
<path d="M16.0772 6.91098C16.2335 6.75476 16.4454 6.66699 16.6664 6.66699C16.8873 6.66699 17.0993 6.75476 17.2555 6.91098L19.7555 9.41098C19.9086 9.56893 19.9941 9.78022 19.9941 10.0001C19.9941 10.2201 19.9086 10.4314 19.7555 10.5893L17.2555 13.0893C17.1787 13.1689 17.0867 13.2324 16.985 13.2761C16.8834 13.3197 16.774 13.3427 16.6634 13.3437C16.5527 13.3447 16.443 13.3236 16.3406 13.2817C16.2382 13.2398 16.1451 13.1779 16.0669 13.0996C15.9886 13.0214 15.9267 12.9284 15.8848 12.8259C15.8429 12.7235 15.8219 12.6138 15.8228 12.5031C15.8238 12.3925 15.8468 12.2831 15.8904 12.1815C15.9341 12.0798 15.9976 11.9879 16.0772 11.911L17.1547 10.8335H6.66636C6.44535 10.8335 6.23339 10.7457 6.07711 10.5894C5.92083 10.4331 5.83303 10.2212 5.83303 10.0001C5.83303 9.77913 5.92083 9.56717 6.07711 9.41089C6.23339 9.25461 6.44535 9.16681 6.66636 9.16681H17.1547L16.0772 8.08931C15.921 7.93304 15.8332 7.72112 15.8332 7.50015C15.8332 7.27918 15.921 7.06725 16.0772 6.91098Z" fill="#717171"/>
</g>
<defs>
<clipPath id="clip0_75_559">
<rect width="20" height="20" fill="white" transform="matrix(-1 0 0 1 20 0)"/>
</clipPath>
</defs>
</svg>
