<svg width="17" height="17" viewBox="0 0 17 17" fill="none" xmlns="http://www.w3.org/2000/svg">
<g clip-path="url(#clip0_29_122)">
<path d="M8.47847 8.18898C9.60349 8.18898 10.5777 7.78548 11.3736 6.98939C12.1696 6.19342 12.5731 5.21951 12.5731 4.09436C12.5731 2.9696 12.1696 1.99556 11.3735 1.19933C10.5774 0.403496 9.60336 0 8.47847 0C7.35332 0 6.37941 0.403496 5.58344 1.19946C4.78748 1.99543 4.38385 2.96947 4.38385 4.09436C4.38385 5.21951 4.78748 6.19355 5.58357 6.98952C6.37967 7.78535 7.35371 8.18898 8.47847 8.18898Z" fill="#6799B7"/>
<path d="M15.6429 13.0721C15.62 12.7409 15.5735 12.3796 15.5052 11.998C15.4362 11.6136 15.3473 11.2501 15.241 10.918C15.1311 10.5747 14.9817 10.2356 14.797 9.91073C14.6053 9.57351 14.3802 9.27987 14.1275 9.03824C13.8633 8.78546 13.5399 8.58222 13.1658 8.43397C12.793 8.28651 12.38 8.2118 11.9381 8.2118C11.7645 8.2118 11.5967 8.283 11.2726 8.49403C11.0731 8.62411 10.8398 8.77456 10.5793 8.94097C10.3566 9.08286 10.055 9.2158 9.68234 9.33616C9.31879 9.4538 8.94967 9.51346 8.58535 9.51346C8.22102 9.51346 7.85203 9.4538 7.48809 9.33616C7.11585 9.21593 6.81417 9.08299 6.59174 8.9411C6.33377 8.77625 6.10031 8.6258 5.89785 8.4939C5.57412 8.28287 5.40616 8.21167 5.23262 8.21167C4.79061 8.21167 4.37764 8.28651 4.00502 8.4341C3.63122 8.58209 3.30763 8.78533 3.04317 9.03837C2.79064 9.28013 2.56536 9.57364 2.37392 9.91073C2.18936 10.2356 2.03995 10.5745 1.92996 10.9181C1.82374 11.2503 1.73489 11.6136 1.66589 11.998C1.59754 12.379 1.55111 12.7405 1.52815 13.0725C1.50558 13.3978 1.49417 13.7354 1.49417 14.0764C1.49417 14.9638 1.77627 15.6822 2.33255 16.212C2.88195 16.7349 3.60892 17.0001 4.49295 17.0001H12.6785C13.5626 17.0001 14.2893 16.735 14.8388 16.212C15.3952 15.6826 15.6773 14.9641 15.6773 14.0763C15.6772 13.7337 15.6656 13.3959 15.6429 13.0721Z" fill="#6799B7"/>
</g>
<defs>
<clipPath id="clip0_29_122">
<rect width="17" height="17" fill="white"/>
</clipPath>
</defs>
</svg>
