<svg width="18" height="18" viewBox="0 0 18 18" fill="none" xmlns="http://www.w3.org/2000/svg">
<g clip-path="url(#clip0_86_1535)">
<path d="M17.7169 13.598C17.1339 12.4788 16.2684 11.5835 15.1456 10.9376C14.7124 10.6872 14.3034 10.5654 13.8952 10.5654C13.7365 10.5654 13.5772 10.5845 13.4208 10.6221C12.9025 10.7477 12.4046 10.9902 11.8988 11.3636C11.7391 11.4814 11.5438 11.5411 11.3182 11.5411C11.0435 11.5411 10.746 11.4468 10.5423 11.2951C9.06373 10.1928 7.80902 8.93818 6.70699 7.45978C6.49031 7.1688 6.31857 6.5363 6.6382 6.10308C7.01167 5.59721 7.25426 5.0993 7.38 4.58013C7.51469 4.02067 7.41145 3.45686 7.06502 2.8575C6.41831 1.73333 5.52298 0.86789 4.4041 0.28498C4.04153 0.0959933 3.67051 0 3.30138 0C2.68407 0 2.10631 0.268131 1.63085 0.774896C1.19378 1.24001 0.807354 1.73253 0.361485 2.32889C-0.0466366 2.8753 -0.0129889 3.50561 0.016759 4.06172L0.017509 4.07357C0.0676055 4.77892 0.331087 5.61366 0.822953 6.62464C1.65505 8.33587 2.83691 9.96076 4.43575 11.592C4.76418 11.9274 6.07399 13.2372 6.40957 13.5657C8.04115 15.165 9.66604 16.3468 11.377 17.1788C12.3882 17.6707 13.2227 17.9341 13.9282 17.9842L13.9401 17.985C14.0852 17.9928 14.2404 18 14.3914 18C14.3914 18 14.3914 18 14.3914 18C14.7639 18 15.2462 17.9591 15.6729 17.6401C16.2694 17.1944 16.762 16.8079 17.2265 16.3713C18.0409 15.6073 18.2241 14.5704 17.7169 13.598Z" fill="white"/>
</g>
<defs>
<clipPath id="clip0_86_1535">
<rect width="18" height="18" fill="white"/>
</clipPath>
</defs>
</svg>
