<svg width="90" height="97" viewBox="0 0 90 97" fill="none" xmlns="http://www.w3.org/2000/svg">
<path d="M29.621 64.0872C30.2186 64.5888 31.1102 64.5111 31.6117 63.9131L50.2864 41.6574C50.7881 41.0595 50.7101 40.1682 50.1123 39.6666C49.5143 39.1649 48.6231 39.2429 48.1215 39.8407L29.4469 62.0963C28.9452 62.6943 29.0232 63.5857 29.621 64.0872Z" fill="#003362"/>
<path d="M18.3608 65.6882C18.0644 66.0412 17.6173 66.2167 17.1659 66.1594C5.59282 64.6755 -3.13358 76.1223 1.07531 86.8489C1.75981 88.5928 4.07084 88.9632 5.27817 87.5245L12.8971 78.4448L16.9709 79.1632L18.3859 83.0505L10.7592 92.1398C10.1913 92.8164 10.0261 93.7191 10.3172 94.5541C10.6064 95.3844 11.292 95.9852 12.151 96.1612C23.5093 98.4892 33.2137 87.7636 29.7336 76.6823C29.6053 76.2736 29.7076 75.8028 30.0008 75.4535L43.3749 59.5147L43.7136 59.9183C44.7957 61.2082 46.7156 61.3762 48.0056 60.2938L49.0338 59.4311L51.1185 61.9156C48.8585 64.393 48.7214 68.2317 50.9348 70.87L70.3831 94.0473C72.8 96.928 77.1089 97.2853 79.9682 94.8859C81.4467 93.6452 85.9966 89.8274 87.5751 88.5029C88.9627 87.3385 89.8145 85.6981 89.9734 83.8835C90.132 82.0689 89.5781 80.3054 88.4139 78.9177L68.9658 55.7403C66.7524 53.1022 62.9478 52.5712 60.1157 54.3664L58.0309 51.8819L59.0591 51.0191C60.3459 49.9394 60.5143 48.0138 59.4344 46.7271L57.0095 43.8371C56.9296 43.742 56.8441 43.6534 56.7544 43.57L61.8982 37.4399C62.2249 37.0506 62.7429 36.8737 63.2173 36.9888C68.4569 38.2606 73.9887 37.2239 78.395 34.1438C79.0347 33.6967 79.1909 32.8157 78.7438 32.1761C78.2967 31.5364 77.4158 31.3802 76.776 31.8273C73.0344 34.4424 68.335 35.3223 63.8842 34.2423C62.3736 33.8751 60.7449 34.4178 59.7336 35.623L57.4212 38.3787C57.1003 36.7307 56.2369 35.1778 54.8534 34.017H54.8532C53.4699 32.8562 51.7906 32.2753 50.1118 32.2456L52.4238 29.4901C53.435 28.2848 53.685 26.5842 53.0608 25.1578C50.6149 19.5656 51.5296 13.1905 55.4482 8.52061C58.9068 4.39877 64.0883 2.3353 69.4103 2.92728L60.5023 13.5436C59.5858 14.6358 59.3194 16.1465 59.8072 17.4861L61.7143 22.7262C62.2019 24.0659 63.377 25.0521 64.7809 25.2995L70.2727 26.2679C71.6763 26.5149 73.1178 25.9907 74.0344 24.8985L82.9257 14.3022C84.2069 18.7475 83.5036 23.623 81.0005 27.4637C80.5743 28.1175 80.759 28.9931 81.4128 29.4191C82.0662 29.8449 82.9419 29.6604 83.3681 29.0066C86.4497 24.2777 87.2179 18.2237 85.4221 12.812C84.8128 10.9748 82.4134 10.5151 81.1682 11.9996L71.8694 23.0815C71.5998 23.4027 71.1749 23.5574 70.7633 23.4841L65.2715 22.5157C64.8589 22.443 64.5133 22.153 64.37 21.7591L62.4629 16.5188C62.3193 16.1248 62.3977 15.6808 62.6671 15.3597L71.9812 4.25991C73.2233 2.77919 72.3619 0.499433 70.4471 0.212484C63.9283 -0.763856 57.513 1.66268 53.2832 6.70359C48.6696 12.202 47.592 19.7071 50.4715 26.2901C50.669 26.741 50.5853 27.2838 50.2588 27.6731C49.3595 28.7449 43.9188 35.2287 43.1797 36.1095L25.4691 15.0029C25.4433 14.9171 25.4111 14.8327 25.3683 14.7511L22.8122 9.8896C22.8114 9.88809 22.8103 9.88658 22.8093 9.88508C22.757 9.78673 22.6974 9.70289 22.6437 9.63901L18.192 4.33358C17.2801 3.24683 15.6656 3.10929 14.5824 4.0178L9.44241 8.33145C8.35755 9.24147 8.21586 10.8561 9.12645 11.9412L13.5782 17.2466C13.6408 17.3211 13.7521 17.4262 13.8424 17.4904L17.8932 20.3669C17.9286 20.424 17.9668 20.4801 18.0113 20.5331L37.1308 43.3188C36.4847 44.0888 19.7597 64.0209 18.3608 65.6882ZM72.5481 92.2308L53.0998 69.0535C51.7633 67.4604 51.8942 65.1194 53.3436 63.679C54.1843 66.039 53.7152 65.1399 74.8359 90.3109C75.7322 91.3792 76.8022 92.3103 77.8833 92.9245C76.2142 94.1004 73.88 93.8182 72.5481 92.2308ZM66.801 57.5569L86.2489 80.7342C86.9279 81.5436 87.2507 82.5744 87.1578 83.637C87.0749 84.5861 86.6675 85.451 86.0053 86.1092C85.5879 84.9376 84.8571 83.7222 83.9606 82.6541L76.0371 73.211C75.5355 72.6132 74.6441 72.5352 74.0463 73.0369C73.4485 73.5385 73.3705 74.4298 73.8722 75.0276L81.7958 84.4708C83.2922 86.2539 83.6441 87.7708 83.5539 88.1877L81.955 89.5294L80.3562 90.871C80.3507 90.8712 80.3449 90.8714 80.339 90.8714C79.8927 90.8714 78.4775 90.2542 77.0008 88.4943L57.5529 65.317C56.0567 63.5339 55.7046 62.0168 55.7949 61.5999C57.8979 59.8352 57.3579 60.2883 58.9927 58.9165C59.4027 58.896 60.8412 59.4974 62.3481 61.2933L69.6247 69.9651C70.1263 70.5629 71.0176 70.6409 71.6155 70.1392C72.2133 69.6376 72.2913 68.7462 71.7895 68.1484L64.513 59.4767C63.585 58.3707 62.5186 57.4562 61.4709 56.8595C63.1404 55.6866 65.4654 55.9656 66.801 57.5569ZM57.9105 56.1352C56.5074 57.3126 58.9432 55.2687 53.2434 60.0513L51.1986 57.6146L55.8657 53.6985L57.9105 56.1352ZM57.2695 48.5438C57.3479 48.6371 57.336 48.7755 57.2422 48.8543C56.1402 49.779 47.3108 57.1879 46.1891 58.129C46.0949 58.2081 45.9566 58.1949 45.8786 58.1018L45.2198 57.3167L54.9253 45.75L57.2695 48.5438ZM27.8359 73.637C26.9152 74.7343 26.6166 76.1892 27.0375 77.5292C29.796 86.313 22.3711 94.9075 13.308 93.499L20.818 84.5488C21.3004 83.9739 21.4404 83.1788 21.1836 82.4744L19.4843 77.8059C19.2277 77.1013 18.6093 76.5826 17.8709 76.4522L12.9787 75.5897C12.2392 75.4585 11.4808 75.7355 10.9991 76.3102L3.49864 85.2485C0.576215 76.5864 7.64818 67.7893 16.806 68.9627C18.2172 69.1444 19.6079 68.5989 20.5254 67.505L22.2368 65.4655C22.5655 67.1736 23.4584 68.7022 24.8025 69.83C26.1468 70.958 27.8073 71.5709 29.5469 71.5982L27.8359 73.637ZM53.0365 36.182C55.0518 37.873 55.3155 40.8881 53.6246 42.9034L33.3407 67.0767C31.6544 69.0863 28.629 69.3507 26.6194 67.6648C24.6096 65.9783 24.3455 62.9528 26.0313 60.9436C26.5766 60.294 45.8054 37.3781 46.3169 36.7685C48.0082 34.7544 51.0222 34.4916 53.0365 36.182ZM16.9701 16.2452L21.1267 12.7574L22.3368 15.059L19.1112 17.7657L16.9701 16.2452ZM16.1969 6.35314L19.5706 10.3738L14.8349 14.3476L11.4612 10.3269L16.1969 6.35314ZM38.9755 41.1204L21.0846 19.799L23.8539 17.4754L41.3351 38.3084C40.0069 39.8914 40.2915 39.5523 38.9755 41.1204Z" fill="#003362"/>
</svg>
