<svg width="106" height="97" viewBox="0 0 106 97" fill="none" xmlns="http://www.w3.org/2000/svg">
<path d="M43.2826 96.4821C43.0381 96.4821 42.7944 96.4292 42.5676 96.3239C42.4546 96.2709 30.933 90.7157 19.9357 78.6007C13.775 71.8141 8.98283 64.2984 5.69196 56.2634C1.59781 46.2657 -0.170557 35.4344 0.435618 24.0697C0.478715 23.2664 1.07994 22.6037 1.87546 22.4836C12.4461 20.8862 22.2756 16.862 31.0898 10.5233C37.3445 6.02501 40.9999 1.80651 41.9713 0.621012C42.2935 0.228199 42.7746 0 43.2833 0C43.7913 0 44.2731 0.228199 44.5953 0.621012L44.6631 0.704378C46.5862 3.07044 53.8539 11.2425 66.6486 17.0563C67.5013 17.4434 67.8779 18.4488 67.4907 19.3015C67.1036 20.1543 66.0982 20.5315 65.2455 20.1437C59.1533 17.3756 53.5572 13.8036 48.611 9.52641C47.1648 8.27521 45.1739 6.43831 43.2677 4.29551C41.4217 6.31962 37.9987 9.7313 33.0695 13.2758C28.9923 16.2078 24.6148 18.7102 20.0593 20.7124C14.8446 23.0043 9.36787 24.6511 3.7604 25.6134C3.06026 44.8301 9.34243 61.8849 22.4466 76.3208C26.6587 80.9611 31.6367 85.3152 36.8421 88.912C39.866 91.0011 42.1812 92.2997 43.2854 92.884C45.4713 91.7359 52.3469 87.8516 59.7503 80.8862C71.1574 70.1531 78.4294 57.4524 81.3628 43.1359C81.5507 42.2182 82.448 41.6275 83.3643 41.8155C84.282 42.0034 84.8734 42.8992 84.6848 43.817C82.9955 52.0604 79.8671 59.9145 75.3865 67.1611C71.7869 72.9833 67.3077 78.4318 62.074 83.3561C52.6006 92.2693 44.083 96.2836 43.9983 96.3232C43.7708 96.4292 43.5263 96.4821 43.2826 96.4821V96.4821Z" fill="#003362"/>
<path d="M43.2827 86.5661C43.0382 86.5661 42.7945 86.5131 42.5677 86.4078C42.478 86.3661 33.3444 81.9625 24.6424 72.3754C19.7662 67.0032 15.9723 61.053 13.3667 54.691C10.1239 46.7733 8.72362 38.1964 9.20333 29.1999C9.24643 28.3966 9.84766 27.7339 10.6432 27.6138C18.905 26.3654 26.5874 23.2201 33.4772 18.2654C38.364 14.7506 41.2147 11.4618 41.9714 10.537C42.2936 10.1442 42.7747 9.91602 43.2834 9.91602C43.792 9.91602 44.2732 10.1442 44.5953 10.537L44.6646 10.6225C46.505 12.8953 53.4697 20.652 65.8341 25.0337C66.7165 25.3466 67.1785 26.3152 66.8663 27.1984C66.5533 28.0808 65.5847 28.5428 64.7015 28.2306C58.7331 26.1153 53.2563 23.0378 48.4238 19.0821C47.0222 17.9348 45.0998 16.2356 43.2643 14.2002C41.7467 15.8308 39.1285 18.3792 35.4582 21.0193C32.2288 23.3416 28.762 25.3233 25.1539 26.9094C21.1128 28.6855 16.8738 29.9721 12.5331 30.7415C12.0597 45.6478 16.9748 58.8834 27.1547 70.0983C34.024 77.6656 41.0671 81.7781 43.2862 82.9672C45.2404 81.9272 50.9072 78.6604 56.8199 72.9095C66.1513 63.8345 71.7538 53.071 73.472 40.9193C73.6034 39.9923 74.4611 39.3466 75.388 39.478C76.315 39.6087 76.9607 40.4671 76.8293 41.394C72.3798 72.8671 44.2824 86.2778 43.9991 86.4099C43.7709 86.5131 43.5264 86.5661 43.2827 86.5661V86.5661Z" fill="#003362"/>
<path d="M84.4333 45.2235C78.8209 45.2235 73.5441 43.0383 69.5757 39.0713C65.6066 35.1037 63.4214 29.8282 63.4214 24.2172C63.4214 18.6062 65.6073 13.3308 69.5757 9.36312C73.5441 5.39543 78.8209 3.21094 84.4333 3.21094C90.0457 3.21094 95.3226 5.39614 99.291 9.36312C103.26 13.3308 105.445 18.6062 105.445 24.2172C105.445 29.8282 103.259 35.1037 99.291 39.0713C95.3219 43.0383 90.0457 45.2235 84.4333 45.2235ZM84.4333 6.60142C74.7169 6.60142 66.8126 14.5036 66.8126 24.2165C66.8126 33.9295 74.7176 41.8316 84.4333 41.8316C94.1491 41.8316 102.054 33.9302 102.054 24.2172C102.054 14.5043 94.1491 6.60142 84.4333 6.60142V6.60142Z" fill="#003362"/>
<path d="M79.1041 32.4227C78.6456 32.4227 78.1892 32.2376 77.8557 31.8744L73.3737 26.9996C72.74 26.31 72.7852 25.2376 73.474 24.6038C74.1628 23.9701 75.236 24.0153 75.8697 24.7042L79.2419 28.3716L93.1401 16.4226C93.8501 15.8122 94.9205 15.8927 95.5309 16.6028C96.1413 17.3128 96.0607 18.3831 95.3507 18.9943L80.2091 32.0129C79.889 32.287 79.4955 32.4227 79.1041 32.4227V32.4227Z" fill="#003362"/>
<path d="M44.1973 57.452C39.0639 57.452 34.8878 53.2759 34.8878 48.1425C34.8878 43.0091 39.0639 38.833 44.1973 38.833C49.3308 38.833 53.5069 43.0091 53.5069 48.1425C53.5069 53.2759 49.33 57.452 44.1973 57.452ZM44.1973 42.2249C40.934 42.2249 38.279 44.8799 38.279 48.1432C38.279 51.4065 40.934 54.0616 44.1973 54.0616C47.4607 54.0616 50.1157 51.4065 50.1157 48.1432C50.1157 44.8799 47.4599 42.2249 44.1973 42.2249Z" fill="#003362"/>
<path d="M46.3309 68.7855H41.1728C40.3094 68.7855 39.5831 68.1362 39.4878 67.2778L39.0688 63.5242C38.0875 63.1971 37.1415 62.7774 36.2393 62.268L33.3709 64.5599C32.6962 65.099 31.7241 65.0453 31.1137 64.4342L27.466 60.7865C26.8556 60.1761 26.8012 59.204 27.3402 58.5293L29.7536 55.5097C29.2923 54.6075 28.9186 53.6671 28.6353 52.695L24.9367 52.2824C24.0783 52.1863 23.4291 51.4608 23.4291 50.5974V45.4393C23.4291 44.5752 24.0783 43.8497 24.9367 43.7543L28.7123 43.3332C29.0196 42.3406 29.4223 41.3826 29.9154 40.4669L27.6546 37.6381C27.1156 36.9634 27.1693 35.9913 27.7804 35.3809L31.428 31.7332C32.0385 31.1221 33.0106 31.0684 33.6853 31.6075L36.5127 33.8668C37.482 33.3433 38.4987 32.923 39.5528 32.6086L39.9329 29.204C40.0289 28.3456 40.7545 27.6963 41.6179 27.6963H46.776C47.6393 27.6963 48.3656 28.3456 48.461 29.204L48.8411 32.6086C49.9524 32.9399 51.0213 33.3892 52.0373 33.9523L54.5779 31.9219C55.2526 31.3828 56.2247 31.4365 56.8351 32.0476L60.4828 35.6953C61.0932 36.3057 61.1476 37.2785 60.6085 37.9525L58.5265 40.5581C59.0825 41.6044 59.5184 42.7037 59.8314 43.8447L63.012 44.1994C63.8704 44.2955 64.5197 45.021 64.5197 45.8844V51.0425C64.5197 51.9065 63.8704 52.6321 63.012 52.7275L59.6336 53.1048C59.2803 54.2055 58.8112 55.261 58.2305 56.2621L60.2941 58.8444C60.8332 59.5191 60.7795 60.4912 60.1684 61.1016L56.5207 64.7493C55.9103 65.3597 54.9375 65.4141 54.2635 64.875L51.4629 62.6368C50.4837 63.1286 49.4614 63.5178 48.4045 63.8011L48.0166 67.2785C47.9205 68.1362 47.195 68.7855 46.3309 68.7855V68.7855ZM42.6896 65.3943H44.8141L45.1673 62.2264C45.25 61.4838 45.8095 60.8826 46.5443 60.747C48.0392 60.4707 49.4607 59.9338 50.7677 59.1517C51.3746 58.7885 52.144 58.8401 52.6972 59.2824L55.1953 61.2789L56.6973 59.7769L54.8265 57.4356C54.3596 56.8513 54.3306 56.0297 54.7559 55.4136C55.6531 54.1137 56.2939 52.6795 56.6613 51.1499C56.8281 50.4554 57.4123 49.9404 58.1216 49.8612L61.1278 49.5257V47.4012L58.2637 47.0819C57.5247 46.9992 56.9263 46.4453 56.7864 45.7155C56.4861 44.1471 55.8997 42.6642 55.0441 41.3098C54.6584 40.6987 54.7022 39.9102 55.1529 39.3457L57.0117 37.0199L55.5097 35.5179L53.2313 37.3393C52.6576 37.7978 51.8529 37.8345 51.2397 37.4304C49.9185 36.56 48.4674 35.9489 46.9265 35.6154C46.215 35.4614 45.6809 34.8701 45.6004 34.1466L45.2591 31.0882H43.1347L42.7935 34.1466C42.7129 34.8701 42.1788 35.4614 41.4674 35.6154C39.9774 35.9383 38.5693 36.5212 37.2821 37.347C36.6696 37.7399 35.8754 37.6989 35.3074 37.2446L32.7527 35.2028L31.2507 36.7048L33.2932 39.2602C33.7468 39.8283 33.7885 40.6224 33.3963 41.2342C32.6001 42.4762 32.0293 43.8334 31.7008 45.2676C31.5397 45.9706 30.9526 46.4941 30.2362 46.5746L26.8203 46.9561V49.0806L30.1804 49.4557C30.9081 49.537 31.5015 50.076 31.652 50.7924C31.9494 52.2096 32.4836 53.5576 33.2381 54.7975C33.6083 55.4058 33.5588 56.1809 33.1145 56.7376L30.937 59.4625L32.439 60.9646L35.0538 58.8747C35.6317 58.4127 36.4435 58.3788 37.0581 58.7921C38.2804 59.6137 39.622 60.2121 41.0442 60.5717C41.7295 60.7448 42.2353 61.3249 42.3138 62.0278L42.6896 65.3943Z" fill="#003362"/>
</svg>
