<svg width="90" height="91" viewBox="0 0 90 91" fill="none" xmlns="http://www.w3.org/2000/svg">
<path d="M76.8259 13.2109C72.7218 9.10955 67.8658 5.83828 62.5233 3.57575C47.1394 -2.97518 29.3854 -0.39711 16.5014 10.26V6.03723C16.5014 5.20929 15.8298 4.53772 15.0012 4.53772C14.1726 4.53772 13.501 5.20929 13.501 6.03723V13.5376C13.501 14.3662 14.1726 15.0378 15.0012 15.0378H20.0889C19.1695 15.8029 18.2787 16.6064 17.4236 17.4602C15.0584 19.8414 13.0095 22.5172 11.3278 25.4219C11.2915 25.4589 11.2573 25.4973 11.2259 25.5378C11.205 25.5748 11.205 25.6174 11.1868 25.6544C5.11617 36.211 4.33081 48.9987 9.06529 60.2178C9.68799 61.6594 10.3959 63.0618 11.1868 64.4182C11.205 64.4552 11.205 64.4971 11.2259 64.5348C11.2706 64.6018 11.3208 64.6654 11.3753 64.724C14.7317 70.5398 19.566 75.3644 25.3888 78.7082C25.4321 78.7383 25.458 78.7836 25.504 78.8109C25.5578 78.836 25.6122 78.8583 25.6674 78.8779C36.2156 84.9255 48.9817 85.7025 60.1847 80.9778C61.6109 80.3613 62.9987 79.6604 64.3412 78.8779C64.3956 78.859 64.4494 78.8381 64.5017 78.8137C64.5415 78.7822 64.5799 78.748 64.6155 78.7117C70.4383 75.3679 75.2733 70.544 78.6305 64.7282C78.6849 64.6689 78.7345 64.6053 78.7799 64.5383C78.8008 64.5006 78.8008 64.4587 78.819 64.421C85.8139 52.4452 85.8139 37.6302 78.819 25.6544C78.8008 25.6174 78.8008 25.5748 78.7799 25.5378C78.7485 25.498 78.7149 25.4596 78.6793 25.4233C75.3194 19.5754 70.4683 14.7243 64.6197 11.3637C64.5764 11.3344 64.5513 11.289 64.5045 11.2618C64.4577 11.2353 64.4249 11.2408 64.3872 11.2234C53.8306 5.15135 41.0415 4.36669 29.8211 9.10187C28.3802 9.72457 26.9777 10.4324 25.6213 11.2234C25.5836 11.2408 25.5417 11.2408 25.504 11.2618C25.4642 11.2939 25.4258 11.3274 25.3902 11.3637C24.7738 11.7225 24.1539 12.0792 23.5584 12.4723C23.2778 12.1923 22.8973 12.036 22.5015 12.0374H19.0376C31.0539 2.57887 47.2609 0.395926 61.3512 6.33741C71.4254 10.5965 79.4431 18.6134 83.7014 28.6876C88.1043 39.143 88.1043 50.9324 83.7014 61.3878C79.4431 71.462 71.4254 79.4796 61.3512 83.738C50.8959 88.1409 39.1071 88.1409 28.651 83.738C18.5775 79.4796 10.5599 71.462 6.30083 61.3878C1.89795 50.9324 1.89795 39.143 6.30083 28.6876C6.62475 27.9246 6.26872 27.0436 5.5064 26.7197C4.74338 26.3958 3.86169 26.7518 3.53777 27.5148C-1.17926 38.7193 -1.17926 51.352 3.53777 62.5564C8.10192 73.3462 16.6892 81.9334 27.4782 86.4983C38.6827 91.216 51.3161 91.216 62.5198 86.4983C73.3096 81.9341 81.8969 73.3469 86.4617 62.5578C91.1794 51.3534 91.1794 38.7207 86.4617 27.5162C84.1992 22.1723 80.9272 17.315 76.8259 13.2109ZM30.9897 11.8607C34.9576 10.1839 39.1965 9.2394 43.5016 9.07325V18.0375C43.5016 18.8661 44.1732 19.5377 45.0011 19.5377C45.8298 19.5377 46.5013 18.8661 46.5013 18.0375V9.07325C50.8058 9.24149 55.0439 10.1867 59.0112 11.8635C59.925 12.2489 60.8116 12.6901 61.6814 13.1459L58.7026 18.3077C58.4304 18.7719 58.4276 19.3464 58.6957 19.8134C58.9637 20.2798 59.4615 20.5674 59.9997 20.566C60.5379 20.5653 61.0343 20.2756 61.3003 19.8079L64.2735 14.6594C68.7671 17.4706 72.5626 21.2662 75.3739 25.7598L70.2317 28.7386C69.764 29.0046 69.4743 29.5009 69.4729 30.0391C69.4715 30.5774 69.7591 31.0751 70.2261 31.3432C70.6924 31.6113 71.267 31.6092 71.7319 31.3369L76.8915 28.3574C77.3418 29.2307 77.7914 30.1145 78.1739 31.0262C79.8521 34.9942 80.7981 39.2331 80.9656 43.5375H72.0014C71.1734 43.5375 70.5019 44.2091 70.5019 45.0377C70.5019 45.8664 71.1734 46.5379 72.0014 46.5379H80.9656C80.7981 50.8417 79.8528 55.0805 78.1753 59.0478C77.79 59.9616 77.3495 60.8482 76.8929 61.718L71.7319 58.7392C71.267 58.467 70.6924 58.4642 70.2261 58.7323C69.7591 59.0003 69.4715 59.4981 69.4729 60.0363C69.4743 60.5745 69.764 61.0709 70.2317 61.3368L75.3794 64.31C72.5682 68.803 68.7727 72.5992 64.2797 75.4097L61.3003 70.2683C61.0343 69.7999 60.5379 69.5108 59.9997 69.5094C59.4615 69.508 58.9637 69.7957 58.6957 70.262C58.4276 70.729 58.4304 71.3036 58.7026 71.7678L61.6814 76.9281C60.8088 77.3784 59.9264 77.8279 59.0133 78.2105C55.0453 79.8887 50.8065 80.8346 46.5013 81.0022V72.0379C46.5013 71.2093 45.8298 70.5377 45.0011 70.5377C44.1732 70.5377 43.5016 71.2093 43.5016 72.0379V81.0022C39.1972 80.8346 34.959 79.8894 30.9911 78.2119C30.078 77.8266 29.1914 77.3854 28.3215 76.9281L31.3003 71.7678C31.708 71.0515 31.4602 70.1398 30.746 69.7272C30.0326 69.3154 29.1195 69.5569 28.702 70.2683L25.7295 75.416C21.2359 72.6048 17.4403 68.8093 14.6291 64.3156L19.7769 61.3431C20.2453 61.0772 20.5343 60.5808 20.5357 60.0426C20.5371 59.5036 20.2495 59.0066 19.7831 58.7385C19.3161 58.4705 18.7416 58.4726 18.2774 58.7448L13.1114 61.718C12.6612 60.8447 12.2109 59.9616 11.8284 59.0492C10.1501 55.0819 9.20491 50.8424 9.03737 46.5379H18.0009C18.8295 46.5379 19.5011 45.8664 19.5011 45.0377C19.5011 44.2091 18.8295 43.5375 18.0009 43.5375H9.03737C9.20491 39.2338 10.1501 34.9949 11.827 31.0276C12.2123 30.1145 12.6535 29.228 13.1094 28.3574L18.2711 31.3369C18.7353 31.6092 19.3098 31.6113 19.7769 31.3432C20.2439 31.0751 20.5308 30.5774 20.5301 30.0391C20.5287 29.5009 20.239 29.0046 19.7713 28.7386L14.6228 25.7654C17.4341 21.2725 21.2296 17.4769 25.7232 14.6657L28.6964 19.8134C28.9624 20.2819 29.4587 20.5709 29.997 20.5723C30.5352 20.5737 31.0329 20.2861 31.301 19.819C31.5691 19.3527 31.5663 18.7782 31.294 18.3139L28.3215 13.1473C29.1942 12.6901 30.0766 12.2503 30.9897 11.8649V11.8607Z" fill="#003362"/>
<path d="M25.7595 43.7972C23.4167 46.14 23.4167 49.9383 25.7595 52.2811L36.2596 62.7812C37.3814 63.9107 38.9096 64.5432 40.5012 64.5383H40.7881C42.4803 64.4587 44.0601 63.6678 45.138 62.3602L66.1381 36.8595C67.5391 35.2092 67.9433 32.932 67.1943 30.9006C66.4459 28.8691 64.6609 27.3989 62.5233 27.0527C60.3865 26.7071 58.2286 27.5392 56.8771 29.2307L40.0768 49.6312L34.2491 43.8049C31.8777 41.5305 28.1352 41.527 25.7595 43.7972ZM39.1183 52.9129C39.4129 53.2187 39.8269 53.3792 40.2506 53.3506C40.6737 53.3304 41.0681 53.1328 41.3368 52.8061L59.1871 31.1309C59.6926 30.5145 60.4242 30.1257 61.2179 30.0524C62.8661 29.896 64.33 31.1044 64.4878 32.7526C64.5667 33.5443 64.3251 34.3345 63.8176 34.9474L42.8175 60.4474C42.2751 61.1051 41.4793 61.5009 40.6276 61.5365L40.5012 61.5379C39.7054 61.54 38.9417 61.2237 38.3804 60.659L27.8804 50.1589C27.1006 49.4057 26.7878 48.2901 27.0622 47.2416C27.3365 46.1923 28.1561 45.3735 29.2046 45.0984C30.2539 44.8241 31.3687 45.1368 32.122 45.9166L39.1183 52.9129Z" fill="#003362"/>
</svg>
