<svg width="96" height="99" viewBox="0 0 96 99" fill="none" xmlns="http://www.w3.org/2000/svg">
<path d="M69.064 19.6911V13.645C69.064 11.9142 67.6549 10.5049 65.9239 10.5049H36.1075C34.3767 10.5049 32.9674 11.914 32.9674 13.645V19.6911C32.9674 21.4219 34.3765 22.8312 36.1075 22.8312H65.9239C67.6549 22.8311 69.064 21.4219 69.064 19.6911ZM36.0607 19.6911L36.1075 13.5981H65.9239C65.9496 13.5981 65.9708 13.6193 65.9708 13.645L65.9239 19.7379L36.0607 19.6911Z" fill="#003362"/>
<path d="M40.7023 39.2646C39.8474 39.2646 39.1556 39.9565 39.1556 40.8113C39.1556 41.6661 39.8474 42.3579 40.7023 42.3579H68.5008C69.3556 42.3579 70.0474 41.6661 70.0474 40.8113C70.0474 39.9565 69.3556 39.2646 68.5008 39.2646H40.7023Z" fill="#003362"/>
<path d="M61.2464 47.2217H40.7023C39.8474 47.2217 39.1556 47.9135 39.1556 48.7683C39.1556 49.6231 39.8474 50.3149 40.7023 50.3149H61.2464C62.1013 50.3149 62.7931 49.6231 62.7931 48.7683C62.7931 47.9135 62.1014 47.2217 61.2464 47.2217Z" fill="#003362"/>
<path d="M52.944 69.1055H40.7024C39.8476 69.1055 39.1558 69.7973 39.1558 70.6521C39.1558 71.5069 39.8476 72.1987 40.7024 72.1987H52.944C53.7988 72.1987 54.4906 71.5069 54.4906 70.6521C54.4906 69.7973 53.7988 69.1055 52.944 69.1055Z" fill="#003362"/>
<path d="M49.7494 77.0625H40.7023C39.8474 77.0625 39.1556 77.7543 39.1556 78.6091C39.1556 79.4639 39.8474 80.1558 40.7023 80.1558H49.7494C50.6042 80.1558 51.2961 79.4639 51.2961 78.6091C51.2961 77.7543 50.6044 77.0625 49.7494 77.0625Z" fill="#003362"/>
<path d="M27.8457 34.0029H15.0694C12.6437 34.0029 10.6711 35.9755 10.6711 38.4012V51.1775C10.6711 53.6032 12.6437 55.5758 15.0694 55.5758H27.8457C30.2714 55.5758 32.244 53.6032 32.244 51.1775V38.4011C32.244 35.9755 30.2714 34.0029 27.8457 34.0029ZM29.1507 51.1775C29.1507 51.8963 28.5647 52.4825 27.8457 52.4825H15.0694C14.3506 52.4825 13.7644 51.8965 13.7644 51.1775V38.4011C13.7644 37.6822 14.3504 37.096 15.0694 37.096H27.8457C28.5646 37.096 29.1507 37.6821 29.1507 38.4011V51.1775Z" fill="#003362"/>
<path d="M27.8457 63.8438H15.0694C12.6437 63.8438 10.6711 65.8179 10.6711 68.2434V81.0183C10.6711 83.444 12.6437 85.4166 15.0694 85.4166H27.8457C30.2714 85.4166 32.244 83.444 32.244 81.0183V68.2436C32.244 65.8179 30.2714 63.8438 27.8457 63.8438ZM29.1507 81.0183C29.1507 81.7372 28.5647 82.3233 27.8457 82.3233H15.0694C14.3506 82.3233 13.7644 81.7373 13.7644 81.0183V68.2436C13.7644 67.5232 14.3504 66.9372 15.0694 66.9372H27.8457C28.5646 66.9372 29.1507 67.5232 29.1507 68.2436V81.0183Z" fill="#003362"/>
<path d="M23.2482 41.9781L20.2592 44.1817L19.5826 43.2377C19.0856 42.5429 18.1221 42.3828 17.4243 42.8827C16.7311 43.3812 16.5708 44.3463 17.0693 45.041L18.6597 47.2583C19.1693 47.9654 20.1488 48.1086 20.8347 47.6012L25.0849 44.4671C25.772 43.9612 25.9186 42.9914 25.411 42.3043C24.9034 41.6171 23.9354 41.4706 23.2482 41.9781Z" fill="#003362"/>
<path d="M23.4597 71.818L20.4707 74.0216L19.7941 73.0791C19.2956 72.3844 18.3289 72.2243 17.6357 72.7242C16.941 73.2227 16.7823 74.1893 17.2808 74.8825L18.8712 77.0982C19.1129 77.4351 19.4784 77.6601 19.8862 77.725C19.9678 77.7371 20.0479 77.7431 20.128 77.7431C20.4557 77.7431 20.779 77.6389 21.0464 77.4411L25.2965 74.307C25.9837 73.8011 26.1303 72.8314 25.6227 72.1442C25.1166 71.457 24.1484 71.3104 23.4597 71.818Z" fill="#003362"/>
<path d="M92.2409 33.1597C88.0731 30.2018 82.1786 31.6115 79.4039 35.8354L79.0791 36.3303V13.8269C79.0791 6.20198 72.8771 0 65.2523 0H24.8698C21.4763 0 17.9273 1.29901 15.2343 3.92844L4.1759 14.6775C1.42321 17.344 0 20.9488 0 24.5759V85.0027C0 92.6276 6.20198 98.8296 13.8269 98.8296H65.2523C72.8771 98.8296 79.0791 92.6276 79.0791 85.0027V68.9487L94.5299 45.3472C97.1518 41.3681 96.193 35.959 92.2409 33.1597ZM6.34118 16.8892L17.3996 6.14012C18.3314 5.20827 19.7311 4.26978 21.0805 3.82017V18.1574C21.0805 19.4566 20.0134 20.5083 18.7142 20.5083H3.91297C4.61406 18.8956 5.44475 17.7448 6.34118 16.8892ZM75.9857 85.0027C75.9857 90.9263 71.1757 95.7363 65.2521 95.7363H13.8267C7.90312 95.7363 3.0931 90.9263 3.0931 85.0027V24.5759C3.0931 24.2511 3.10857 23.9263 3.1395 23.6016H18.7141C21.73 23.6016 24.1737 21.1579 24.1737 18.1574V3.12419C24.8961 3.07594 64.5252 3.09326 65.2521 3.09326C71.1757 3.09326 75.9857 7.91874 75.9857 13.8269V41.063L62.298 61.9734C61.2106 63.6278 60.4511 65.7736 60.3338 67.8815L59.6997 78.1202C59.6533 79.0482 60.1017 79.9298 60.875 80.4402C61.6717 80.9807 62.6844 80.9969 63.4888 80.5948L72.6139 75.924C73.802 75.3015 74.8946 74.5116 75.9855 73.3255V85.0027H75.9857ZM63.6127 66.7061L72.3666 72.4441C72.0656 72.6949 71.5664 72.9772 71.2066 73.171L62.8394 77.4397L63.4271 68.0671C63.4521 67.6916 63.4978 67.126 63.6127 66.7525V66.7061ZM74.6403 70.0777C74.6248 70.1087 74.5939 70.1396 74.563 70.1705L64.8037 63.783C64.8347 63.7366 64.8501 63.7056 64.8811 63.6592L78.8317 42.3622L88.6064 48.7497L74.6403 70.0777ZM91.9471 43.6459L90.2922 46.1823L80.5484 39.7948L82.1105 37.3665L82.126 37.3512C84.017 34.685 87.7702 33.8274 90.4623 35.6809C93.1081 37.5803 93.608 41.1337 91.9471 43.6459Z" fill="#003362"/>
</svg>
