<svg width="17" height="17" viewBox="0 0 17 17" fill="none" xmlns="http://www.w3.org/2000/svg">
<path d="M13.1043 7.11945V4.60414C13.1043 2.0655 11.0388 0 8.5001 0C5.96143 0 3.89593 2.0655 3.89593 4.60418V7.11948C3.08843 7.2838 2.47925 7.99923 2.47925 8.85418V15.2292C2.47928 16.2052 3.2733 17 4.2501 17H12.7501C13.7269 17 14.5209 16.2052 14.5209 15.2292V8.85418C14.5209 7.9992 13.9118 7.2838 13.1043 7.11945ZM9.28566 12.5587L9.55908 14.4706C9.57396 14.5726 9.54351 14.6752 9.47621 14.7525C9.40891 14.8297 9.31116 14.875 9.20846 14.875H7.79178C7.68908 14.875 7.59133 14.8304 7.52403 14.7532C7.45673 14.676 7.42628 14.5726 7.44116 14.4713L7.71458 12.5595C7.12241 12.2634 6.72928 11.6521 6.72928 10.9792C6.72928 10.0031 7.52333 9.20836 8.5001 9.20836C9.47687 9.20836 10.2709 10.0031 10.2709 10.9792C10.2709 11.6521 9.8778 12.2634 9.28566 12.5587ZM10.9793 7.08332H6.02093V4.60414C6.02093 3.23707 7.13303 2.125 8.5001 2.125C9.86718 2.125 10.9793 3.23707 10.9793 4.60418V7.08332V7.08332Z" fill="#577897"/>
</svg>
