<svg width="17" height="17" viewBox="0 0 17 17" fill="none" xmlns="http://www.w3.org/2000/svg">
<g clip-path="url(#clip0_29_132)">
<path d="M16.7326 12.8425C16.182 11.7855 15.3646 10.94 14.3042 10.3299C13.8951 10.0934 13.5088 9.9784 13.1233 9.9784C12.9734 9.9784 12.8229 9.99648 12.6753 10.0319C12.1857 10.1506 11.7155 10.3796 11.2378 10.7323C11.087 10.8435 10.9025 10.8999 10.6894 10.8999C10.43 10.8999 10.149 10.8109 9.95668 10.6676C8.56022 9.62652 7.37522 8.44161 6.33442 7.04535C6.12977 6.77053 5.96757 6.17317 6.26944 5.76402C6.62217 5.28625 6.85127 4.816 6.97003 4.32568C7.09724 3.7973 6.99973 3.26481 6.67255 2.69875C6.06177 1.63703 5.21618 0.819674 4.15946 0.269148C3.81703 0.0906603 3.46662 0 3.118 0C2.53499 0 1.98933 0.253235 1.54028 0.731846C1.12749 1.17112 0.762533 1.63628 0.341435 2.19951C-0.0440134 2.71556 -0.0122351 3.31085 0.0158602 3.83607L0.0165685 3.84726C0.0638819 4.51342 0.312726 5.30179 0.777266 6.2566C1.56313 7.87277 2.67934 9.40738 4.18935 10.948C4.49954 11.2647 5.73658 12.5018 6.05351 12.812C7.59445 14.3225 9.12907 15.4386 10.7449 16.2244C11.7 16.689 12.4881 16.9377 13.1545 16.9851L13.1657 16.9858C13.3028 16.9932 13.4493 17 13.5919 17C13.5919 17 13.5919 17 13.5919 17C13.9437 17 14.3992 16.9614 14.8022 16.6601C15.3656 16.2391 15.8308 15.8741 16.2695 15.4618C17.0386 14.7402 17.2117 13.761 16.7326 12.8425Z" fill="#6799B7"/>
</g>
<defs>
<clipPath id="clip0_29_132">
<rect width="17" height="17" fill="white"/>
</clipPath>
</defs>
</svg>
