<svg width="122" height="23" viewBox="0 0 122 23" fill="none" xmlns="http://www.w3.org/2000/svg">
<g clip-path="url(#clip0_495_3128)">
<path d="M65.3208 0.169201C64.3956 0.218984 63.1959 0.408162 62.4436 0.607296C60.1968 1.19474 59.2818 2.28002 58.8141 4.92851C58.6819 5.67526 58.4684 9.17007 58.4583 10.8727V11.3506H59.5054C61.1219 11.3506 63.3891 11.1614 64.5074 10.9424C65.9104 10.6636 67.0186 10.1259 67.8523 9.32937C69.3773 7.85578 69.7433 6.49171 69.9974 1.36401L70.0686 0.0995036L67.9438 0.119417C66.7848 0.129374 65.6054 0.149287 65.3208 0.169201Z" fill="#003362"/>
<path d="M70.3533 0.856615C70.3533 2.06138 70.5464 4.52068 70.7091 5.54623C70.9938 7.27869 71.6038 8.50337 72.6611 9.45921C74.0946 10.7436 75.7823 11.1718 79.9099 11.3112L81.8924 11.3809L81.8314 8.65272C81.7908 6.79082 81.7196 5.63584 81.5976 5.01852C81.1198 2.39991 80.2149 1.24493 78.1816 0.657481C77.0023 0.308996 75.7924 0.189515 73.0779 0.129775L70.3533 0.0700347V0.856615Z" fill="#003362"/>
<path d="M4.98167 2.40008C3.34483 2.62909 2.06383 3.52519 1.35217 4.92909C0.904833 5.80528 0.7625 6.48233 0.7625 7.76675C0.7625 9.19056 0.986167 10.1265 1.525 10.933C1.88083 11.4906 2.52133 12.088 3.02967 12.3369C3.15167 12.3966 3.25333 12.4962 3.25333 12.536C3.25333 12.6256 1.07767 17.3252 0.355833 18.7988C0.162667 19.1971 0 19.5455 0 19.5655C0 19.5953 0.488 19.6152 1.07767 19.6152H2.14517L2.5315 18.7888C2.745 18.3408 3.43633 16.8373 4.06667 15.4533L5.2155 12.9343L5.98817 12.9642L6.76083 12.994L6.79133 16.2996L6.81167 19.6152H7.72667H8.64167V10.9529V2.29056L7.09633 2.30051C6.24233 2.31047 5.28667 2.3503 4.98167 2.40008ZM6.79133 7.63731L6.76083 11.4009L5.83567 11.391C4.79867 11.3711 4.21917 11.1819 3.721 10.694C2.42983 9.42952 2.46033 5.9845 3.77183 4.70008C4.392 4.09272 4.9105 3.90354 6.02883 3.89359L6.81167 3.88363L6.79133 7.63731Z" fill="black"/>
<path d="M89.6293 2.59942C89.5988 2.76869 89.5683 3.79423 89.5683 4.86955C89.5683 8.86219 89.3243 13.2033 88.999 15.2843C88.6838 17.2258 88.0535 18.6198 87.4841 18.6198H87.23V20.5115V22.4033H87.6773H88.1145L88.1856 21.9453C88.2161 21.6864 88.2466 21.2284 88.2466 20.9198C88.2466 20.6111 88.2771 20.1929 88.3076 19.9938L88.3788 19.6154H92.11H95.8411L95.9123 20.3821C95.9428 20.8003 95.9733 21.4276 95.9733 21.776V22.4033H96.4816H96.99V20.5115V18.6297L96.4105 18.5999L95.8208 18.57L95.7903 10.4254L95.77 2.29076H92.7301H89.7005L89.6293 2.59942ZM94.55 10.9531V18.6198H91.8558C90.3715 18.6198 89.1616 18.5999 89.1616 18.57C89.1616 18.5401 89.243 18.3509 89.3548 18.1418C89.853 17.186 90.1783 15.5631 90.3816 13.0938C90.5036 11.5405 90.6663 7.34877 90.6968 5.07864C90.707 4.17258 90.7375 3.40592 90.7578 3.35613C90.7781 3.31631 91.6423 3.28644 92.6793 3.28644H94.55V10.9531Z" fill="black"/>
<path d="M100.111 7.2684C99.2674 7.4775 98.3117 8.12468 98.3117 8.49308C98.3117 8.61256 98.3625 8.88139 98.4235 9.09048L98.5252 9.46884L99.0742 8.98096C100.477 7.72641 102.287 7.94546 102.785 9.41905C102.958 9.9368 102.866 11.0121 102.602 11.5199C102.368 11.958 101.911 12.3563 101.433 12.5355C101.28 12.5952 100.792 12.6749 100.335 12.7048L99.5215 12.7745L99.552 13.1827L99.5825 13.5909L100.62 13.6507C101.535 13.6905 101.707 13.7403 102.134 13.9991C102.816 14.4074 103.131 15.0247 103.171 16.0303C103.253 17.8126 102.185 18.9476 100.569 18.7883C99.8977 18.7186 99.2267 18.41 98.7082 17.9221L98.3117 17.5537L98.149 17.9818C98.0575 18.2208 98.0067 18.4797 98.0372 18.5593C98.149 18.8481 99.0742 19.4156 99.7655 19.6247C101.494 20.1524 103.283 19.4455 103.964 17.9818C104.839 16.1 104.249 14.0489 102.602 13.2823L102.236 13.113L102.582 12.8541C103.527 12.1571 103.914 11.4801 103.985 10.3948C104.076 9.03074 103.527 7.94546 102.5 7.49741C101.87 7.20866 100.782 7.1091 100.111 7.2684Z" fill="black"/>
<path d="M108.478 7.33867C107.441 7.69711 106.486 9.0811 106.079 10.8036C105.804 11.9486 105.804 15.2343 106.069 16.3794C106.445 17.9625 107.146 18.998 108.153 19.4859C108.661 19.7248 108.854 19.7646 109.647 19.7646C110.471 19.7646 110.634 19.7348 111.223 19.446C111.589 19.2768 112.037 18.9781 112.22 18.7889L112.555 18.4504L112.382 18.0322C112.291 17.8131 112.189 17.624 112.148 17.624C112.108 17.624 111.945 17.7633 111.772 17.9326C110.806 18.9283 109.098 19.0876 108.224 18.2512C107.533 17.5941 107.096 16.3097 106.984 14.6071L106.923 13.6413H109.719H112.514L112.586 12.9543C112.677 12.0781 112.494 10.2859 112.23 9.51919C111.599 7.66724 110.095 6.7811 108.478 7.33867ZM109.82 8.16508C110.329 8.30447 110.928 8.99149 111.162 9.69841C111.386 10.4153 111.579 12.0183 111.488 12.4863L111.416 12.8447H109.17H106.933L107.004 12.0681C107.207 9.98716 107.909 8.5733 108.946 8.21486C109.434 8.0456 109.373 8.0456 109.82 8.16508Z" fill="black"/>
<path d="M31.3641 7.50747C30.1035 8.08496 29.2596 9.6183 28.975 11.8785C28.8123 13.1231 28.8936 15.672 29.1173 16.4586C29.5138 17.8625 30.2865 18.9079 31.293 19.3858C32.0758 19.7642 33.489 19.8239 34.4345 19.5352C35.1868 19.3062 35.99 18.8581 35.99 18.6889C35.99 18.6192 35.8985 18.2806 35.7765 17.9421L35.563 17.3248L35.1461 17.5638C34.9123 17.6932 34.4751 17.8724 34.1701 17.962C32.7265 18.3702 31.7301 17.9122 31.2218 16.598C31.0693 16.1698 30.805 14.5967 30.805 14.0391C30.805 13.9694 31.6793 13.9395 33.4076 13.9395H36.0205L35.9595 12.3663C35.8375 8.80185 34.8005 7.26851 32.5435 7.26851C32.0555 7.26851 31.7301 7.33821 31.3641 7.50747ZM33.0315 8.90141C33.5906 9.19016 33.8753 9.94687 34.0075 11.4802L34.0786 12.3464H32.4825H30.8761L30.9473 11.5599C31.0693 10.146 31.4556 9.21007 32.0555 8.92133C32.4621 8.72219 32.6655 8.72219 33.0315 8.90141Z" fill="black"/>
<path d="M48.7491 7.39837C47.2241 7.89621 46.3091 8.97153 45.7906 10.9031C45.5161 11.9187 45.5161 15.065 45.7906 16.1304C46.1973 17.7235 46.9903 18.8685 48.0679 19.3863C48.5966 19.6451 48.7491 19.665 49.7658 19.665C50.7824 19.665 50.9349 19.6451 51.4433 19.3863C52.4294 18.9083 52.4091 18.9482 52.1549 18.1317L51.9313 17.4248L51.6466 17.6239C51.1891 17.9425 50.5588 18.1217 49.8674 18.1217C49.3286 18.1217 49.1761 18.0819 48.8304 17.833C48.3933 17.5243 48.0679 16.9668 47.8138 16.1005C47.6003 15.3637 47.5189 12.6456 47.6816 11.6698C48.0883 9.16071 49.3388 8.28452 51.1993 9.20054C51.5856 9.38971 51.9109 9.52911 51.9414 9.49924C51.9618 9.47932 52.0431 9.09101 52.1041 8.65292L52.2261 7.84642L51.6568 7.58755C51.1993 7.37846 50.9044 7.31872 50.1216 7.29881C49.5218 7.27889 49.0033 7.31872 48.7491 7.39837Z" fill="black"/>
<path d="M11.1325 7.48777C11.102 7.55747 11.0918 10.3055 11.102 13.5912L11.1325 19.5653L12.078 19.5951L13.0133 19.625V16.8769V14.1289L14.4366 14.1588L15.8701 14.1886L15.8905 16.8769L15.9108 19.5653L16.8563 19.5951L17.7916 19.625V13.4917V7.35833L16.8563 7.3882C16.1955 7.40812 15.9108 7.4579 15.9006 7.53755C15.8905 7.60725 15.8803 8.76223 15.8701 10.1064L15.86 12.5458H14.4366H13.0133V9.95703V7.36829H12.0983C11.4578 7.36829 11.163 7.40812 11.1325 7.48777Z" fill="black"/>
<path d="M20.9127 9.87757C20.8111 13.5317 20.5976 15.304 20.0079 17.1061L19.7131 18.0222H19.3166H18.9099V19.9637V21.9053H19.7741H20.6382V20.7603V19.6152H23.2816H25.9249V20.7603V21.9053H26.7891H27.6532V19.9637V18.0222H27.1957H26.7382L26.7179 12.7152L26.6874 7.41826L23.8306 7.38839L20.9737 7.36848L20.9127 9.87757ZM24.8066 13.4919V18.0222H23.1697H21.5329L21.6041 17.7932C21.8989 16.8672 22.1734 15.6923 22.3056 14.8261C22.4784 13.681 22.6716 11.0525 22.6716 9.778V8.96155H23.7391H24.8066V13.4919Z" fill="black"/>
<path d="M37.9725 7.48777C37.942 7.55747 37.9319 10.3055 37.942 13.5912L37.9725 19.5653L38.918 19.5951L39.8534 19.625V16.6081C39.8635 13.88 39.8737 13.6111 40.016 13.7904C40.0974 13.8999 40.5345 14.6865 40.992 15.5328C41.4394 16.3791 42.1307 17.6436 42.517 18.3505L43.2185 19.615H44.2352C44.7842 19.615 45.2417 19.5852 45.2417 19.5453C45.2417 19.5155 45.0892 19.2068 44.896 18.8782C43.8184 16.9666 41.785 13.193 41.785 13.1133C41.785 13.0635 42.4459 11.809 43.2592 10.3055C44.0725 8.81201 44.7334 7.5276 44.7334 7.46786C44.7334 7.39816 44.4284 7.36829 43.8082 7.3882L42.883 7.41807L41.4394 10.1263C40.6464 11.6198 39.9652 12.8644 39.9245 12.9042C39.8839 12.944 39.8534 11.7194 39.8534 10.1761V7.36829H38.9384C38.2979 7.36829 38.003 7.40812 37.9725 7.48777Z" fill="black"/>
<path d="M114.731 7.48777C114.7 7.55747 114.69 10.3055 114.7 13.5912L114.731 19.5653L115.321 19.5951L115.9 19.625V16.6778V13.7406H118.035H120.17V16.6878V19.625L120.709 19.5951L121.238 19.5653V13.4917V7.41807L120.709 7.3882L120.17 7.35833L120.15 10.0765L120.119 12.7947L118.015 12.8246L115.9 12.8445V10.1064V7.36829H115.341C114.985 7.36829 114.761 7.41807 114.731 7.48777Z" fill="black"/>
<path d="M58.5192 11.7194C58.4277 11.8091 58.5395 15.5926 58.6717 17.0762C58.9767 20.4316 60.0035 21.8554 62.5554 22.4926C63.694 22.7814 64.914 22.9008 67.5879 22.9705L70.0584 23.0303L69.9974 21.6961C69.7635 16.6978 69.3772 15.2441 67.8827 13.7904C66.3679 12.3069 64.9039 11.9285 59.8714 11.6995C59.1699 11.6697 58.5599 11.6796 58.5192 11.7194Z" fill="#003362"/>
<path d="M79.2999 11.7593C75.8839 11.9285 74.2878 12.3268 72.9458 13.3623C72.2443 13.9099 71.8071 14.4575 71.3598 15.3835C70.7599 16.648 70.5261 18.0519 70.3939 21.2978L70.3228 23.0303L72.8034 22.9705C75.5484 22.9008 76.6159 22.7913 77.8258 22.4926C80.9469 21.716 81.8416 19.7744 81.8416 13.7805V11.6498L81.4146 11.6597C81.1706 11.6697 80.2251 11.7194 79.2999 11.7593Z" fill="#003362"/>
</g>
<defs>
<clipPath id="clip0_495_3128">
<rect width="122" height="23" fill="white"/>
</clipPath>
</defs>
</svg>
