<svg width="20" height="21" viewBox="0 0 20 21" fill="none" xmlns="http://www.w3.org/2000/svg">
<path d="M13.1547 6.79106L5.86834 10.0079C5.45936 10.1954 5.59686 10.8153 6.04686 10.8153H9.53123C9.57267 10.8153 9.61241 10.8317 9.64172 10.861C9.67102 10.8903 9.68748 10.9301 9.68748 10.9715V14.4551C9.68748 14.9051 10.3125 15.0411 10.4992 14.6332L13.7109 7.34731C13.7469 7.26946 13.7581 7.18245 13.743 7.09803C13.728 7.01361 13.6874 6.93584 13.6268 6.87521C13.5661 6.81457 13.4884 6.77399 13.4039 6.75895C13.3195 6.7439 13.2325 6.75511 13.1547 6.79106Z" fill="#003362"/>
<path d="M17.5 10.502C17.5 6.36133 14.1406 3.00195 10 3.00195C5.85938 3.00195 2.5 6.36133 2.5 10.502C2.5 14.6426 5.85938 18.002 10 18.002C14.1406 18.002 17.5 14.6426 17.5 10.502Z" stroke="#003362" stroke-width="1.3367" stroke-miterlimit="10"/>
</svg>
