<svg width="20" height="20" viewBox="0 0 20 20" fill="none" xmlns="http://www.w3.org/2000/svg">
<path d="M10 0C8.02219 0 6.08879 0.58649 4.4443 1.6853C2.79981 2.78412 1.51809 4.3459 0.761209 6.17317C0.00433288 8.00043 -0.1937 10.0111 0.192152 11.9509C0.578004 13.8907 1.53041 15.6725 2.92894 17.0711C4.32746 18.4696 6.10929 19.422 8.0491 19.8079C9.98891 20.1937 11.9996 19.9957 13.8268 19.2388C15.6541 18.4819 17.2159 17.2002 18.3147 15.5557C19.4135 13.9112 20 11.9778 20 10C20 7.34784 18.9464 4.8043 17.0711 2.92893C15.1957 1.05357 12.6522 0 10 0V0ZM15.7636 13.9136C15.4727 13.9545 14.05 13.9136 13.9761 13.9136C13.6083 13.9185 13.2535 13.778 12.9886 13.5227C12.6886 13.233 12.4205 12.9148 12.1273 12.6136C12.0409 12.5212 11.947 12.4361 11.8466 12.3591C11.6125 12.1795 11.3807 12.2193 11.2705 12.4966C11.1844 12.795 11.1243 13.1003 11.0909 13.4091C11.0716 13.6886 10.8943 13.8636 10.5807 13.883C10.3864 13.8932 10.192 13.8977 10 13.892C9.30003 13.8882 8.61101 13.718 7.98978 13.3955C7.31741 13.0212 6.73155 12.5093 6.27046 11.8932C5.5125 10.925 4.90682 9.86136 4.36591 8.76477C4.3375 8.70909 3.78296 7.52955 3.76932 7.47386C3.71932 7.28864 3.76932 7.11023 3.92273 7.04773C4.02046 7.01023 5.84773 7.04773 5.87841 7.04773C6.01436 7.0468 6.14707 7.08913 6.25738 7.16859C6.36769 7.24805 6.44987 7.36053 6.49205 7.48977C6.83013 8.35454 7.29258 9.16535 7.86478 9.89659C7.94493 9.99399 8.0387 10.0793 8.14319 10.15C8.29205 10.2523 8.43296 10.217 8.49432 10.0443C8.56713 9.80626 8.60989 9.56003 8.62159 9.31136C8.63182 8.81818 8.62159 8.49432 8.59432 8.00114C8.57614 7.68523 8.46478 7.40909 7.99887 7.31932C7.85569 7.29318 7.84319 7.175 7.93523 7.05682C8.12728 6.8125 8.38978 6.77273 8.68409 6.75795C9.12273 6.73295 9.56137 6.75 10 6.75795H10.0955C10.2864 6.75726 10.4768 6.77668 10.6636 6.81591C10.7742 6.83847 10.8745 6.89612 10.9496 6.98027C11.0248 7.06442 11.0707 7.17058 11.0807 7.28295C11.1032 7.40738 11.1128 7.53382 11.1091 7.66023C11.0977 8.19773 11.0716 8.73636 11.0659 9.27386C11.0606 9.48713 11.0801 9.7003 11.1239 9.90909C11.1864 10.1955 11.383 10.267 11.5784 10.0602C11.8317 9.79346 12.0639 9.50737 12.2727 9.20455C12.6429 8.65259 12.948 8.05962 13.1818 7.4375C13.3091 7.11818 13.4091 7.04773 13.75 7.04773H15.6886C15.8039 7.0457 15.9188 7.06103 16.0295 7.09318C16.0687 7.10348 16.1054 7.12176 16.1372 7.14687C16.169 7.17199 16.1952 7.2034 16.2143 7.23913C16.2334 7.27487 16.2449 7.31416 16.2481 7.35455C16.2513 7.39494 16.2462 7.43556 16.233 7.47386C16.1375 7.89886 15.908 8.26136 15.6648 8.61023C15.2705 9.16818 14.8545 9.7125 14.4511 10.2636C14.4026 10.3349 14.3582 10.4089 14.3182 10.4852C14.1659 10.7602 14.1773 10.9136 14.3977 11.1409C14.75 11.5034 15.1261 11.842 15.4659 12.2148C15.7151 12.486 15.9402 12.7784 16.1386 13.0886C16.3807 13.4795 16.2273 13.8477 15.7636 13.9136V13.9136Z" fill="#003362"/>
</svg>
