<svg width="20" height="20" viewBox="0 0 20 20" fill="none" xmlns="http://www.w3.org/2000/svg">
<path d="M19.2205 4.17017C18.4985 3.31198 17.1656 2.96191 14.6201 2.96191H5.37974C2.77594 2.96191 1.42045 3.33456 0.701226 4.24824C0 5.13908 0 6.45166 0 8.2683V11.7308C0 15.2502 0.832 17.0371 5.37974 17.0371H14.6201C16.8276 17.0371 18.0508 16.7282 18.8422 15.9709C19.6537 15.1942 20 13.9262 20 11.7308V8.2683C20 6.35249 19.9457 5.03217 19.2205 4.17017ZM12.8401 10.4776L8.64406 12.6706C8.55026 12.7196 8.44768 12.7439 8.34523 12.7439C8.22923 12.7439 8.11348 12.7127 8.01097 12.6506C7.81794 12.5337 7.70006 12.3244 7.70006 12.0988V7.72688C7.70006 7.50159 7.81761 7.29256 8.01026 7.17553C8.20297 7.05849 8.44265 7.05049 8.64258 7.15437L12.8386 9.3332C13.0521 9.44404 13.1861 9.66443 13.1865 9.90488C13.1867 10.1455 13.0532 10.3662 12.8401 10.4776Z" fill="#003362"/>
</svg>
