<svg width="31" height="39" viewBox="0 0 31 39" fill="none" xmlns="http://www.w3.org/2000/svg">
<path d="M7.95179 10.8064V7.7988C7.95179 3.50389 11.3179 0 15.4991 0C19.6802 0 23.0463 3.50389 23.0463 7.7988V10.8064H28.263C28.502 10.8066 28.732 10.897 28.9068 11.0594C29.0816 11.2218 29.1881 11.4441 29.2049 11.6817L30.9981 37.9985C31.0139 38.2471 30.9304 38.4918 30.7659 38.6794C30.6013 38.867 30.369 38.9822 30.1196 39H0.941898C0.692091 39 0.452516 38.9011 0.275875 38.7252C0.0992352 38.5492 0 38.3105 0 38.0616V37.9985L1.79323 11.6817C1.8093 11.4436 1.91549 11.2205 2.09034 11.0575C2.26519 10.8945 2.49565 10.8036 2.73513 10.8034L7.95179 10.8064ZM10.7835 10.8064H20.2176V7.7988C20.2176 5.03478 18.1044 2.81815 15.4991 2.81815C12.8937 2.81815 10.7835 5.03478 10.7835 7.7988V10.8064ZM2.96155 36.1849H28.0366L26.503 13.6276H4.49817L2.96155 36.1849Z" fill="black"/>
<rect width="25" height="24" transform="translate(3 13)" fill="black"/>
</svg>
