<svg width="26" height="26" viewBox="0 0 26 26" fill="none" xmlns="http://www.w3.org/2000/svg">
<path d="M14.0566 24.9345C14.3434 24.6478 14.5045 24.2588 14.5045 23.8533C14.5045 23.4477 14.3434 23.0587 14.0566 22.772L5.84971 14.5651L23.7881 14.5759C24.1953 14.5759 24.5858 14.4141 24.8738 14.1262C25.1617 13.8383 25.3235 13.4477 25.3235 13.0405C25.3235 12.6333 25.1617 12.2427 24.8738 11.9548C24.5858 11.6669 24.1953 11.5051 23.7881 11.5051L5.84971 11.5159L14.0566 3.30902C14.3434 3.02224 14.5045 2.6333 14.5045 2.22774C14.5045 1.82219 14.3434 1.43324 14.0566 1.14647C13.7698 0.859694 13.3809 0.698586 12.9753 0.698586C12.5698 0.698586 12.1808 0.859694 11.894 1.14647L1.08129 11.9592C0.941696 12.1022 0.831492 12.2712 0.756904 12.4566C0.602418 12.8305 0.602418 13.2505 0.756904 13.6244C0.831492 13.8098 0.941696 13.9788 1.08129 14.1218L11.894 24.9345C12.1808 25.2213 12.5698 25.3824 12.9753 25.3824C13.3809 25.3824 13.7698 25.2213 14.0566 24.9345Z" fill="#003362"/>
</svg>
